/* XPM */
static char *dbdd3b0d57a64452a3b254aa87d0b9633GTPcA8lXEQKr40H[] = {
/* columns rows colors chars-per-pixel */
"16 16 115 2 ",
"   c None",
".  c #000007",
"X  c #070018",
"o  c #100B23",
"O  c #1B142E",
"+  c #1F1936",
"@  c #1F1837",
"#  c #26213B",
"$  c #231B40",
"%  c #281F48",
"&  c #2C2347",
"*  c #322849",
"=  c #353245",
"-  c #322652",
";  c #3F365B",
":  c #342A62",
">  c #433A60",
",  c #433A65",
"<  c #42366C",
"1  c #483F68",
"2  c #483E6F",
"3  c #4D4953",
"4  c #4B4956",
"5  c #5F5F5B",
"6  c #484163",
"7  c #4F496A",
"8  c #50476D",
"9  c #534B6D",
"0  c #534C6E",
"q  c #544C6E",
"w  c #5F5D63",
"e  c #5D5B64",
"r  c #4F4674",
"t  c #5A5373",
"y  c #595077",
"u  c #5B5574",
"i  c #5C5575",
"p  c #5D547C",
"a  c #646073",
"s  c #6E6C73",
"d  c #706E79",
"f  c #5D5381",
"g  c #5E5387",
"h  c #5D4F91",
"j  c #605587",
"k  c #615786",
"l  c #645B86",
"z  c #655D85",
"x  c #6D6686",
"c  c #7F7D85",
"v  c #7B768E",
"b  c #776F95",
"n  c #787190",
"m  c #7E7991",
"M  c #7366A7",
"N  c #7C72A0",
"B  c #8279A6",
"V  c #8379AD",
"C  c #8176B8",
"Z  c #8C8B92",
"A  c #928E9F",
"S  c #928AAD",
"D  c #9590A2",
"F  c #988EBC",
"G  c #9E99B2",
"H  c #A09EA5",
"J  c #A49FBA",
"K  c #A9A9AA",
"L  c #C7CAB3",
"P  c #B8B6C0",
"I  c #BFBBCA",
"U  c #B9B2D2",
"Y  c #C2C3C0",
"T  c #CDCEC6",
"R  c #C4C1CE",
"E  c #CBC7CF",
"W  c #D1D2C8",
"Q  c #D0D1CE",
"!  c #C3C0D0",
"~  c #CFCED1",
"^  c #D1CFDF",
"/  c #D2D3D2",
"(  c #D3D4D0",
")  c #D2D2D5",
"_  c #D7D6DC",
"`  c #DBDADE",
"'  c #E1E2DE",
"]  c #E3E3DE",
"[  c #D7D3E1",
"{  c #DCD7EE",
"}  c #DFDAED",
"|  c #E2DCF2",
" . c #E7E7EB",
".. c #E7E6EC",
"X. c #E9EAE8",
"o. c #EBEBED",
"O. c #EDEBEF",
"+. c #EDEDEF",
"@. c #E5E0F4",
"#. c #E6E3F4",
"$. c #EFEEF3",
"%. c #ECE8F6",
"&. c #EFEDF4",
"*. c #EFEBF8",
"=. c #F0EEF7",
"-. c #F1EFF9",
";. c #F5F4F6",
":. c #F5F5F7",
">. c #F6F5F7",
",. c #FAFAF7",
"<. c #FCFBFA",
"1. c #FCFBFB",
"2. c #FBF9FE",
"3. c #FEFFFF",
"4. c white",
/* pixels */
"              X -               ",
"    & + # = 3 d m x z j h M     ",
"  6 A P _ 1.4.4.4.4.1...^ F     ",
"  7 4.4.4.4.| | { *.4.4.4.      ",
"  q +.4.,.c 6 y > < U 4.4.      ",
"  9 o.4.4.X.' ' W 5 2 %.4.      ",
"  0 O.4.( v b S 4.L & | 4.      ",
"  t ;.4./ K H I #.n j 2.4.      ",
"  u ;.4.4.~ B f , N &.4.4.      ",
"  i :.4.4.e r Y T 4.4.4.4.      ",
"    4.4.4.s l 4.4.&.[ &.4.      ",
"  ; E 4.4.w p -.R ! G ` 4.C     ",
"    *   4.Q ) 4.+.4.4. .V       ",
"      @ a   4.4.4.;.J g         ",
"        O o 4 Z D 8 :           ",
"              . $               "
};
