/* XPM */
static char *result[] = {
/* columns rows colors chars-per-pixel */
"16 16 41 1 ",
"  c #111111",
". c #181711",
"X c #1B1B10",
"o c #1C1C10",
"O c #1D1C10",
"+ c #28270F",
"@ c #2D2B0F",
"# c #3C390E",
"$ c #222110",
"% c #4E4A0D",
"& c #5D580C",
"* c #79720A",
"= c #7F7709",
"- c #7F7809",
"; c #857D09",
": c #877F09",
"> c #8E8608",
", c #998F07",
"< c #999007",
"1 c #A09607",
"2 c #A69C06",
"3 c #AEA406",
"4 c #B3A805",
"5 c #B8AD05",
"6 c #C2B604",
"7 c #C5B904",
"8 c #CCBF04",
"9 c #CCC004",
"0 c #D2C503",
"q c #D4C703",
"w c #D5C803",
"e c #DACD03",
"r c #E8DA02",
"t c #ECDE01",
"y c #F0E101",
"u c #F5E601",
"i c #F6E701",
"p c #F8E900",
"a c #FDED00",
"s c #FFEF00",
"d c None",
/* pixels */
"dddddssssssddddd",
"dddssssssssssddd",
"ddsssssp4sssssdd",
"dsssssp&rssssssd",
"dsssss==styssssd",
"sssssuX<sw6sssss",
"sssss6 0s35sssss",
"sssss1.sp*esssss",
"sssss>Os8#ssssss",
"sssss:o9-7ssssss",
"sssss;   ,ssssss",
"dssss;Oi%+assssd",
"dssss>@s2$qssssd",
"ddssssssssssssdd",
"dddssssssssssddd",
"dddddssssssddddd"
};
