/* XPM */
static char *result[] = {
/* columns rows colors chars-per-pixel */
"32 32 79 1 ",
"  c #111111",
". c #121211",
"X c #171710",
"o c #171611",
"O c #181810",
"+ c #1A1A10",
"@ c #1C1B10",
"# c #29280F",
"$ c #2A290F",
"% c #2E2C0F",
"& c #33310E",
"* c #34320E",
"= c #3A370E",
"- c #222010",
"; c #232210",
": c #242210",
"> c #262410",
", c #282710",
"< c #292710",
"1 c #2A2810",
"2 c #46420D",
"3 c #47440D",
"4 c #48440D",
"5 c #48450D",
"6 c #4B470D",
"7 c #4C490D",
"8 c #534E0C",
"9 c #5B560C",
"0 c #635D0B",
"q c #655F0B",
"w c #605B0C",
"e c #6C660A",
"r c #6E680A",
"t c #706A0A",
"y c #756E0A",
"u c #78710A",
"i c #7D7609",
"p c #827A09",
"a c #867E09",
"s c #898108",
"d c #938A08",
"f c #968E08",
"g c #999007",
"h c #9B9207",
"j c #9C9207",
"k c #A19706",
"l c #A49A06",
"z c #A59B06",
"x c #AFA406",
"c c #B1A606",
"v c #B3A806",
"b c #B6AA05",
"n c #BAAF05",
"m c #BBB005",
"M c #BDB105",
"N c #BEB304",
"B c #C7BB04",
"V c #C8BC04",
"C c #D1C403",
"Z c #D0C304",
"A c #D7CA03",
"S c #D9CC02",
"D c #DCCF02",
"F c #E0D202",
"G c #E2D402",
"H c #E4D602",
"J c #EFE001",
"K c #F1E201",
"L c #F5E601",
"P c #F6E700",
"I c #F8E800",
"U c #F8E900",
"Y c #FAEA00",
"T c #FBEB00",
"R c #FCEC00",
"E c #FDED00",
"W c #FEEE00",
"Q c #FFEF00",
"! c None",
/* pixels */
"!!!!!!!!!!!!QQQQQQQQ!!!!!!!!!!!!",
"!!!!!!!!!QQQQQQQQQQQQQQ!!!!!!!!!",
"!!!!!!!QQQQQQQQQQQQQQQQQQ!!!!!!!",
"!!!!!!QQQQQQQQQQQQQQQQQQQQ!!!!!!",
"!!!!!QQQQQQQQQQQLxQQQQQQQQQ!!!!!",
"!!!!QQQQQQQQQQQH6DQQQQQQQQQQ!!!!",
"!!!QQQQQQQQQQQS$lQQQQQQQQQQQQ!!!",
"!!QQQQQQQQQQQH#4WQQQQQQQQQQQQQ!!",
"!!QQQQQQQQQQE3 NQQQURQQQQQQQQQ!!",
"!QQQQQQQQQQQz %WQQQmBQQQQQQQQQQ!",
"!QQQQQQQQQQQ= 8QQQQndQQQQQQQQQQ!",
"!QQQQQQQQQQA  -KQQQhyQQQQQQQQQQ!",
"QQQQQQQQQQQh  wIQQQqeQQQQQQQQQQQ",
"QQQQQQQQQQQr  JQQQT9uQQQQQQQQQQQ",
"QQQQQQQQQQQ7 +QQQQI;gQQQQQQQQQQQ",
"QQQQQQQQQQQ* :QQQHvoCQQQQQQQQQQQ",
"QQQQQQQQQQQ; ,QQQb &WQQQQQQQQQQQ",
"QQQQQQQQQQQX 1QQQi jQQQQQQQQQQQQ",
"QQQQQQQQQQW  1QQkO=YQQQQQQQQQQQQ",
"QQQQQQQQQQY  >cpaMGQQQQQQQQQQQQQ",
"!QQQQQQQQQY      .sQQQQQQQQQQQQ!",
"!QQQQQQQQQY       .VQQQQQQQQQQQ!",
"!QQQQQQQQQY  <TF2  0QQQQQQQQQQQ!",
"!!QQQQQQQQY  1QQZ  @PQQQQQQQQQ!!",
"!!QQQQQQQQY  1QQQ1  MQQQQQQQQQ!!",
"!!!QQQQQQQY**5QQQt**fQQQQQQQQ!!!",
"!!!!QQQQQQQQQQQQQQQQQQQQQQQQ!!!!",
"!!!!!QQQQQQQQQQQQQQQQQQQQQQ!!!!!",
"!!!!!!QQQQQQQQQQQQQQQQQQQQ!!!!!!",
"!!!!!!!QQQQQQQQQQQQQQQQQQ!!!!!!!",
"!!!!!!!!!QQQQQQQQQQQQQQ!!!!!!!!!",
"!!!!!!!!!!!!QQQQQQQQ!!!!!!!!!!!!"
};
