/* XPM */
static char *_e3934c8ab7849c9cb72df1108445b7duugdVrS0T3WgzCZB[] = {
/* columns rows colors chars-per-pixel */
"32 32 170 2 ",
"   c None",
".  c black",
"X  c #01000C",
"o  c #0C071B",
"O  c #110E1C",
"+  c #140E2A",
"@  c #191621",
"#  c #1C1923",
"$  c #16102B",
"%  c #1D192E",
"&  c #19142A",
"*  c #1B1431",
"=  c #211E36",
"-  c #282924",
";  c #252525",
":  c #37382B",
">  c #242031",
",  c #2A2537",
"<  c #343432",
"1  c #3D3E31",
"2  c #40403B",
"3  c #281E45",
"4  c #261E45",
"5  c #2B2243",
"6  c #2F2B42",
"7  c #292149",
"8  c #322D44",
"9  c #322C4C",
"0  c #363046",
"q  c #37304E",
"w  c #38334B",
"e  c #3E3A4C",
"r  c #342C53",
"t  c #372D5D",
"y  c #382D5A",
"u  c #3D335C",
"i  c #3F3A5C",
"p  c #372B64",
"a  c #3D3361",
"s  c #3A306F",
"d  c #403C4D",
"f  c #403B53",
"g  c #423B5D",
"h  c #463E60",
"j  c #4A3F64",
"k  c #453A75",
"l  c #494457",
"z  c #47405F",
"x  c #4B465A",
"c  c #565651",
"v  c #595950",
"b  c #5F5F5D",
"n  c #66675E",
"m  c #6B6C5F",
"M  c #474162",
"N  c #4B4465",
"B  c #4F4961",
"V  c #4D456A",
"C  c #4F496B",
"Z  c #51436D",
"A  c #51496A",
"S  c #5D5968",
"D  c #4E4474",
"F  c #504773",
"G  c #544D71",
"H  c #52477D",
"J  c #574F7C",
"K  c #584E7F",
"L  c #5B527B",
"P  c #575373",
"I  c #83837E",
"U  c #4C3D87",
"Y  c #4F408B",
"T  c #534A85",
"R  c #594E89",
"E  c #51428C",
"W  c #5B5182",
"Q  c #5D518D",
"!  c #5C4D94",
"~  c #5D4E98",
"^  c #564693",
"/  c #5F5195",
"(  c #615787",
")  c #625883",
"_  c #60548B",
"`  c #65598D",
"'  c #695D8F",
"]  c #605296",
"[  c #675C95",
"{  c #6A5E93",
"}  c #63559A",
"|  c #685B9C",
" . c #706A87",
".. c #6F6594",
"X. c #6E619B",
"o. c #776D9A",
"O. c #726599",
"+. c #6B5DA0",
"@. c #7165A4",
"#. c #756AA5",
"$. c #7669A9",
"%. c #7C6FAE",
"&. c #7966AC",
"*. c #7D71AD",
"=. c #7E73A4",
"-. c #7E73B1",
";. c #827D95",
":. c #8174AE",
">. c #847AAB",
",. c #8171A3",
"<. c #8174B3",
"1. c #847AB3",
"2. c #8A7EB4",
"3. c #8679B8",
"4. c #8879BB",
"5. c #8B8C84",
"6. c #8B8B8B",
"7. c #98998D",
"8. c #89849B",
"9. c #9E9F95",
"0. c #95939C",
"q. c #A0A097",
"w. c #A4A59A",
"e. c #9692A6",
"r. c #8D83B5",
"t. c #9C96B2",
"y. c #9E96B9",
"u. c #A19BB3",
"i. c #A29ABC",
"p. c #A9AAA7",
"a. c #B2B2AC",
"s. c #A8A5B6",
"d. c #A7A0BF",
"f. c #A9A4BD",
"g. c #B5B6B3",
"h. c #BDBEBB",
"j. c #C1C2B6",
"k. c #C2C3B9",
"l. c #C8CABF",
"z. c #9A91C0",
"x. c #A096C3",
"c. c #A49BC6",
"v. c #AAA3C3",
"b. c #B4ADC9",
"n. c #B0ABC2",
"m. c #B7B2C7",
"M. c #B8B5C3",
"N. c #BAB5CD",
"B. c #C1BCD2",
"V. c #C5C2CE",
"C. c #CACAC9",
"Z. c #D1D0CF",
"A. c #C5C0D5",
"S. c #CAC5D9",
"D. c #CEC9DC",
"F. c #D2CEDF",
"G. c #D5D4DB",
"H. c #DCDCDC",
"J. c #D4D3D4",
"K. c #DDDAE6",
"L. c #E1DEE9",
"P. c #E4E1EF",
"I. c #E8E7EC",
"U. c #EAEAED",
"Y. c #F1F2E8",
"T. c #E8E6F1",
"R. c #FDFDF6",
"E. c #F4F3F9",
"W. c #FFFFFE",
"Q. c #F2F1F4",
/* pixels */
"                                                                ",
"                          > @ 9 N N C                           ",
"              f w 0 , % o X . $ 4 7 r a D J ( ' O.              ",
"      G g q 5 * $ $ =                     J H T T Q X.1.        ",
"    A C g               W.W.W.W.W.W.W.W.              -.        ",
"    G r     W.W.W.W.W.W.W.W.W.W.W.W.W.W.W.W.W.W.W.W.  @.4.      ",
"    C r   W.W.W.W.W.W.W.W.W.W.W.W.W.W.W.W.W.R.R.R.W.  $.<.      ",
"    C g   W.W.W.W.W.W.W.S.F.D.D.S.S.B.K.W.W.W.W.W.W.  $.<.      ",
"    A i   W.W.W.W.W.k.;.^ / / / ~ / } ] y.W.W.W.R.W.  $.*.      ",
"    Z i   W.W.W.W.W.c # B x x x x e x O.Y d.W.W.W.W.  $.:.      ",
"    Z g   W.W.W.W.W.J.h.j.j.k.k.l.w.1 1 o./ L.W.R.W.  $.<.      ",
"    C i   W.W.W.W.W.W.W.W.W.W.W.W.W.Z.: S ~ b.W.W.W.  $.<.      ",
"    C g   W.W.W.W.W.P.z.c.c.x.#.i.W.W.n d ] v.W.W.W.  $.:.      ",
"    C g   W.W.W.W.5.e p a t a _ v.W.W.m d ~ b.W.R.W.  &.-.      ",
"    V N   W.W.W.W.6.b I 5.5.9.R.W.W.R.v F } L.W.W.W.  { 3.      ",
"    V V   W.W.W.W.W.W.W.W.E.E.K.F.A.u.) U v.W.W.W.W.  #.<.      ",
"    V V   W.W.W.W.W.R.G.>.@.$.| | ] E ! i.W.W.W.R.W.  *.-.      ",
"    V N   W.W.W.W.W.a.< ` { M M h M  .V.W.W.R.W.W.W.  %.-.      ",
"    V C   W.W.W.W.W.p.; ' =.9.q.q.a.Y.W.W.W.W.W.W.W.  *.-.      ",
"    V V   W.W.W.W.W.g.< W r.W.W.W.W.W.W.W.R.W.R.R.W.  1.%.      ",
"    V C   W.W.W.W.W.g.< W 2.W.W.W.W.W.W.W.W.W.W.W.W.  $.-.      ",
"    V C   W.W.W.W.W.h.< W r.W.W.L.W.K.N.A.S.N.Q.W.W.  @.1.      ",
"    V u   W.W.W.W.W.h.< T >.W.R.f.W.m.t.n.t.t.E.W.W.  | 2.      ",
"      g     W.W.W.W.h.- D :.W.W.e.s.V.V.G.M.8.U.W.    ,.        ",
"      P 5     W.W.W.C.< 0.T.W.W.U.G.E.W.W.E.U.W.    {           ",
"        A 9       W.W.H.R.W.W.W.W.W.W.W.W.W.W.  R _             ",
"          V q *       W.W.W.W.W.W.W.W.W.W.    k `               ",
"              f * *       W.W.W.W.W.W.    s V {                 ",
"                f 0 $ o               y g L                     ",
"                    6 , & X X     3 r A T                       ",
"                          , # O 9 N V                           ",
"                                                                "
};
