/* XPM */
static char *result[] = {
/* columns rows colors chars-per-pixel */
"64 64 149 2 ",
"   c #111111",
".  c #121211",
"X  c #131311",
"o  c #141411",
"O  c #151511",
"+  c #171610",
"@  c #161611",
"#  c #171611",
"$  c #181810",
"%  c #191810",
"&  c #1B1A10",
"*  c #1C1B10",
"=  c #1C1C10",
"-  c #1D1C10",
";  c #1E1C10",
":  c #1E1D10",
">  c #1E1E10",
",  c #28260F",
"<  c #28270F",
"1  c #29280F",
"2  c #2E2C0F",
"3  c #312F0E",
"4  c #33300E",
"5  c #34320E",
"6  c #35320E",
"7  c #35330E",
"8  c #36340E",
"9  c #37340E",
"0  c #3A370E",
"q  c #3C380E",
"w  c #3C390E",
"e  c #3E3A0E",
"r  c #3E3B0E",
"t  c #3F3C0E",
"y  c #212010",
"u  c #222010",
"i  c #222110",
"p  c #262410",
"a  c #282610",
"s  c #403C0E",
"d  c #403D0E",
"f  c #413E0E",
"g  c #423E0E",
"h  c #45420D",
"j  c #45410E",
"k  c #48440D",
"l  c #48450D",
"z  c #49450D",
"x  c #4A460D",
"c  c #4D490D",
"v  c #514C0C",
"b  c #524E0C",
"n  c #534E0C",
"m  c #544F0C",
"M  c #56520C",
"N  c #5B560C",
"B  c #5C570C",
"V  c #5E580C",
"C  c #625C0B",
"Z  c #645E0B",
"A  c #605A0C",
"S  c #6A650A",
"D  c #6C660A",
"F  c #6D660A",
"G  c #70690A",
"H  c #726C0A",
"J  c #746D0A",
"K  c #746E0A",
"L  c #76700A",
"P  c #78720A",
"I  c #7A720A",
"U  c #7A730A",
"Y  c #7F7809",
"T  c #817A09",
"R  c #827A09",
"E  c #877F08",
"W  c #888008",
"Q  c #898108",
"!  c #8D8408",
"~  c #8D8508",
"^  c #8E8608",
"/  c #908808",
"(  c #918808",
")  c #928908",
"_  c #938A08",
"`  c #948B08",
"'  c #958C08",
"]  c #968E08",
"[  c #988F08",
"{  c #999007",
"}  c #9E9407",
"|  c #9E9507",
" . c #A49A06",
".. c #AEA406",
"X. c #B0A506",
"o. c #B4A905",
"O. c #B6AA06",
"+. c #B8AC05",
"@. c #BAAF05",
"#. c #BEB205",
"$. c #BEB305",
"%. c #C2B604",
"&. c #C4B804",
"*. c #C6BA04",
"=. c #C7BB04",
"-. c #C8BC04",
";. c #CCC004",
":. c #CDC004",
">. c #D0C303",
",. c #D2C503",
"<. c #D4C603",
"1. c #D0C304",
"2. c #D8CA03",
"3. c #DCCE02",
"4. c #DCCF02",
"5. c #DED102",
"6. c #DFD102",
"7. c #E2D402",
"8. c #E3D502",
"9. c #E4D502",
"0. c #E4D602",
"q. c #E5D602",
"w. c #E5D702",
"e. c #E7D802",
"r. c #EADB02",
"t. c #EADC02",
"y. c #EBDC02",
"u. c #EEDF01",
"i. c #EFE001",
"p. c #F1E201",
"a. c #F2E201",
"s. c #F2E301",
"d. c #F4E401",
"f. c #F4E501",
"g. c #F5E601",
"h. c #F6E700",
"j. c #F7E700",
"k. c #F6E701",
"l. c #F7E801",
"z. c #F8E800",
"x. c #F8E900",
"c. c #FAEA00",
"v. c #FAEB00",
"b. c #FCEC00",
"n. c #FDED00",
"m. c #FDEE00",
"M. c #FEEE00",
"N. c #FFEF00",
"B. c None",
/* pixels */
"B.B.B.B.B.B.B.B.B.B.B.B.B.B.B.B.B.B.B.B.B.B.B.B.B.B.N.N.N.N.N.N.N.N.N.N.N.N.B.B.B.B.B.B.B.B.B.B.B.B.B.B.B.B.B.B.B.B.B.B.B.B.B.B.",
"B.B.B.B.B.B.B.B.B.B.B.B.B.B.B.B.B.B.B.B.B.B.N.N.N.N.N.N.N.N.N.N.N.N.N.N.N.N.N.N.N.N.B.B.B.B.B.B.B.B.B.B.B.B.B.B.B.B.B.B.B.B.B.B.",
"B.B.B.B.B.B.B.B.B.B.B.B.B.B.B.B.B.B.B.B.N.N.N.N.N.N.N.N.N.N.N.N.N.N.N.N.N.N.N.N.N.N.N.N.B.B.B.B.B.B.B.B.B.B.B.B.B.B.B.B.B.B.B.B.",
"B.B.B.B.B.B.B.B.B.B.B.B.B.B.B.B.B.N.N.N.N.N.N.N.N.N.N.N.N.N.N.N.N.N.N.N.N.N.N.N.N.N.N.N.N.N.N.B.B.B.B.B.B.B.B.B.B.B.B.B.B.B.B.B.",
"B.B.B.B.B.B.B.B.B.B.B.B.B.B.B.B.N.N.N.N.N.N.N.N.N.N.N.N.N.N.N.N.N.N.N.N.N.N.N.N.N.N.N.N.N.N.N.N.B.B.B.B.B.B.B.B.B.B.B.B.B.B.B.B.",
"B.B.B.B.B.B.B.B.B.B.B.B.B.B.N.N.N.N.N.N.N.N.N.N.N.N.N.N.N.N.N.N.N.N.N.N.N.N.N.N.N.N.N.N.N.N.N.N.N.N.B.B.B.B.B.B.B.B.B.B.B.B.B.B.",
"B.B.B.B.B.B.B.B.B.B.B.B.B.N.N.N.N.N.N.N.N.N.N.N.N.N.N.N.N.N.N.N.N.N.N.N.N.N.N.N.N.N.N.N.N.N.N.N.N.N.N.B.B.B.B.B.B.B.B.B.B.B.B.B.",
"B.B.B.B.B.B.B.B.B.B.B.N.N.N.N.N.N.N.N.N.N.N.N.N.N.N.N.N.N.N.N.N.N.N.N.N.N.N.N.N.N.N.N.N.N.N.N.N.N.N.N.N.N.B.B.B.B.B.B.B.B.B.B.B.",
"B.B.B.B.B.B.B.B.B.B.N.N.N.N.N.N.N.N.N.N.N.N.N.N.N.N.N.N.N.N.N.N.N.N.s.9.N.N.N.N.N.N.N.N.N.N.N.N.N.N.N.N.N.N.B.B.B.B.B.B.B.B.B.B.",
"B.B.B.B.B.B.B.B.B.N.N.N.N.N.N.N.N.N.N.N.N.N.N.N.N.N.N.N.N.N.N.N.N.2.7 X.N.N.N.N.N.N.N.N.N.N.N.N.N.N.N.N.N.N.N.B.B.B.B.B.B.B.B.B.",
"B.B.B.B.B.B.B.B.N.N.N.N.N.N.N.N.N.N.N.N.N.N.N.N.N.N.N.N.N.N.N.N.O.- I N.N.N.N.N.N.N.N.N.N.N.N.N.N.N.N.N.N.N.N.N.B.B.B.B.B.B.B.B.",
"B.B.B.B.B.B.B.N.N.N.N.N.N.N.N.N.N.N.N.N.N.N.N.N.N.N.N.N.N.N.N.) X h v.N.N.N.N.N.N.N.N.N.N.N.N.N.N.N.N.N.N.N.N.N.N.B.B.B.B.B.B.B.",
"B.B.B.B.B.B.B.N.N.N.N.N.N.N.N.N.N.N.N.N.N.N.N.N.N.N.N.N.N.m.L   * 6.N.N.N.N.N.N.N.N.N.N.N.N.N.N.N.N.N.N.N.N.N.N.N.B.B.B.B.B.B.B.",
"B.B.B.B.B.B.N.N.N.N.N.N.N.N.N.N.N.N.N.N.N.N.N.N.N.N.N.N.n.S     [ N.N.N.N.N.N.N.N.N.N.N.N.N.N.N.N.N.N.N.N.N.N.N.N.N.B.B.B.B.B.B.",
"B.B.B.B.B.N.N.N.N.N.N.N.N.N.N.N.N.N.N.N.N.N.N.N.N.N.N.N.H     e b.N.N.N.N.N.N.N.N.N.N.N.N.N.N.N.N.N.N.N.N.N.N.N.N.N.N.B.B.B.B.B.",
"B.B.B.B.B.N.N.N.N.N.N.N.N.N.N.N.N.N.N.N.N.N.N.N.N.N.N._       $.N.N.N.N.N.N.N.N.N.N.N.N.N.N.N.N.N.N.N.N.N.N.N.N.N.N.N.B.B.B.B.B.",
"B.B.B.B.N.N.N.N.N.N.N.N.N.N.N.N.N.N.N.N.N.N.N.N.N.N.*.o     l N.N.N.N.N.N.N.N.N.N.N.N.N.N.N.N.N.N.N.N.N.N.N.N.N.N.N.N.N.B.B.B.B.",
"B.B.B.N.N.N.N.N.N.N.N.N.N.N.N.N.N.N.N.N.N.N.N.N.N.h.3       o.N.N.N.N.N.N.N.N.0.a.N.N.N.N.N.N.N.N.N.N.N.N.N.N.N.N.N.N.N.N.B.B.B.",
"B.B.B.N.N.N.N.N.N.N.N.N.N.N.N.N.N.N.N.N.N.N.N.N.N.Q       , b.N.N.N.N.N.N.N.N.@...N.N.N.N.N.N.N.N.N.N.N.N.N.N.N.N.N.N.N.N.B.B.B.",
"B.B.B.N.N.N.N.N.N.N.N.N.N.N.N.N.N.N.N.N.N.N.N.N.i.:       D N.N.N.N.N.N.N.N.n.9 G N.N.N.N.N.N.N.N.N.N.N.N.N.N.N.N.N.N.N.N.B.B.B.",
"B.B.N.N.N.N.N.N.N.N.N.N.N.N.N.N.N.N.N.N.N.N.N.N.(         ' N.N.N.N.N.N.N.N.N.( w N.N.N.N.N.N.N.N.N.N.N.N.N.N.N.N.N.N.N.N.N.B.B.",
"B.B.N.N.N.N.N.N.N.N.N.N.N.N.N.N.N.N.N.N.N.N.N.N.6         ` N.N.N.N.N.N.N.N.h.Z @ b.N.N.N.N.N.N.N.N.N.N.N.N.N.N.N.N.N.N.N.N.B.B.",
"B.N.N.N.N.N.N.N.N.N.N.N.N.N.N.N.N.N.N.N.N.N.N.,.          n N.N.N.N.N.N.N.N.7.#   8.N.N.N.N.N.N.N.N.N.N.N.N.N.N.N.N.N.N.N.N.N.B.",
"B.N.N.N.N.N.N.N.N.N.N.N.N.N.N.N.N.N.N.N.N.N.N.~             *.N.N.N.N.N.N.N.N.J   >.N.N.N.N.N.N.N.N.N.N.N.N.N.N.N.N.N.N.N.N.N.B.",
"B.N.N.N.N.N.N.N.N.N.N.N.N.N.N.N.N.N.N.N.N.N.N.v           8 7.N.N.N.N.N.N.N.#.y   *.N.N.N.N.N.N.N.N.N.N.N.N.N.N.N.N.N.N.N.N.N.B.",
"B.N.N.N.N.N.N.N.N.N.N.N.N.N.N.N.N.N.N.N.N.N.M.>         j g.N.N.N.N.N.N.N.N. .    -.N.N.N.N.N.N.N.N.N.N.N.N.N.N.N.N.N.N.N.N.N.B.",
"N.N.N.N.N.N.N.N.N.N.N.N.N.N.N.N.N.N.N.N.N.N.5.          =.N.N.N.N.N.N.N.N.N.x.&   <.N.N.N.N.N.N.N.N.N.N.N.N.N.N.N.N.N.N.N.N.N.N.",
"N.N.N.N.N.N.N.N.N.N.N.N.N.N.N.N.N.N.N.N.N.N.+.          x.N.N.N.N.N.N.N.N.u.z     t.N.N.N.N.N.N.N.N.N.N.N.N.N.N.N.N.N.N.N.N.N.N.",
"N.N.N.N.N.N.N.N.N.N.N.N.N.N.N.N.N.N.N.N.N.N.]         = N.N.N.N.N.N.N.N.N.8.$   : M.N.N.N.N.N.N.N.N.N.N.N.N.N.N.N.N.N.N.N.N.N.N.",
"N.N.N.N.N.N.N.N.N.N.N.N.N.N.N.N.N.N.N.N.N.N.U         1 N.N.N.N.N.N.N.N.N.N.b   x N.N.N.N.N.N.N.N.N.N.N.N.N.N.N.N.N.N.N.N.N.N.N.",
"N.N.N.N.N.N.N.N.N.N.N.N.N.N.N.N.N.N.N.N.N.N.C         4 N.N.N.N.N.N.N.N.N.p.a   T N.N.N.N.N.N.N.N.N.N.N.N.N.N.N.N.N.N.N.N.N.N.N.",
"N.N.N.N.N.N.N.N.N.N.N.N.N.N.N.N.N.N.N.N.N.N.c         0 N.N.N.N.N.N.N.' | t     &.N.N.N.N.N.N.N.N.N.N.N.N.N.N.N.N.N.N.N.N.N.N.N.",
"N.N.N.N.N.N.N.N.N.N.N.N.N.N.N.N.N.N.N.N.N.N.w         r N.N.N.N.N.N.N.k       < b.N.N.N.N.N.N.N.N.N.N.N.N.N.N.N.N.N.N.N.N.N.N.N.",
"N.N.N.N.N.N.N.N.N.N.N.N.N.N.N.N.N.N.N.N.N.N.2         f N.N.N.N.N.N.N./       R N.N.N.N.N.N.N.N.N.N.N.N.N.N.N.N.N.N.N.N.N.N.N.N.",
"N.N.N.N.N.N.N.N.N.N.N.N.N.N.N.N.N.N.N.N.N.N.i         g N.N.N.N.N.N.N.Z     # w.N.N.N.N.N.N.N.N.N.N.N.N.N.N.N.N.N.N.N.N.N.N.N.N.",
"N.N.N.N.N.N.N.N.N.N.N.N.N.N.N.N.N.N.N.N.N.N.%         g N.N.N.N.N.M.Y       K N.N.N.N.N.N.N.N.N.N.N.N.N.N.N.N.N.N.N.N.N.N.N.N.N.",
"N.N.N.N.N.N.N.N.N.N.N.N.N.N.N.N.N.N.N.N.N.M..         g N.N.N.N.c.F       y y.N.N.N.N.N.N.N.N.N.N.N.N.N.N.N.N.N.N.N.N.N.N.N.N.N.",
"N.N.N.N.N.N.N.N.N.N.N.N.N.N.N.N.N.N.N.N.N.c.          g N.N.N.N.%.N 2      .N.N.N.N.N.N.N.N.N.N.N.N.N.N.N.N.N.N.N.N.N.N.N.N.N.N.",
"B.N.N.N.N.N.N.N.N.N.N.N.N.N.N.N.N.N.N.N.N.k.          g N.N.c.e.r.M.N.-.Q N.N.N.N.N.N.N.N.N.N.N.N.N.N.N.N.N.N.N.N.N.N.N.N.N.N.B.",
"B.N.N.N.N.N.N.N.N.N.N.N.N.N.N.N.N.N.N.N.N.f.          5 E s O     ; A :.N.N.N.N.N.N.N.N.N.N.N.N.N.N.N.N.N.N.N.N.N.N.N.N.N.N.N.B.",
"B.N.N.N.N.N.N.N.N.N.N.N.N.N.N.N.N.N.N.N.N.d.                          X W N.N.N.N.N.N.N.N.N.N.N.N.N.N.N.N.N.N.N.N.N.N.N.N.N.N.B.",
"B.N.N.N.N.N.N.N.N.N.N.N.N.N.N.N.N.N.N.N.N.d.                              ! N.N.N.N.N.N.N.N.N.N.N.N.N.N.N.N.N.N.N.N.N.N.N.N.N.B.",
"B.B.N.N.N.N.N.N.N.N.N.N.N.N.N.N.N.N.N.N.N.d.                              o 1.N.N.N.N.N.N.N.N.N.N.N.N.N.N.N.N.N.N.N.N.N.N.N.B.B.",
"B.B.N.N.N.N.N.N.N.N.N.N.N.N.N.N.N.N.N.N.N.d.                                m N.N.N.N.N.N.N.N.N.N.N.N.N.N.N.N.N.N.N.N.N.N.N.B.B.",
"B.B.B.N.N.N.N.N.N.N.N.N.N.N.N.N.N.N.N.N.N.d.          d z.j.8.} u           . 3.N.N.N.N.N.N.N.N.N.N.N.N.N.N.N.N.N.N.N.N.N.B.B.B.",
"B.B.B.N.N.N.N.N.N.N.N.N.N.N.N.N.N.N.N.N.N.d.          g N.N.N.N.>.+           ! N.N.N.N.N.N.N.N.N.N.N.N.N.N.N.N.N.N.N.N.N.B.B.B.",
"B.B.B.N.N.N.N.N.N.N.N.N.N.N.N.N.N.N.N.N.N.d.          g N.N.N.N.N.J           q N.N.N.N.N.N.N.N.N.N.N.N.N.N.N.N.N.N.N.N.N.B.B.B.",
"B.B.B.B.N.N.N.N.N.N.N.N.N.N.N.N.N.N.N.N.N.d.          g N.N.N.N.N.:.            4.N.N.N.N.N.N.N.N.N.N.N.N.N.N.N.N.N.N.N.B.B.B.B.",
"B.B.B.B.B.N.N.N.N.N.N.N.N.N.N.N.N.N.N.N.N.d.          g N.N.N.N.N.M.p           { N.N.N.N.N.N.N.N.N.N.N.N.N.N.N.N.N.N.B.B.B.B.B.",
"B.B.B.B.B.N.N.N.N.N.N.N.N.N.N.N.N.N.N.N.N.d.          g N.N.N.N.N.N.V           B N.N.N.N.N.N.N.N.N.N.N.N.N.N.N.N.N.N.B.B.B.B.B.",
"B.B.B.B.B.B.N.N.N.N.N.N.N.N.N.N.N.N.N.N.N.d.          g N.N.N.N.N.N.^           i n.N.N.N.N.N.N.N.N.N.N.N.N.N.N.N.N.B.B.B.B.B.B.",
"B.B.B.B.B.B.B.N.N.N.N.N.N.N.N.N.N.N.N.N.N.l.M M M M M P N.N.N.N.N.N.;.M M M M M M q.N.N.N.N.N.N.N.N.N.N.N.N.N.N.N.B.B.B.B.B.B.B.",
"B.B.B.B.B.B.B.N.N.N.N.N.N.N.N.N.N.N.N.N.N.N.N.N.N.N.N.N.N.N.N.N.N.N.N.N.N.N.N.N.N.N.N.N.N.N.N.N.N.N.N.N.N.N.N.N.N.B.B.B.B.B.B.B.",
"B.B.B.B.B.B.B.B.N.N.N.N.N.N.N.N.N.N.N.N.N.N.N.N.N.N.N.N.N.N.N.N.N.N.N.N.N.N.N.N.N.N.N.N.N.N.N.N.N.N.N.N.N.N.N.N.B.B.B.B.B.B.B.B.",
"B.B.B.B.B.B.B.B.B.N.N.N.N.N.N.N.N.N.N.N.N.N.N.N.N.N.N.N.N.N.N.N.N.N.N.N.N.N.N.N.N.N.N.N.N.N.N.N.N.N.N.N.N.N.N.B.B.B.B.B.B.B.B.B.",
"B.B.B.B.B.B.B.B.B.B.N.N.N.N.N.N.N.N.N.N.N.N.N.N.N.N.N.N.N.N.N.N.N.N.N.N.N.N.N.N.N.N.N.N.N.N.N.N.N.N.N.N.N.N.B.B.B.B.B.B.B.B.B.B.",
"B.B.B.B.B.B.B.B.B.B.B.N.N.N.N.N.N.N.N.N.N.N.N.N.N.N.N.N.N.N.N.N.N.N.N.N.N.N.N.N.N.N.N.N.N.N.N.N.N.N.N.N.N.B.B.B.B.B.B.B.B.B.B.B.",
"B.B.B.B.B.B.B.B.B.B.B.B.B.N.N.N.N.N.N.N.N.N.N.N.N.N.N.N.N.N.N.N.N.N.N.N.N.N.N.N.N.N.N.N.N.N.N.N.N.N.N.B.B.B.B.B.B.B.B.B.B.B.B.B.",
"B.B.B.B.B.B.B.B.B.B.B.B.B.B.N.N.N.N.N.N.N.N.N.N.N.N.N.N.N.N.N.N.N.N.N.N.N.N.N.N.N.N.N.N.N.N.N.N.N.N.B.B.B.B.B.B.B.B.B.B.B.B.B.B.",
"B.B.B.B.B.B.B.B.B.B.B.B.B.B.B.B.N.N.N.N.N.N.N.N.N.N.N.N.N.N.N.N.N.N.N.N.N.N.N.N.N.N.N.N.N.N.N.N.B.B.B.B.B.B.B.B.B.B.B.B.B.B.B.B.",
"B.B.B.B.B.B.B.B.B.B.B.B.B.B.B.B.B.N.N.N.N.N.N.N.N.N.N.N.N.N.N.N.N.N.N.N.N.N.N.N.N.N.N.N.N.N.N.B.B.B.B.B.B.B.B.B.B.B.B.B.B.B.B.B.",
"B.B.B.B.B.B.B.B.B.B.B.B.B.B.B.B.B.B.B.B.N.N.N.N.N.N.N.N.N.N.N.N.N.N.N.N.N.N.N.N.N.N.N.N.B.B.B.B.B.B.B.B.B.B.B.B.B.B.B.B.B.B.B.B.",
"B.B.B.B.B.B.B.B.B.B.B.B.B.B.B.B.B.B.B.B.B.B.N.N.N.N.N.N.N.N.N.N.N.N.N.N.N.N.N.N.N.N.B.B.B.B.B.B.B.B.B.B.B.B.B.B.B.B.B.B.B.B.B.B.",
"B.B.B.B.B.B.B.B.B.B.B.B.B.B.B.B.B.B.B.B.B.B.B.B.B.B.N.N.N.N.N.N.N.N.N.N.N.N.B.B.B.B.B.B.B.B.B.B.B.B.B.B.B.B.B.B.B.B.B.B.B.B.B.B."
};
