/* XPM */
static char *result[] = {
/* columns rows colors chars-per-pixel */
"64 64 195 2 ",
"   c #000004",
".  c #00000A",
"X  c #12130B",
"o  c #0A0618",
"O  c #110E1D",
"+  c #1C1E17",
"@  c #181719",
"#  c #252719",
"$  c #130D26",
"%  c #1A1723",
"&  c #1B1923",
"*  c #181329",
"=  c #150D32",
"-  c #180D35",
";  c #1F1930",
":  c #231F2D",
">  c #221E33",
",  c #231B3B",
"<  c #2B2D24",
"1  c #24212E",
"2  c #2C2B2C",
"3  c #272920",
"4  c #2E3026",
"5  c #2F3029",
"6  c #262332",
"7  c #292535",
"8  c #2D293B",
"9  c #29243B",
"0  c #302C3D",
"q  c #3D3D36",
"w  c #3E3D39",
"e  c #343626",
"r  c #3F432E",
"t  c #454837",
"y  c #251B4B",
"u  c #2F2B40",
"i  c #2B2446",
"p  c #322E43",
"a  c #332D49",
"s  c #363047",
"d  c #3D3A45",
"f  c #37324A",
"g  c #3A354D",
"h  c #3E3A4A",
"j  c #2D2453",
"k  c #362E51",
"l  c #35295C",
"z  c #3F3952",
"x  c #393256",
"c  c #302660",
"v  c #3D2E74",
"b  c #413D4E",
"n  c #413B55",
"m  c #433C5D",
"M  c #463E61",
"N  c #463A77",
"B  c #4B4C44",
"V  c #4C4B4B",
"C  c gray25",
"Z  c #47415D",
"A  c #49425E",
"S  c #4D4B54",
"D  c #535353",
"F  c #5C5C5C",
"G  c #545159",
"H  c #5F605A",
"J  c #65675A",
"K  c #464162",
"L  c #4B4464",
"P  c #4D4569",
"I  c #4F4A6B",
"U  c #4D4B64",
"Y  c #534C6E",
"T  c #50476E",
"R  c #555165",
"E  c #58546A",
"W  c #4F437F",
"Q  c #554D72",
"!  c #5A4F7E",
"~  c #534A77",
"^  c #5B5476",
"/  c #5C537C",
"(  c #625C76",
")  c #635D7C",
"_  c #6D6C6C",
"`  c #646366",
"'  c #75766D",
"]  c #6B6872",
"[  c #747373",
"{  c #7B7C73",
"}  c #7A7979",
"|  c #7F8178",
" . c #808178",
".. c #4F4182",
"X. c #534686",
"o. c #564987",
"O. c #574A88",
"+. c #594C8A",
"@. c #5F5581",
"#. c #5D518D",
"$. c #615685",
"%. c #635B83",
"&. c #60548F",
"*. c #655C8A",
"=. c #685E8E",
"-. c #625591",
";. c #655A93",
":. c #695D93",
">. c #67599A",
",. c #6C6786",
"<. c #736C8E",
"1. c #7E7B83",
"2. c #6D6294",
"3. c #6E639A",
"4. c #71659A",
"5. c #756A9D",
"6. c #796F9E",
"7. c #736997",
"8. c #7F769F",
"9. c #7E7990",
"0. c #6A5AA4",
"q. c #7366A4",
"w. c #7669A6",
"e. c #796DA4",
"r. c #766AA8",
"t. c #7A6EAB",
"y. c #7C71A3",
"u. c #7D71AC",
"i. c #837D98",
"p. c #837AA7",
"a. c #8074AE",
"s. c #877DAA",
"d. c #8177A7",
"f. c #8276B1",
"g. c #8579B5",
"h. c #867AB8",
"j. c #8C8B89",
"k. c #878499",
"l. c #929291",
"z. c #9E9F98",
"x. c #98988D",
"c. c #8D86A7",
"v. c #918CA8",
"b. c #9894A6",
"n. c #938AB3",
"m. c #948AB8",
"M. c #9D95BA",
"N. c #9F9AB7",
"B. c #A49DBE",
"V. c #A4A1B4",
"C. c #A7A1B8",
"Z. c #BEBDBB",
"A. c #B7B6B5",
"S. c #C1C1BE",
"D. c #AAA4C3",
"F. c #B2ACC1",
"G. c #B7B2CC",
"H. c #B9B4CE",
"J. c #BBB8C7",
"K. c #BFBAD2",
"L. c #BCB6D0",
"P. c #C1BFCA",
"I. c #C3BED4",
"U. c #C7C7C3",
"Y. c #CCCCCC",
"T. c #C7C7CE",
"R. c #D0CFCF",
"E. c #C8C4D5",
"W. c #C6C2D9",
"Q. c #C9C4D9",
"!. c #CECBDB",
"~. c #C7C4D3",
"^. c #D1CDDD",
"/. c #D4D4D4",
"(. c #DBDADA",
"). c #D3D2D9",
"_. c #E3E5D9",
"`. c #D2CDE2",
"'. c #DCD9E6",
"]. c #DDDAE8",
"[. c #D8D5E3",
"{. c #E1DEE9",
"}. c #E3E3E3",
"|. c #E5E3EB",
" X c #EBEAED",
".X c #E9E9EA",
"XX c #F1F0EF",
"oX c #E9E6F1",
"OX c #EBE9F1",
"+X c #F1EFF4",
"@X c #F3F3F5",
"#X c #F5F4F9",
"$X c #FFFFFE",
"%X c #F8F8F7",
"&X c None",
/* pixels */
"&X&X&X&X&X&X&X&X&X&X&X&X&X&X&X&X&X&X&X&X&X&X&X&X&X&X&X&X&X&X&X&X&X&X&X&X&X&X&X&X&X&X&X&X&X&X&X&X&X&X&X&X&X&X&X&X&X&X&X&X&X&X&X&X",
"&X&X&X&X&X&X&X&X&X&X&X&X&X&X&X&X&X&X&X&X&X&X&X&X&X&X&X&X&X&X&X&X&X&X&X&X&X&X&X&X&X&X&X&X&X&X&X&X&X&X&X&X&X&X&X&X&X&X&X&X&X&X&X&X",
"&X&X&X&X&X&X&X&X&X&X&X&X&X&X&X&X&X&X&X&X&X&X&X&X&X&X&X&X&X&X&X&X&X&X&X&X&X&X&X&X&X&X&X&X&X&X&X&X&X&X&X&X&X&X&X&X&X&X&X&X&X&X&X&X",
"&X&X&X&X&X&X&X&X&X&X&X&X&X&X&X&X&X&X&X&X&X&X&X&X&X&X&X&X&X&X&X&X&X&X&X&X&X&X&X&X&X&X&X&X&X&X&X&X&X&X&X&X&X&X&X&X&X&X&X&X&X&X&X&X",
"&X&X&X&X&X&X&X&X&X&X&X&X&X&X&X&X&X&X&X&X&X&X&X&X&X&X&X&X&X&X&X&X&X&X&X&X&X&X&X&X&X&X&X&X&X&X&X&X&X&X&X&X&X&X&X&X&X&X&X&X&X&X&X&X",
"&X&X&X&X&X&X&X&X&X&X&X&X&X&X&X&X&X&X&X&X&X&X&X&X&X&X&X&X&X&X&X&X&X&X&X&X&X&X&X&X&X&X&X&X&X&X&X&X&X&X&X&X&X&X&X&X&X&X&X&X&X&X&X&X",
"&X&X&X&X&X&X&X&X&X&X&X&X&X&X&X&X&X&X&X&X&X&X&X&X&X&X&X&X&X&X&X: m &X&X&X&X&X&X&X&X&X&X&X&X&X&X&X&X&X&X&X&X&X&X&X&X&X&X&X&X&X&X&X",
"&X&X&X&X&X&X&X&X&X&X&X&X&X&X&X&X&X&X&X&X&X&X&X&X&X&X&X&X6 : & : m m M L P &X&X&X&X&X&X&X&X&X&X&X&X&X&X&X&X&X&X&X&X&X&X&X&X&X&X&X",
"&X&X&X&X&X&X&X&X&X&X&X&X&X&X&X&X&X&X&X&X&X&Xp p 0 8 7 6 1 1 & : m m Z K P P Q Q / @.$.*.&X&X&X&X&X&X&X&X&X&X&X&X&X&X&X&X&X&X&X&X",
"&X&X&X&X&X&X&X&X&X&X&X&X&X&X&X&X&Xn z g g s p p p 8 0 0 & O o   = k x x M Y T Q / @.@.$.*.=.2.4.5.q.&X&X&X&X&X&X&X&X&X&X&X&X&X&X",
"&X&X&X&X&X&X&X&X&X&X&X&XU L A m m n z g g n 0 > * o     &X&X&X&X&X&X&X&Xm y j l c T ~ ! #.2.2.3.5.6.y.u.u.h.&X&X&X&X&X&X&X&X&X&X",
"&X&X&X&X&X&X&X&X&X&XI Y L A L A g a i * o . &X&X&X&X&X&X&X&X&X$X$X&X&X&X&X&X&X&X&X&X&X&X@.N W o...-.t.y.f.f.&X&X&X&X&X&X&X&X&X&X",
"&X&X&X&X&X&X&X&X&X&XY P Y k - = &X&X&X&X&X&X&X&X&X&X$X$X$X$X$X$X$X$X$X$X$X$X$X$X&X&X&X&X&X&X&X&X&X&X&Xr.g.u.&X&X&X&X&X&X&X&X&X&X",
"&X&X&X&X&X&X&X&X&X&XY L m &X&X&X&X&X&X&X$X$X$X$X$X$X$X$X$X$X$X$X$X$X$X%X$X$X$X$X$X$X$X$X$X$X$X$X&X&X&X&Xt.g.&X&X&X&X&X&X&X&X&X&X",
"&X&X&X&X&X&X&X&X&X&XY M K &X$X$X$X$X$X$X$X$X$X$X$X$X$X$X$X$X$X$X$X$X$X$X%X%X$X$X$X$X%X$X$X%X$X$X%X$X&X&Xw.g.&X&X&X&X&X&X&X&X&X&X",
"&X&X&X&X&X&X&X&X&X&XY K K &X$X$X$X$X$X$X$X$X$X$X$X$X$X$X%X$X$X$X$X%X$X$X$X$X$X%X%X$X$X$X$X%X$X%X$X$X&X&Xw.f.&X&X&X&X&X&X&X&X&X&X",
"&X&X&X&X&X&X&X&X&X&XY M L &X$X$X$X$X$X$X$X$X$X$X$X$X$X$X$X$X$X$X$X$X$X$X$X$X$X$X$X$X$X$X%X$X$X$X%X$X&X&Xw.g.&X&X&X&X&X&X&X&X&X&X",
"&X&X&X&X&X&X&X&X&X&XY M L &X$X$X$X$X$X$X$X$X$X$X$X$X@X+X+XOXoX|.|.|.{.].'.[.#X$X$X%X$X%X$X$X%X%X$X$X&X&Xw.g.&X&X&X&X&X&X&X&X&X&X",
"&X&X&X&X&X&X&X&X&X&XY K &X&X$X$X$X$X$X$X$X$X$X$X%XE.+.4.3.3.3.2.:.:.:.;.&.&.4.B.@X$X$X$X$X%X%X$X$X$X&X&Xw.f.&X&X&X&X&X&X&X&X&X&X",
"&X&X&X&X&X&X&X&X&X&XY M &X&X$X$X$X$X$X$X$X$X@XA.z.k.0.q.q.q.q.q.q.r.w.w.t.w.-.X.;.'.$X%X$X$X$X$X%X$X&X&Xw.g.&X&X&X&X&X&X&X&X&X&X",
"&X&X&X&X&X&X&X&X&X&XY K &X&X$X$X$X$X$X$X$X$X XF X h :.$./ $.@.@.@.@.@.*.*.7.a.e.+.+.{.$X%X$X$X%X$X$X&X&Xr.f.&X&X&X&X&X&X&X&X&X&X",
"&X&X&X&X&X&X&X&X&X&XY K &X&X$X$X$X$X$X$X$X$X@X_ 2 w q q r q q q w w q < < w ] t.t.o.y.$X$X$X%X$X%X$X&X&Xr.f.&X&X&X&X&X&X&X&X&X&X",
"&X&X&X&X&X&X&X&X&X&XY M &X&X$X$X$X$X$X$X$X$X%XR.Z.Z.Z.Z.Z.Z.Z.Z.Z.S.Z.l.V 2 e _ u.4.o.!.$X$X$X$X$X$X&X&Xw.f.&X&X&X&X&X&X&X&X&X&X",
"&X&X&X&X&X&X&X&X&X&XY m &X&X$X$X$X$X$X$X$X$X$X$X$X$X$X$X$X$X$X$X$X$X$X$XY.F 2 t 9.t.o.B.$X$X%X%X$X$X&X&Xr.f.&X&X&X&X&X&X&X&X&X&X",
"&X&X&X&X&X&X&X&X&X&XY m &X&X$X$X$X$X$X$X$X$X$X$X$X$X$X$X$X$X$X$X$X$X$X$X$XU.V < ` a.#.c.$X$X%X$X$X$X&X&Xr.f.&X&X&X&X&X&X&X&X&X&X",
"&X&X&X&X&X&X&X&X&X&XY M &X&X$X$X$X$X$X$X$X$X$X$X[.`.`.!.!.E.Q.W.I.K.#X$X$X%X} 3 G u.-.p.$X$X%X$X%X$X&X&Xw.f.&X&X&X&X&X&X&X&X&X&X",
"&X&X&X&X&X&X&X&X&X&XY m &X&X$X$X$X$X$X$X$X%X$XoX-.+.-.#.#.#.#.+...N {.$X$X$Xl.3 S t.-.d.$X$X$X$X$X$X&X&Xr.f.&X&X&X&X&X&X&X&X&X&X",
"&X&X&X&X&X&X&X&X&X&XY M &X&X$X$X$X$X$X$X$XZ.[ [ w.r.w.w.w.w.5.2.&.#.{.$X$X$Xj.< S u.-.s.$X$X$X$X%X$X&X&Xw.f.&X&X&X&X&X&X&X&X&X&X",
"&X&X&X&X&X&X&X&X&X&XY m &X&X$X$X$X$X$X$X$Xl.@ + b b h h d d 8 i.|.oX%X$X$X$Xj.# R f.o.M.$X$X%X$X$X$X&X&Xr.a.&X&X&X&X&X&X&X&X&X&X",
"&X&X&X&X&X&X&X&X&X&XY M &X&X$X$X$X$X$X$X$XZ._ [ ' ' { { | { { Z.$X$X$X$X$X%XJ 3 7.t.X.W.$X$X$X$X$X$X&X&Xq.g.g.&X&X&X&X&X&X&X&X&X",
"&X&X&X&X&X&X&X&X&X&XY m &X&X$X$X$X$X$X$X$X%X#X%X%X$X$X$X$X$X$X$X$X$X$X$X$XU.V $.a.+.e.$X$X$X$X%X$X$X&X&Xw.f.g.&X&X&X&X&X&X&X&X&X",
"&X&X&X&X&X&X&X&X&X&XQ m &X&X$X$X$X$X$X$X$X$X$X$X$X$X$X#XoX].`.W.G.D.M.n.s.2.4.f.&.X.'.$X$X%X$X%X$X$X&X&Xr.f.h.&X&X&X&X&X&X&X&X&X",
"&X&X&X&X&X&X&X&X&X&XY M &X&X$X$X$X$X$X$X$X$X$X$X$X$Xm.+.:.&.+.+.o.+.+.#.#.3.t.o.+.^.$X%X$X$X$X%X$X$X&X&Xr.f.g.&X&X&X&X&X&X&X&X&X",
"&X&X&X&X&X&X&X&X&X&XY m &X&X$X$X$X$X$X$X$X$X$X}.z.j.2.>.3.w.u.u.u.u.u.u.t.>.o.8.|.$X$X$X$X%X$X%X$X$X&X&Xr.a.g.&X&X&X&X&X&X&X&X&X",
"&X&X&X&X&X&X&X&X&XQ Y M &X&X$X$X$X$X$X$X$X$X$XT.C + ) u.w.%.Y Q Q Y Y L L ,.A.%X$X$X$X$X$X$X$X$X$X$X&X&Xr.f.g.&X&X&X&X&X&X&X&X&X",
"&X&X&X&X&X&X&X&X&XQ Y M &X&X$X$X$X$X$X$X$X$X$XR.V 3 ) u.t.E r B B B B J x._.$X$X$X%X$X%X%X$X%X$X$X$X&X&Xr.f.g.&X&X&X&X&X&X&X&X&X",
"&X&X&X&X&X&X&X&X&X&XY M &X&X$X$X$X$X$X$X$X$X$XR.V 4 %.u.-.C._./.(.(.(.XX$X$X$X$X$X$X$X$X%X$X$X$X%X$X&X&Xr.f.g.&X&X&X&X&X&X&X&X&X",
"&X&X&X&X&X&X&X&X&X&XQ m &X&X$X$X$X$X$X$X$X$X$X/.D 4 ) t.o.K.$X$X$X$X$X$X$X$X$X$X%X$X%X$X$X$X%X%X$X$X&X&Xt.a.g.&X&X&X&X&X&X&X&X&X",
"&X&X&X&X&X&X&X&X&X&XY m &X&X$X$X$X$X$X$X$X$X$X(.D 4 ] t.+.L.$X$X$X$X$X$X$X$X$X%X$X$X$X$X$X$X$X$X$X$X&X&Xw.u.g.&X&X&X&X&X&X&X&X&X",
"&X&X&X&X&X&X&X&X&X&XY M &X&X$X$X$X$X$X$X$X$X$X(.D 2 %.t.+.H.$X$X$X$X$X$X$X$X$X$X$X$X$X$X$X%X$X%X%X$X&X&Xw.g.&X&X&X&X&X&X&X&X&X&X",
"&X&X&X&X&X&X&X&X&X&XY M &X&X$X$X$X$X$X$X$X$X$X(.F 4 ^ t.+.H.$X$X$X$X$X$X$X$X@X$X+X%X$XoXoX$X$X$X$X$X&X&Xw.a.&X&X&X&X&X&X&X&X&X&X",
"&X&X&X&X&X&X&X&X&X&XQ m &X&X$X$X$X$X$X$X$X$X$X}.D 4 ] t.+.H.$X$X$XM.].$X~.B.B.6.s.L.n.M.D.$X$X$X$X$X&X&Xq.f.&X&X&X&X&X&X&X&X&X&X",
"&X&X&X&X&X&X&X&X&X&XY Z &X&X$X$X$X$X$X$X$X$X$X}.F 4 ( u.+.G.$X$X$X*.E.$XN.8.$X*.~.|.@.v.A.%X$X$X$X$X&X&Xq.f.&X&X&X&X&X&X&X&X&X&X",
"&X&X&X&X&X&X&X&X&X&XY Y &X&X&X$X$X$X$X$X$X$X$X}.H 4 ^ u.#.G.$X$X$X<.!.$XB.i.$X<.!. X%.F.^.$X$X$X$X&X&X&Xu.a.&X&X&X&X&X&X&X&X&X&X",
"&X&X&X&X&X&X&X&X&X&XQ I Y &X&X&X$X$X$X$X$X$X$X}.F 4 ) 0.v D.$X$X$XY ^ A.k.,.$XE J.+XM b.b.|.$X$X&X&X&Xu.p.&X&X&X&X&X&X&X&X&X&X&X",
"&X&X&X&X&X&X&X&X&X&X&XY L U &X&X&X$X$X$X$X$X$X.XF + R m.d.I.$X$X$XT.k.c.T.).$XT..X$XJ.b.V.+X$X&X&X&X6.e.a.&X&X&X&X&X&X&X&X&X&X&X",
"&X&X&X&X&X&X&X&X&X&X&X&XY L K &X&X&X$X$X$X$X$X X_ 2 J .X$X$X$X$X$X$X$X$X$X$X$X$X$X$X$X$X$X$X&X&X&X5.w.e.&X&X&X&X&X&X&X&X&X&X&X&X",
"&X&X&X&X&X&X&X&X&X&X&X&X&XL L A &X&X&X&X$X$X$X$X/.S.Y.@X$X$X$X$X$X$X$X$X$X$X$X$X$X$X$X$X$X&X&X&X4.7.f.&X&X&X&X&X&X&X&X&X&X&X&X&X",
"&X&X&X&X&X&X&X&X&X&X&X&X&X&XL Z A , &X&X&X$X$X$X$X$X$X$X$X$X$X$X$X$X$X$X$X$X$X$X$X$X$X&X&X&Xo.2.7.4.&X&X&X&X&X&X&X&X&X&X&X&X&X&X",
"&X&X&X&X&X&X&X&X&X&X&X&X&X&X&XA n Z g &X&X&X&X$X$X$X$X$X$X$X$X$X$X$X$X$X$X$X$X$X$X$X&X&X&X! 2.2.&X&X&X&X&X&X&X&X&X&X&X&X&X&X&X&X",
"&X&X&X&X&X&X&X&X&X&X&X&X&X&X&X&Xm n n n 9 &X&X&X&X$X$X$X$X$X$X$X$X$X$X$X$X$X$X$X&X&X&XN @.=.2.&X&X&X&X&X&X&X&X&X&X&X&X&X&X&X&X&X",
"&X&X&X&X&X&X&X&X&X&X&X&X&X&X&X&X&X&Xn g g s * &X&X&X&X&X$X$X$X$X$X$X$X$X$X$X&X&X&Xc ~ $.%.:.&X&X&X&X&X&X&X&X&X&X&X&X&X&X&X&X&X&X",
"&X&X&X&X&X&X&X&X&X&X&X&X&X&X&X&X&X&X&Xn g f f u ; &X&X&X&X&X$X$X$X$X$X&X&X&X&Xy T / / $.&X&X&X&X&X&X&X&X&X&X&X&X&X&X&X&X&X&X&X&X",
"&X&X&X&X&X&X&X&X&X&X&X&X&X&X&X&X&X&X&X&X&Xg s p p 8 6 $ &X&X&X&X&X&X&X&X&Xy Y Q Q / @.&X&X&X&X&X&X&X&X&X&X&X&X&X&X&X&X&X&X&X&X&X",
"&X&X&X&X&X&X&X&X&X&X&X&X&X&X&X&X&X&X&X&X&X&X&Xp p 8 8 7 6 %   &X&X&X= k M Y Y Q ~ &X&X&X&X&X&X&X&X&X&X&X&X&X&X&X&X&X&X&X&X&X&X&X",
"&X&X&X&X&X&X&X&X&X&X&X&X&X&X&X&X&X&X&X&X&X&X&X&X&X&X8 7 6 6 1 @ O m K K K P T &X&X&X&X&X&X&X&X&X&X&X&X&X&X&X&X&X&X&X&X&X&X&X&X&X",
"&X&X&X&X&X&X&X&X&X&X&X&X&X&X&X&X&X&X&X&X&X&X&X&X&X&X&X&X6 6 : % 6 m m M L &X&X&X&X&X&X&X&X&X&X&X&X&X&X&X&X&X&X&X&X&X&X&X&X&X&X&X",
"&X&X&X&X&X&X&X&X&X&X&X&X&X&X&X&X&X&X&X&X&X&X&X&X&X&X&X&X&X&X&X& 6 m &X&X&X&X&X&X&X&X&X&X&X&X&X&X&X&X&X&X&X&X&X&X&X&X&X&X&X&X&X&X",
"&X&X&X&X&X&X&X&X&X&X&X&X&X&X&X&X&X&X&X&X&X&X&X&X&X&X&X&X&X&X&X&X&X&X&X&X&X&X&X&X&X&X&X&X&X&X&X&X&X&X&X&X&X&X&X&X&X&X&X&X&X&X&X&X",
"&X&X&X&X&X&X&X&X&X&X&X&X&X&X&X&X&X&X&X&X&X&X&X&X&X&X&X&X&X&X&X&X&X&X&X&X&X&X&X&X&X&X&X&X&X&X&X&X&X&X&X&X&X&X&X&X&X&X&X&X&X&X&X&X",
"&X&X&X&X&X&X&X&X&X&X&X&X&X&X&X&X&X&X&X&X&X&X&X&X&X&X&X&X&X&X&X&X&X&X&X&X&X&X&X&X&X&X&X&X&X&X&X&X&X&X&X&X&X&X&X&X&X&X&X&X&X&X&X&X",
"&X&X&X&X&X&X&X&X&X&X&X&X&X&X&X&X&X&X&X&X&X&X&X&X&X&X&X&X&X&X&X&X&X&X&X&X&X&X&X&X&X&X&X&X&X&X&X&X&X&X&X&X&X&X&X&X&X&X&X&X&X&X&X&X",
"&X&X&X&X&X&X&X&X&X&X&X&X&X&X&X&X&X&X&X&X&X&X&X&X&X&X&X&X&X&X&X&X&X&X&X&X&X&X&X&X&X&X&X&X&X&X&X&X&X&X&X&X&X&X&X&X&X&X&X&X&X&X&X&X",
"&X&X&X&X&X&X&X&X&X&X&X&X&X&X&X&X&X&X&X&X&X&X&X&X&X&X&X&X&X&X&X&X&X&X&X&X&X&X&X&X&X&X&X&X&X&X&X&X&X&X&X&X&X&X&X&X&X&X&X&X&X&X&X&X"
};
