<?xml version="1.0" encoding="UTF-8" standalone="no"?>
<!DOCTYPE svg PUBLIC "-//W3C//DTD SVG 1.1//EN" "http://www.w3.org/Graphics/SVG/1.1/DTD/svg11.dtd">
<svg width="100%" height="100%" viewBox="0 0 768 533" version="1.1" xmlns="http://www.w3.org/2000/svg" xmlns:xlink="http://www.w3.org/1999/xlink" xml:space="preserve" xmlns:serif="http://www.serif.com/" style="fill-rule:evenodd;clip-rule:evenodd;stroke-linejoin:round;stroke-miterlimit:2;">
    <g transform="matrix(0.1,0,0,-0.1,0,533)">
        <rect x="0" y="0" width="7680" height="5330" style="fill-rule:nonzero;"/>
        <g transform="matrix(8.3361,0,0,-8.3361,-626.449,7017.98)">
            <path d="M627.9,713.2C625.3,703.2 622.1,693.2 618.3,682.9C607.9,646.1 590.1,627.4 571.2,618.7C571,618.6 570.7,618.5 570.4,618.4C553,610.6 534.8,611.2 520.7,613.8C536.5,580.4 550.6,544 537.7,547.8C533.7,549 529.1,576.3 509.6,602.3C505.4,607.9 500.8,613.5 496.3,618.7L496.3,617.4C496.5,616.1 496.6,614.8 496.8,613.5C502,581.4 518.5,559.2 516.5,555.5C512.6,548 504.8,559.1 496.2,576.8L496.2,558.4C496.4,534.9 496.9,513.2 498.6,492.6C499.5,481.8 505.3,472.1 514.5,466.3C517.2,464.6 519.5,463.1 521,461.2C530.6,449.5 500.5,447.5 519,398.2C519.1,397.9 519.2,397.7 519.3,397.4C531.1,367.6 548.8,338.1 575.5,306.4C578.8,302.4 573.6,297.1 569.6,300.2C502.4,352.5 465.3,388.6 448,468.9C439.4,508.9 435.7,559.9 435.7,629.3L435.7,745L496.2,745L496.2,665.3L513.4,665.3C525.4,665.3 534.6,667.8 541,672.8C547.4,677.8 552.3,684.7 555.8,693.7C559.3,702.7 562.3,713.4 564.8,725.9L568.6,745.1L635.6,745.1L627.9,713.2Z" style="fill:rgb(21,21,21);fill-rule:nonzero;"/>
        </g>
        <g transform="matrix(8.3361,0,0,-8.3361,-626.449,7017.98)">
            <path d="M572.7,535.7C570.7,539 573.4,545.2 576.5,553.8C578.4,559.1 577.2,565 573.4,569.1C565.7,577.3 557.2,585 547.9,592.7C547,593.4 546.3,594.3 545.8,595.3C545,596.9 546.2,598.8 548,598.8C557.6,599 567.8,600.8 577.8,605.5C577.8,605.5 580.8,607.2 583.9,609C585.4,609.8 587.3,609.5 588.3,608.1C624.6,560 642.6,498 633.6,433.5C632.1,423 630,412.7 627.2,402.8C626.2,399.1 625.1,395.4 623.9,391.8C623.9,391.8 623.5,390.5 623.1,389.4C622.7,388.3 621,388.6 621.1,389.9L621.1,391.9C621.1,392.4 621.1,392.9 621.2,393.4C621.4,398.6 619.7,403.7 616.2,407.5C614.3,409.7 612.5,412.2 612.2,414.1C611.6,418.6 622,418.9 621.1,425.3C620.1,431.7 610.6,432 610.3,437.5C610,443 618.3,449.4 618.1,454.5C617.9,459.5 607.5,461.7 606.5,466.9C606,469.3 607.8,471.7 609.6,474.2C611.8,477.1 614.2,480.2 613.6,483.6C613.1,486.3 610.5,488.5 607.7,490.6C604.1,493.2 600,495.6 599.5,498.3C599.1,500.3 600.5,503.2 602.3,505.8C605.7,510.9 606.3,517.4 603.9,523.1C603.8,523.2 603.8,523.4 603.7,523.6L603.7,523.7C600.6,528.8 597.4,532 594.4,533.9C584,540.6 574.7,532.4 572.7,535.7Z" style="fill:rgb(21,21,21);fill-rule:nonzero;"/>
        </g>
    </g>
</svg>
