<?xml version="1.0" encoding="UTF-8"?>
<svg xmlns="http://www.w3.org/2000/svg" xmlns:xlink="http://www.w3.org/1999/xlink" viewBox="0 0 1200 800">
  <defs>
    <style>
      .cls-1 {
        fill: #fffdf8;
      }

      .cls-2 {
        stroke: url(#Degradado_sin_nombre_171-21);
      }

      .cls-2, .cls-3, .cls-4, .cls-5, .cls-6, .cls-7, .cls-8, .cls-9, .cls-10, .cls-11, .cls-12, .cls-13, .cls-14, .cls-15, .cls-16, .cls-17, .cls-18, .cls-19, .cls-20, .cls-21, .cls-22, .cls-23 {
        fill: none;
        stroke-miterlimit: 10;
      }

      .cls-3 {
        stroke: url(#Degradado_sin_nombre_171-18);
      }

      .cls-24 {
        fill: url(#Degradado_sin_nombre_173);
      }

      .cls-4 {
        stroke: url(#Degradado_sin_nombre_171-16);
      }

      .cls-25 {
        fill: #8e8775;
      }

      .cls-5 {
        stroke: url(#Degradado_sin_nombre_171-12);
      }

      .cls-26 {
        isolation: isolate;
      }

      .cls-6 {
        stroke: url(#Degradado_sin_nombre_171-11);
      }

      .cls-7 {
        stroke: url(#Degradado_sin_nombre_171-8);
      }

      .cls-8 {
        stroke: url(#Degradado_sin_nombre_171-15);
      }

      .cls-27 {
        opacity: .35;
      }

      .cls-9 {
        stroke: url(#Degradado_sin_nombre_171-2);
      }

      .cls-10 {
        stroke: url(#Degradado_sin_nombre_171-6);
      }

      .cls-28 {
        fill: #1e1e1f;
      }

      .cls-29 {
        fill: #e2a700;
        mix-blend-mode: overlay;
      }

      .cls-11 {
        stroke: url(#Degradado_sin_nombre_171-3);
      }

      .cls-12 {
        stroke: url(#Degradado_sin_nombre_171-19);
      }

      .cls-13 {
        stroke: url(#Degradado_sin_nombre_171-4);
      }

      .cls-14 {
        stroke: url(#Degradado_sin_nombre_171-9);
      }

      .cls-15 {
        stroke: url(#Degradado_sin_nombre_171-23);
      }

      .cls-16 {
        stroke: url(#Degradado_sin_nombre_171-22);
      }

      .cls-30 {
        filter: url(#luminosity-noclip);
      }

      .cls-31 {
        mask: url(#mask-1);
      }

      .cls-32 {
        mask: url(#mask);
      }

      .cls-17 {
        stroke: url(#Degradado_sin_nombre_171-20);
      }

      .cls-18 {
        stroke: url(#Degradado_sin_nombre_171-17);
      }

      .cls-19 {
        stroke: url(#Degradado_sin_nombre_171-7);
      }

      .cls-33 {
        fill: url(#Degradado_sin_nombre_171);
      }

      .cls-20 {
        stroke: url(#Degradado_sin_nombre_171-13);
      }

      .cls-21 {
        stroke: url(#Degradado_sin_nombre_171-14);
      }

      .cls-34 {
        fill: #c6c6c6;
      }

      .cls-22 {
        stroke: url(#Degradado_sin_nombre_171-5);
      }

      .cls-23 {
        stroke: url(#Degradado_sin_nombre_171-10);
      }
    </style>
    <linearGradient id="Degradado_sin_nombre_171" data-name="Degradado sin nombre 171" x1="1205.59" y1="147.79" x2="753.02" y2="431.83" gradientTransform="translate(-7.74 2.23) rotate(.76) scale(.96 1) skewX(1.55)" gradientUnits="userSpaceOnUse">
      <stop offset="0" stop-color="#fff"/>
      <stop offset=".04" stop-color="#ebebec"/>
      <stop offset=".14" stop-color="#b6b6b7"/>
      <stop offset=".25" stop-color="#878688"/>
      <stop offset=".37" stop-color="#5f5e61"/>
      <stop offset=".48" stop-color="#3f3d41"/>
      <stop offset=".6" stop-color="#252428"/>
      <stop offset=".72" stop-color="#141216"/>
      <stop offset=".85" stop-color="#09070c"/>
      <stop offset="1" stop-color="#060409"/>
    </linearGradient>
    <mask id="mask" x="560.42" y="-80.72" width="718.5" height="811.92" maskUnits="userSpaceOnUse">
      <path class="cls-33" d="m1188.9,623.35c-21.13,24.17-79.65,91.11-177.3,105.16-115.64,16.63-217.06-47.74-256.61-82.02-160.04-138.77-236.67-392.3-171.15-566.28,14.86-39.47,59.98-112.86,151.82-145.77,166.49-59.67,355.78,75.51,368.56,84.87,204.61,149.79,225,443.53,84.68,604.05Z"/>
    </mask>
    <filter id="luminosity-noclip" x="-327.72" y="-387.85" width="1546.79" height="1635.41" color-interpolation-filters="sRGB" filterUnits="userSpaceOnUse">
      <feFlood flood-color="#fff" result="bg"/>
      <feBlend in="SourceGraphic" in2="bg"/>
    </filter>
    <linearGradient id="Degradado_sin_nombre_173" data-name="Degradado sin nombre 173" x1="1214.96" y1="141.92" x2="745.66" y2="436.47" gradientTransform="translate(47.27 58.09) rotate(1.44) scale(.86 .88) skewX(2.96)" gradientUnits="userSpaceOnUse">
      <stop offset="0" stop-color="#fff"/>
      <stop offset=".02" stop-color="#ebebec"/>
      <stop offset=".08" stop-color="#b6b6b7"/>
      <stop offset=".14" stop-color="#878688"/>
      <stop offset=".2" stop-color="#5f5e61"/>
      <stop offset=".26" stop-color="#3f3d41"/>
      <stop offset=".32" stop-color="#252428"/>
      <stop offset=".39" stop-color="#141216"/>
      <stop offset=".46" stop-color="#09070c"/>
      <stop offset=".54" stop-color="#060409"/>
    </linearGradient>
    <mask id="mask-1" x="-327.72" y="-387.85" width="1546.79" height="1635.41" maskUnits="userSpaceOnUse">
      <g class="cls-30">
        <path class="cls-24" d="m1138.09,632.74c-19.4,22.02-73.14,82.99-163.91,94.82-107.49,14.01-202.67-46.41-239.87-78.42-150.6-129.58-224.82-363.89-165.77-523.35,13.4-36.18,54.58-103.24,139.72-132.51,154.36-53.06,332.14,73.55,344.15,82.31,192.22,140.23,214.53,410.94,85.68,557.15Z"/>
      </g>
    </mask>
    <linearGradient id="Degradado_sin_nombre_171-2" data-name="Degradado sin nombre 171" x1="1276.35" y1="201.31" x2="340.4" y2="806.1" gradientTransform="matrix(1, 0, 0, 1, 0, 0)" xlink:href="#Degradado_sin_nombre_171"/>
    <linearGradient id="Degradado_sin_nombre_171-3" data-name="Degradado sin nombre 171" x1="1223.87" y1="210.17" x2="311.56" y2="799.69" gradientTransform="matrix(1, 0, 0, 1, 0, 0)" xlink:href="#Degradado_sin_nombre_171"/>
    <linearGradient id="Degradado_sin_nombre_171-4" data-name="Degradado sin nombre 171" x1="1171.39" y1="219.03" x2="282.71" y2="793.28" gradientTransform="matrix(1, 0, 0, 1, 0, 0)" xlink:href="#Degradado_sin_nombre_171"/>
    <linearGradient id="Degradado_sin_nombre_171-5" data-name="Degradado sin nombre 171" x1="1118.91" y1="227.89" x2="253.86" y2="786.88" gradientTransform="matrix(1, 0, 0, 1, 0, 0)" xlink:href="#Degradado_sin_nombre_171"/>
    <linearGradient id="Degradado_sin_nombre_171-6" data-name="Degradado sin nombre 171" x1="1066.44" y1="236.76" x2="225.01" y2="780.47" gradientTransform="matrix(1, 0, 0, 1, 0, 0)" xlink:href="#Degradado_sin_nombre_171"/>
    <linearGradient id="Degradado_sin_nombre_171-7" data-name="Degradado sin nombre 171" x1="1013.97" y1="245.62" x2="196.16" y2="774.07" gradientTransform="matrix(1, 0, 0, 1, 0, 0)" xlink:href="#Degradado_sin_nombre_171"/>
    <linearGradient id="Degradado_sin_nombre_171-8" data-name="Degradado sin nombre 171" x1="961.49" y1="254.49" x2="167.3" y2="767.68" gradientTransform="matrix(1, 0, 0, 1, 0, 0)" xlink:href="#Degradado_sin_nombre_171"/>
    <linearGradient id="Degradado_sin_nombre_171-9" data-name="Degradado sin nombre 171" x1="909.02" y1="263.35" x2="138.45" y2="761.28" gradientTransform="matrix(1, 0, 0, 1, 0, 0)" xlink:href="#Degradado_sin_nombre_171"/>
    <linearGradient id="Degradado_sin_nombre_171-10" data-name="Degradado sin nombre 171" x1="856.55" y1="272.22" x2="109.6" y2="754.89" gradientTransform="matrix(1, 0, 0, 1, 0, 0)" xlink:href="#Degradado_sin_nombre_171"/>
    <linearGradient id="Degradado_sin_nombre_171-11" data-name="Degradado sin nombre 171" x1="804.08" y1="281.09" x2="80.74" y2="748.5" gradientTransform="matrix(1, 0, 0, 1, 0, 0)" xlink:href="#Degradado_sin_nombre_171"/>
    <linearGradient id="Degradado_sin_nombre_171-12" data-name="Degradado sin nombre 171" x1="751.61" y1="289.96" x2="51.88" y2="742.11" gradientTransform="matrix(1, 0, 0, 1, 0, 0)" xlink:href="#Degradado_sin_nombre_171"/>
    <linearGradient id="Degradado_sin_nombre_171-13" data-name="Degradado sin nombre 171" x1="699.13" y1="298.84" x2="23.03" y2="735.72" gradientTransform="matrix(1, 0, 0, 1, 0, 0)" xlink:href="#Degradado_sin_nombre_171"/>
    <linearGradient id="Degradado_sin_nombre_171-14" data-name="Degradado sin nombre 171" x1="646.66" y1="307.71" x2="-5.83" y2="729.34" gradientTransform="matrix(1, 0, 0, 1, 0, 0)" xlink:href="#Degradado_sin_nombre_171"/>
    <linearGradient id="Degradado_sin_nombre_171-15" data-name="Degradado sin nombre 171" x1="594.18" y1="316.59" x2="-34.7" y2="722.95" gradientTransform="matrix(1, 0, 0, 1, 0, 0)" xlink:href="#Degradado_sin_nombre_171"/>
    <linearGradient id="Degradado_sin_nombre_171-16" data-name="Degradado sin nombre 171" x1="541.7" y1="325.47" x2="-63.56" y2="716.58" gradientTransform="matrix(1, 0, 0, 1, 0, 0)" xlink:href="#Degradado_sin_nombre_171"/>
    <linearGradient id="Degradado_sin_nombre_171-17" data-name="Degradado sin nombre 171" x1="489.22" y1="334.35" x2="-92.43" y2="710.2" gradientTransform="matrix(1, 0, 0, 1, 0, 0)" xlink:href="#Degradado_sin_nombre_171"/>
    <linearGradient id="Degradado_sin_nombre_171-18" data-name="Degradado sin nombre 171" x1="436.74" y1="343.23" x2="-121.3" y2="703.83" gradientTransform="matrix(1, 0, 0, 1, 0, 0)" xlink:href="#Degradado_sin_nombre_171"/>
    <linearGradient id="Degradado_sin_nombre_171-19" data-name="Degradado sin nombre 171" x1="384.25" y1="352.12" x2="-150.19" y2="697.46" gradientTransform="matrix(1, 0, 0, 1, 0, 0)" xlink:href="#Degradado_sin_nombre_171"/>
    <linearGradient id="Degradado_sin_nombre_171-20" data-name="Degradado sin nombre 171" x1="331.77" y1="361" x2="-179.08" y2="691.1" gradientTransform="matrix(1, 0, 0, 1, 0, 0)" xlink:href="#Degradado_sin_nombre_171"/>
    <linearGradient id="Degradado_sin_nombre_171-21" data-name="Degradado sin nombre 171" x1="279.28" y1="369.88" x2="-208" y2="684.75" gradientTransform="matrix(1, 0, 0, 1, 0, 0)" xlink:href="#Degradado_sin_nombre_171"/>
    <linearGradient id="Degradado_sin_nombre_171-22" data-name="Degradado sin nombre 171" x1="226.79" y1="378.77" x2="-236.96" y2="678.43" gradientTransform="matrix(1, 0, 0, 1, 0, 0)" xlink:href="#Degradado_sin_nombre_171"/>
    <linearGradient id="Degradado_sin_nombre_171-23" data-name="Degradado sin nombre 171" x1="174.3" y1="387.65" x2="-270.41" y2="675.02" gradientTransform="matrix(1, 0, 0, 1, 0, 0)" xlink:href="#Degradado_sin_nombre_171"/>
  </defs>
  <g class="cls-26">
    <g id="Capa_3" data-name="Capa 3">
      <image width="1200" height="800" xlink:href="../bg-welcome.png"/>
      <rect class="cls-28" x="0" y="0" width="1200" height="800"/>
      <g class="cls-32">
        <g class="cls-27">
          <g>
            <ellipse class="cls-34" cx="927.78" cy="325.83" rx="267.75" ry="375.64" transform="translate(-50.97 420.63) rotate(-24.88)"/>
            <path class="cls-34" d="m867.68,684.41c21.55,6.44,62.27,15.91,113.49,11.46,57.23-4.98,98.02-24.78,117.37-35.68-76.95,8.07-153.91,16.15-230.86,24.22Z"/>
            <path class="cls-34" d="m727.88-15.87c8.58-3.43,17.78-6.59,27.63-9.3,70.95-19.57,137.79-6.19,176.94,5.37-9.71,4.15-19.41,8.29-29.12,12.44-7.34,4.48-57.11,33.82-117.11,20.29-29.12-6.57-48.52-20.49-58.34-28.79Z"/>
          </g>
          <g>
            <ellipse class="cls-1" cx="859.59" cy="334.84" rx="267.75" ry="375.64" transform="translate(-61.09 392.77) rotate(-24.88)"/>
            <g>
              <path class="cls-25" d="m640.81,429.01c5.68-11.09,15.91-15.35,27.23-10.77,10.45,4.14,20.49,10.31,30.35,17.17,15.15,10.87,35.08,27.26,41.47,49.01.63,2.31,1.14,4.79,1.3,7.13.59,4.6-.43,9.21-1.12,13.24-.93,5.93.06,12.45,1.81,18.69,2.39,8.44,6.63,16.37,11.6,23.41-.31.84-.73,1.23-1.17,1.38-.04.01-.09.03-.15.04-2.33.51-7.21-5.57-7.21-5.57-7.29-9.08-10.93-13.62-13.24-18.98-1.99-4.62-5.7-13.25-4.61-19.96.23-1.41.17-5.2.07-10.15-.03-1.25-.39-2.31-.88-3.4-5.83-13.35-23-27.18-33.72-36.36-8.22-6.83-17.53-14.33-25.87-20.7-8.66-7.08-16.09-7.32-24.37-2.66-.31.17-.72.06-1.05-.28-.32-.33-.5-.82-.45-1.25Z"/>
              <path class="cls-25" d="m911.25,654.15c3.93-12.55,1.47-27.37-6.92-39.2-7.68-10.96-16.39-20.39-25.43-29.27-14.09-13.47-33.9-30.16-50.28-27.36-1.72.35-3.48.95-4.98,1.91-3.09,1.54-5.38,5.08-7.49,7.94-3.15,4.09-7.59,6.07-12.25,6.99-6.31,1.2-13.22-.16-19.95-2.86-.36.8-.39,1.51-.26,2.14.01.05.03.12.05.2.84,3.15,6.95,6.22,6.95,6.22,9.12,4.58,13.68,6.86,18.08,7.08,3.79.19,10.87.54,14.41-4.13.75-.98,3.07-2.78,6.13-5.1.77-.58,1.6-.66,2.5-.59,11,.66,27.89,15.18,38.75,23.97,8.21,6.85,17.37,14.72,25.36,21.94,8.58,7.27,12.4,16.39,13.66,29,.05.47.32.93.69,1.16.36.23.74.21.98-.06Z"/>
              <path class="cls-25" d="m777.3,538.44c2.7,1.03,7.03,2.26,11.71,1.62,6.95-.95,11.71-5.64,12.3-8.06.06-.27.3-1.4,1.15-2.21.55-.52,1.21-.26,1.83-.89,0,0,.52-.53.71-1.36.76-3.23-33.19-31.49-34.78-28.95-.41.65-.47,1.56-.47,1.56-.08,1.09.41,1.78.36,2.72-.07,1.47-.65,2.31-.78,2.53-1.18,1.93-1.67,10.17,1.18,19.29,1.92,6.13,4.81,10.9,6.77,13.76Z"/>
              <path class="cls-25" d="m901.81,565.04c-.45-3.12,7.14-1.9,12.22-10.1,3.39-5.47,5.45-14.79,2.63-22.98-.53-1.53-.51-.95-7.22-12.34-3.59-6.1-5.42-9.21-6.99-12.33-2.64-5.23-4.19-9.31-5.92-13.9-1.83-4.86-4.74-13.25-7.31-22.97-5.63-21.27-7.48-42.68-6.99-63.18.27-8.45.94-16.88,2.31-24.84,1.24-7.2,3.33-18.32,9.38-29.89,3.31-6.33,6.81-10.86,9.42-13.83-3.24,17.07-6.54,34.41-6.91,52.73.13,20.73,2.79,42.28,7.83,63.53,2.63,10.2,5.93,20.34,9.85,30.23,1.79,3.99,4.87,9.75,7.57,14.04,2.8,4.59,6.01,8.99,8.9,14.05,7.03,12.3,14.26,34.97,7.2,48.67-4.35,8.44-12.17,9.91-14.48,10.34-9.74,1.83-20.96-3.52-21.49-7.22Z"/>
              <g>
                <path class="cls-25" d="m697.72,400.3c-2.67,1-13.39-14.42-15.64-28.65-.12-.73-.2-1.39-.25-1.81-.49-4.12-.97-12.66,2.65-19.96,7.41-14.93,26.17-12.69,34.66-11.67,12.6,1.51,13.24,7.05,25.72,7.55,12.23.49,25.58-1.32,36.85-5.81,12.19-4.65,23.91-10.82,33.91-19.59,8.74-7.67,14.27-15.32,17.53-19.97,61.39-87.57,89.91-190.37,89.91-190.37,3.63-13.08,6.19-23.7,7.43-29.01,2.46,4.84,5.97,12.81,8.05,22.88,1.99,9.65,1.86,17.34,1.46,22.13-10.91,39.48-22.94,71.07-33.13,94.67-15.35,35.56-25.67,57.19-50.28,92.16-8.21,11.66-17.02,23.75-27.28,32.77-5.45,4.83-11.57,8.78-17.83,12.16-5.48,2.96-19.52,10.27-39.99,13.49-10.05,1.58-17.61,2.77-27.49.9-9.88-1.86-14.82-2.79-19.87-5.24-.91-.44-3.7-1.83-7.33-2.46-1.93-.33-4.68-.77-7.68.25-3.21,1.1-5.01,3.33-6.38,5.1-3.69,4.77-4.84,10.42-5.22,12.81-1.63,10.3,1.9,17.02.18,17.67Z"/>
                <g>
                  <path class="cls-25" d="m744.75,344.75c-4.54-7.29,4.62-22.55,8.18-28.48,14.59-24.31,36.68-34.96,38.73-31.82,1.86,2.85-16.8,10.94-21.4,38.33-1.63,9.7-.83,17.84-6.31,22.72-5.72,5.1-15.9,4.53-19.19-.76Z"/>
                  <path class="cls-25" d="m916.85,488.01c6.67,2.04,11.42-16.89,13.26-24.24,7.56-30.16,3.12-62.89.2-63.89-2.65-.91,1.65,26.3-12.72,45.56-5.09,6.82-10.43,9.85-10.69,19.08-.27,9.63,5.1,22.01,9.95,23.49Z"/>
                </g>
              </g>
            </g>
          </g>
        </g>
      </g>
      <g class="cls-31">
        <g>
          <path class="cls-9" d="m993.45-236.36C501.21,187.94,393.15,324.54,414.55,354.18c22.07,30.58,168.68-71.08,232.73-20.36,116.84,92.51-219.72,642.65-180.36,666.18,34.37,20.55,245.82-418.9,477.09-401.45,117.17,8.84,207.87,132.56,273.45,261.82"/>
          <path class="cls-11" d="m930.56-243.57C476.08,190.64,370.24,336.24,390.3,370.11c18.4,31.07,160.11-66.5,220.7-17.13,110.37,90.49-210.99,617.53-172.5,641.34,15.69,9.7,65.43-66.06,130.05-146.97,44.52-55.75,90.57-110.04,149.23-155.98,56.93-44.9,121.66-80.33,188.8-76.06,115.79,7.35,208.06,128.24,278.86,263.48"/>
          <path class="cls-13" d="m867.67-250.77C450.94,193.34,346.99,347.3,366.06,386.04c15.24,30.96,151.7-62.1,208.68-13.89,104.17,88.13-202.31,592.5-164.63,616.49,16.82,10.71,70.03-67.08,133.15-142.24,43.45-51.74,80.64-94.21,137.26-137.13,55.05-41.73,120.16-80.76,188.67-77.21,114.4,5.93,208.25,123.93,284.26,265.14"/>
          <path class="cls-22" d="m804.78-257.97C425.81,196.04,332.88,355.07,341.82,401.97c18.47,27.23,143.21-57.6,196.66-10.66,97.85,85.95-193.66,567.52-156.76,591.64,17.95,11.73,74.64-68.12,136.25-137.51,42.39-47.75,70.63-78.47,125.29-118.28,53.09-38.66,118.66-81.16,188.54-78.35,113,4.55,208.43,119.61,289.66,266.81"/>
          <path class="cls-10" d="m741.89-265.18C400.68,198.74,312.78,365.25,317.58,417.9c17.27,26.11,134.73-53.1,184.63-7.42,91.53,83.78-185.04,542.6-148.89,566.8,19.08,12.77,79.28-69.19,139.35-132.78,41.35-43.78,60.62-62.74,113.32-99.42,51.12-35.58,117.15-81.55,188.41-79.49,111.6,3.23,208.62,115.3,295.06,268.47"/>
          <path class="cls-19" d="m679-272.38C375.55,201.44,292.69,375.43,293.33,433.84c16.07,25,126.25-48.59,172.61-4.19,85.22,81.62-176.45,517.72-141.03,541.95,20.2,13.82,83.95-70.28,142.44-128.05,40.34-39.84,50.59-47,101.35-80.57s115.64-81.92,188.28-80.63c110.18,1.95,208.81,110.98,300.47,270.13"/>
          <path class="cls-7" d="m616.1-279.58C350.42,204.15,272.6,385.61,269.09,449.77c14.88,23.88,117.77-44.08,160.59-.95,78.91,79.47-167.87,492.87-133.16,517.11,21.31,14.88,88.65-71.4,145.54-123.32,39.36-35.92,40.56-31.26,89.38-61.71,47.17-29.43,114.18-84.57,188.15-81.78,108.69,4.11,209,106.66,305.87,271.79"/>
          <path class="cls-14" d="m553.21-286.79C325.28,206.85,252.51,395.78,244.85,465.7c13.68,22.76,109.29-39.55,148.56,2.28,72.6,77.34-159.32,468.05-125.29,492.26,22.42,15.95,93.42-72.55,148.64-118.59,38.43-32.04,30.52-15.51,77.41-42.86s112.64-85.13,188.02-82.92c107.3,3.15,209.18,102.35,311.27,273.45"/>
          <path class="cls-23" d="m490.32-293.99C300.15,209.55,232.41,405.96,220.61,481.63c12.48,21.65,100.81-35.02,136.54,5.52,66.3,75.23-150.78,443.26-117.42,467.42,23.51,17.03,98.25-73.72,151.73-113.86,37.55-28.18,20.46.23,65.44-24.01,43.17-23.27,111.1-85.63,187.89-84.06,105.91,2.16,209.37,98.03,316.68,275.12"/>
          <path class="cls-6" d="m427.43-301.19C275.02,212.25,212.32,416.14,196.36,497.56c11.28,20.53,92.34-30.47,124.52,8.75,60,73.14-142.25,418.48-109.55,442.57,24.6,18.13,103.18-74.9,154.83-109.13,36.74-24.35,10.39,15.98,53.47-5.15,41.16-20.19,109.57-83.17,187.75-85.2,104.5-2.72,209.56,93.71,322.08,276.78"/>
          <path class="cls-5" d="m364.54-308.4C249.89,214.95,192.23,426.31,172.12,513.49c10.08,19.41,83.86-25.91,112.49,11.99,53.71,71.08-133.73,393.72-101.69,417.73,25.68,19.24,108.23-76.06,157.93-104.39,36.01-20.53.31,31.72,41.5,13.7,39.13-17.12,108.05-83.42,187.62-86.34,103.07-3.79,209.75,89.4,327.48,278.44"/>
          <path class="cls-20" d="m301.65-315.6C224.76,217.65,172.14,436.49,147.88,529.42c8.88,18.3,75.38-21.33,100.47,15.22,47.4,69.05-125.23,368.97-93.82,392.88,26.75,20.36,113.42-77.19,161.03-99.66,35.4-16.72-9.8,47.46,29.52,32.55,37.07-14.05,106.53-83.64,187.49-87.49,101.65-4.83,209.93,85.08,332.88,280.1"/>
          <path class="cls-21" d="m238.75-322.81c-39.13,543.16-86.71,769.47-115.12,868.16,7.68,17.18,66.89-16.73,88.44,18.46,41.09,67.06-116.74,344.23-85.95,368.03,27.81,21.5,118.78-78.22,164.12-94.93,34.9-12.87-19.93,63.19,17.55,51.41,35-11,105.01-83.84,187.36-88.63,100.23-5.83,210.12,80.77,338.29,281.77"/>
          <path class="cls-8" d="m175.86-330.01c-1.37,553.06-43.91,786.85-76.47,891.29,6.48,16.06,58.38-12.1,76.42,21.69,34.76,65.12-108.25,319.51-78.08,343.19,28.85,22.65,124.31-79.1,167.22-90.2,34.54-8.94-30.09,78.9,5.58,70.26,32.9-7.97,103.5-84.01,187.23-89.77,98.81-6.8,210.31,76.45,343.69,283.43"/>
          <path class="cls-4" d="m112.97-337.21c36.39,562.97-1.11,804.23-37.82,914.42,5.28,14.95,49.86-7.45,64.4,24.93,28.39,63.22-99.77,294.79-70.22,318.34,29.88,23.81,130-91.25,170.32-85.47,34.3,4.91-40.28,94.58-6.39,89.12,30.77-4.96,101.99-84.15,187.1-90.91,97.4-7.74,210.5,72.13,349.09,285.09"/>
          <path class="cls-18" d="m50.08-344.42c74.15,572.87,41.69,821.62.83,937.56,4.08,13.83,41.3-2.77,52.37,28.17,21.97,61.38-91.3,270.08-62.35,293.5,30.9,24.99,137.11-90.75,173.42-80.74,32.91,9.07-50.5,110.22-18.36,107.97,28.62-2,100.48-84.26,186.97-92.06,95.99-8.66,210.68,67.82,354.49,286.75"/>
          <path class="cls-3" d="m-12.81-351.62C99.1,231.16,71.68,487.38,26.67,609.07c2.88,12.71,32.7,1.93,40.35,31.4,15.46,59.58-82.84,245.37-54.48,268.65,31.91,26.19,143.88-89.37,176.51-76.01,31.62,12.94-60.7,128.63-30.33,126.82,26.42-1.58,98.98-84.33,186.84-93.2,94.58-9.55,210.87,63.5,359.9,288.42"/>
          <path class="cls-12" d="m-75.71-358.82C73.96,233.86,51.58,497.55,2.42,625c1.68,11.6,24.05,6.65,28.33,34.64,8.84,57.8-74.39,220.67-46.61,243.81,32.9,27.4,147.08-79.94,179.61-71.28s-70.96,141.28-42.3,145.68c24.29,3.72,97.48-84.37,186.71-94.34,93.19-10.41,211.06,59.18,365.3,290.08"/>
          <path class="cls-17" d="m-138.6-366.03C48.83,236.56,31.49,507.73-21.82,640.94c.48,10.48,15.32,11.35,16.3,37.87,2.07,56.02-65.94,195.98-38.74,218.96,33.87,28.63,152.38-79.55,182.71-66.55,32.96,14.12-81.14,156.68-54.27,164.53,22.17,6.48,95.99-84.38,186.57-95.48,91.8-11.25,211.25,54.87,370.7,291.74"/>
          <path class="cls-2" d="m-201.49-373.23C23.7,239.26-11.15,510.6-46.06,656.87c-2.18,9.13,6.53,16.02,4.28,41.11-4.86,54.16-57.49,171.29-30.88,194.11,34.83,29.87,157.35-79.13,185.81-61.82,31.98,19.44-91.24,171.99-66.24,183.38,20.11,9.17,94.52-84.36,186.44-96.62,90.42-12.07,211.44,50.55,376.1,293.4"/>
          <path class="cls-16" d="m-264.38-380.43C-1.43,241.97-21.51,523.28-70.3,672.8c-2.63,8.05-2.32,20.63-7.74,44.34-11.94,52.17-49.06,146.6-23.01,169.27,35.77,31.14,161.99-78.8,188.9-57.09,30.69,24.75-101.22,187.25-78.21,202.24,18.16,11.83,93.05-84.29,186.31-97.77,89.04-12.86,211.62,46.24,381.51,295.06"/>
          <path class="cls-15" d="m-327.27-387.64C-26.56,244.67-28.78,538.26-94.55,688.73c-10.06,23.01-71.83,159.39-34.91,192,36.69,32.42,166.39-78.64,192-52.36,29.16,29.92-111.06,202.51-90.18,221.09,16.31,14.51,91.59-84.19,186.18-98.91,87.68-13.64,211.81,41.92,386.91,296.73"/>
        </g>
      </g>
      <rect class="cls-29" x="0" y="2.18" width="1200" height="800"/>
    </g>
  </g>
</svg>