<?xml version="1.0" encoding="UTF-8"?>
<svg id="Capa_42" data-name="Capa 42" xmlns="http://www.w3.org/2000/svg" viewBox="0 0 24 24">
  <defs>
    <style>
      .cls-1 {
        fill: #ffef00;
        fill-rule: evenodd;
      }
    </style>
  </defs>
  <path id="radio_on" data-name="radio on" class="cls-1" d="m12,6c-3.31,0-6,2.69-6,6s2.69,6,6,6,6-2.69,6-6c.03-3.28-2.6-5.97-5.88-6-.04,0-.08,0-.12,0Zm0-6C5.37,0,0,5.37,0,12s5.37,12,12,12,12-5.37,12-12C23.98,5.38,18.62.02,12,0Zm0,21.6c-5.3,0-9.6-4.3-9.6-9.6S6.7,2.4,12,2.4s9.6,4.3,9.6,9.6c-.02,5.3-4.3,9.58-9.6,9.6Z"/>
</svg>