<?xml version="1.0" encoding="UTF-8"?>
<svg id="ic-transaction-staked" xmlns="http://www.w3.org/2000/svg" viewBox="0 0 24 24">
  <defs>
    <style>
      .cls-1 {
        fill: #fff;
      }
    </style>
  </defs>
  <path class="cls-1" d="m21.4,16.3l-2.8-1.5,2.5-.6c.5-.1.7-.6.6-1s-.6-.7-1-.6l-4.2,1.1-2.7-1.5,2.7-1.5,4.2,1.1h.2c.4,0,.7-.2.8-.6.1-.4-.1-.9-.6-1l-2.5-.6,2.8-1.5c.4-.2.5-.7.3-1.1s-.8-.5-1.2-.3l-2.7,1.3.7-2.4c.1-.4-.1-.9-.6-1s-.9.1-1,.6l-1.1,4-2.7,1.5v-3l2.9-2.9c.3-.3.3-.8,0-1.2-.3-.3-.9-.3-1.2,0l-1.8,1.8v-3.1c0-.5-.4-.8-.9-.8s-.9.4-.9.8v3.1l-1.8-1.8c-.4-.3-.9-.3-1.2,0s-.3.8,0,1.2l3.1,2.9v3l-2.8-1.5-1.1-4c-.1-.4-.6-.7-1-.6-.5.1-.7.6-.6,1l.6,2.4-2.8-1.5c-.4-.2-.9-.1-1.2.3-.2.4-.1.9.3,1.1l2.8,1.5-2.5.7c-.5.1-.7.6-.6,1,.1.4.4.6.8.6h.2l4.2-1.1,2.7,1.5-2.7,1.5-4.2-1.1c-.5-.1-.9.1-1,.6-.1.4.1.9.6,1l2.5.6-2.8,1.5c-.4.2-.5.7-.3,1.1.2.3.4.4.7.4.1,0,.3,0,.4-.1l2.8-1.5-.7,2.4c-.1.4.1.9.6,1h.2c.4,0,.7-.2.8-.6l1.1-4,2.7-1.5v3l-3.1,2.9c-.3.3-.3.8,0,1.2.3.3.9.3,1.2,0l1.8-1.8v3.1c0,.5.4.8.9.8s.9-.4.9-.8v-3.1l1.8,1.8c.2.2.4.2.6.2s.4-.1.6-.2c.3-.3.3-.8,0-1.2l-3.1-2.9v-3l2.7,1.5,1.1,4c.1.4.4.6.8.6h.2c.5-.1.7-.6.6-1l-.7-2.4,2.8,1.5c.1.1.3.1.4.1.3,0,.6-.1.7-.4.8-.3.6-.8.2-1Z"/>
</svg>