<?xml version="1.0" encoding="UTF-8" standalone="no"?>
<!DOCTYPE svg PUBLIC "-//W3C//DTD SVG 1.1//EN" "http://www.w3.org/Graphics/SVG/1.1/DTD/svg11.dtd">
<svg width="100%" height="100%" viewBox="0 0 24 24" version="1.1" xmlns="http://www.w3.org/2000/svg" xmlns:xlink="http://www.w3.org/1999/xlink" xml:space="preserve" xmlns:serif="http://www.serif.com/" style="fill-rule:evenodd;clip-rule:evenodd;stroke-linejoin:round;stroke-miterlimit:2;">
    <g>
        <circle cx="12" cy="12" r="10" style="fill:rgb(246,192,44);"/>
        <g>
            <path d="M3.25,13.58C3.57,13.31 3.98,13.24 4.33,13.41C4.66,13.57 4.95,13.77 5.22,14C5.64,14.36 6.17,14.88 6.17,15.49C6.17,15.55 6.16,15.62 6.14,15.69C6.11,15.82 6.03,15.93 5.96,16.04C5.86,16.19 5.83,16.37 5.83,16.55C5.83,16.79 5.89,17.02 5.99,17.23C5.97,17.25 5.95,17.26 5.93,17.26C5.84,17.26 5.73,17.08 5.73,17.08C5.57,16.81 5.49,16.67 5.46,16.51C5.44,16.38 5.4,16.13 5.51,15.96C5.53,15.92 5.57,15.82 5.62,15.69C5.63,15.66 5.63,15.63 5.62,15.6C5.56,15.22 5.09,14.77 4.81,14.48C4.59,14.26 4.34,14.02 4.11,13.81C3.88,13.58 3.62,13.55 3.27,13.63C3.26,13.63 3.24,13.63 3.24,13.62L3.24,13.58L3.25,13.58Z" style="fill:rgb(30,30,31);fill-rule:nonzero;"/>
            <path d="M10.44,20.77C10.71,20.45 10.78,20.04 10.61,19.69C10.45,19.36 10.25,19.07 10.02,18.8C9.66,18.38 9.14,17.85 8.53,17.85C8.47,17.85 8.4,17.86 8.33,17.88C8.2,17.91 8.09,17.99 7.98,18.06C7.83,18.16 7.65,18.19 7.47,18.19C7.23,18.19 7,18.13 6.79,18.03C6.77,18.05 6.76,18.07 6.76,18.09C6.76,18.18 6.94,18.29 6.94,18.29C7.21,18.45 7.35,18.53 7.51,18.56C7.64,18.58 7.89,18.62 8.06,18.51C8.1,18.49 8.2,18.45 8.33,18.4C8.36,18.39 8.39,18.39 8.42,18.4C8.8,18.46 9.25,18.93 9.54,19.21C9.76,19.43 10,19.68 10.21,19.91C10.44,20.14 10.47,20.4 10.39,20.75C10.39,20.76 10.39,20.78 10.4,20.78L10.44,20.78L10.44,20.77Z" style="fill:rgb(30,30,31);fill-rule:nonzero;"/>
            <path d="M6.92,17.1C7,17.14 7.15,17.19 7.32,17.19C7.58,17.19 7.79,17.09 7.84,17.03C7.84,17.03 7.87,16.99 7.9,16.98C7.93,16.97 7.95,16.98 7.97,16.96C7.97,16.96 7.99,16.95 8.01,16.93C8.07,16.85 7.17,15.94 7.09,16.01C7.07,16.03 7.06,16.05 7.06,16.05C7.05,16.08 7.06,16.1 7.04,16.12C7.02,16.16 6.99,16.18 6.99,16.18C6.93,16.23 6.82,16.45 6.83,16.7C6.83,16.87 6.88,17.01 6.92,17.1Z" style="fill:rgb(30,30,31);fill-rule:nonzero;"/>
            <path d="M11.05,18.35C11.07,18.26 11.32,18.33 11.59,18.13C11.77,18 11.94,17.76 11.93,17.53C11.93,17.49 11.93,17.5 11.81,17.17C11.75,16.99 11.72,16.9 11.69,16.81C11.65,16.66 11.64,16.54 11.63,16.41C11.62,16.27 11.6,16.03 11.62,15.76C11.65,15.17 11.81,14.59 12.04,14.04C12.14,13.81 12.25,13.59 12.39,13.38C12.51,13.19 12.7,12.9 13.04,12.62C13.22,12.46 13.4,12.36 13.52,12.29C13.22,12.73 12.92,13.18 12.71,13.67C12.49,14.23 12.36,14.81 12.31,15.4C12.29,15.68 12.31,15.97 12.34,16.25C12.36,16.36 12.41,16.53 12.46,16.66C12.51,16.79 12.58,16.93 12.63,17.07C12.75,17.43 12.76,18.07 12.37,18.4C12.13,18.61 11.83,18.61 11.75,18.61C11.39,18.61 11.04,18.43 11.07,18.32L11.05,18.35Z" style="fill:rgb(30,30,31);fill-rule:nonzero;"/>
            <g>
                <path d="M5.57,13.06C5.46,13.08 5.25,12.62 5.32,12.23C5.32,12.21 5.32,12.19 5.33,12.18C5.36,12.07 5.43,11.84 5.64,11.66C6.06,11.29 6.7,11.43 6.99,11.5C7.42,11.59 7.38,11.75 7.82,11.81C8.25,11.88 8.74,11.88 9.19,11.81C9.67,11.74 10.15,11.62 10.6,11.43C10.99,11.26 11.27,11.08 11.43,10.97C14.54,8.89 16.64,6.26 16.64,6.26C16.91,5.93 17.11,5.65 17.21,5.52C17.25,5.66 17.29,5.89 17.25,6.17C17.22,6.44 17.13,6.64 17.07,6.77C16.26,7.78 15.5,8.57 14.89,9.16C13.97,10.05 13.37,10.58 12.13,11.41C11.72,11.69 11.27,11.97 10.82,12.17C10.58,12.28 10.32,12.36 10.06,12.42C9.83,12.48 9.26,12.61 8.5,12.61C8.13,12.61 7.85,12.61 7.52,12.52C7.19,12.43 7.02,12.38 6.87,12.29C6.84,12.27 6.76,12.23 6.64,12.19C6.58,12.17 6.48,12.15 6.37,12.16C6.24,12.18 6.16,12.23 6.09,12.27C5.91,12.38 5.81,12.53 5.77,12.59C5.6,12.86 5.66,13.05 5.59,13.06L5.57,13.06Z" style="fill:rgb(30,30,31);fill-rule:nonzero;"/>
                <g>
                    <path d="M7.83,11.77C7.75,11.56 8.23,11.19 8.42,11.04C9.2,10.45 10.09,10.26 10.13,10.35C10.17,10.43 9.42,10.57 8.96,11.28C8.8,11.53 8.74,11.75 8.49,11.86C8.23,11.97 7.88,11.91 7.82,11.76L7.83,11.77Z" style="fill:rgb(30,30,31);fill-rule:nonzero;"/>
                    <path d="M12.4,16.35C12.61,16.43 12.98,15.95 13.13,15.76C13.72,14.98 13.91,14.09 13.82,14.05C13.74,14.01 13.6,14.76 12.88,15.22C12.63,15.38 12.41,15.44 12.3,15.69C12.19,15.95 12.25,16.3 12.4,16.36L12.4,16.35Z" style="fill:rgb(30,30,31);fill-rule:nonzero;"/>
                </g>
            </g>
        </g>
    </g>
    <path d="M7.99,8.78C9.01,7.58 10.02,6.37 11.04,5.17L8.83,5.17C8.66,4.97 8.5,4.76 8.33,4.56C9.69,4.56 11.04,4.56 12.4,4.55C12.26,4.7 12.12,4.84 11.99,4.99C10.85,6.23 9.8,7.48 8.85,8.72C10.05,8.72 11.24,8.71 12.44,8.7C12.17,8.89 11.9,9.08 11.63,9.27C10.37,9.27 9.11,9.28 7.85,9.29C7.9,9.12 7.95,8.95 8,8.79L7.99,8.78Z" style="fill:rgb(30,30,31);fill-rule:nonzero;"/>
    <circle cx="12" cy="12" r="10" style="fill:rgb(255,239,0);"/>
    <g transform="matrix(0.401305,0,0,0.401305,-8.07125,-7.94668)">
        <path d="M56.47,63.16C56.29,62.46 56.07,61.75 55.8,61.03C55.07,58.44 53.81,57.13 52.49,56.51C52.47,56.51 52.45,56.49 52.44,56.49C51.21,55.94 49.93,55.98 48.95,56.17C50.06,53.82 51.05,51.26 50.15,51.52C49.87,51.6 49.54,53.52 48.17,55.35C47.87,55.75 47.55,56.13 47.24,56.5L47.24,56.4C47.25,56.31 47.26,56.22 47.28,56.13C47.65,53.87 48.8,52.31 48.67,52.05C48.4,51.53 47.84,52.3 47.24,53.55L47.24,52.25C47.25,50.6 47.29,49.07 47.41,47.62C47.47,46.86 47.88,46.18 48.53,45.77C48.72,45.65 48.88,45.54 48.99,45.41C49.67,44.58 47.55,44.44 48.85,40.98C48.85,40.96 48.86,40.94 48.87,40.92C49.7,38.82 50.95,36.75 52.82,34.51C53.05,34.23 52.69,33.85 52.4,34.08C47.67,37.76 45.06,40.3 43.84,45.95C43.23,48.76 42.98,52.35 42.98,57.24L42.98,65.39L47.24,65.39L47.24,59.78L48.45,59.78C49.29,59.78 49.94,59.96 50.39,60.31C50.84,60.66 51.19,61.15 51.43,61.78C51.67,62.41 51.88,63.16 52.06,64.05L52.33,65.4L57.05,65.4L56.48,63.16L56.47,63.16ZM47.22,56.69L47.22,56.65C47.22,56.65 47.24,56.66 47.25,56.67C47.24,56.67 47.23,56.68 47.22,56.68L47.22,56.69Z" style="fill-rule:nonzero;"/>
    </g>
    <g transform="matrix(0.401305,0,0,0.401305,-8.07125,-7.94668)">
        <path d="M52.59,50.67C52.45,50.9 52.64,51.34 52.85,51.94C52.98,52.31 52.9,52.73 52.63,53.01C52.09,53.59 51.49,54.13 50.83,54.67C50.77,54.72 50.72,54.79 50.68,54.86C50.63,54.97 50.71,55.11 50.84,55.11C51.51,55.13 52.24,55.25 52.94,55.58C52.94,55.58 53.15,55.7 53.37,55.83C53.47,55.89 53.61,55.86 53.68,55.77C56.24,52.38 57.5,48.02 56.87,43.49C56.77,42.75 56.62,42.03 56.42,41.33C56.35,41.07 56.27,40.81 56.19,40.56C56.19,40.56 56.16,40.47 56.13,40.39C56.1,40.31 55.98,40.33 55.99,40.43C56,40.53 55.99,40.47 55.99,40.5L55.99,40.67C56.01,41.03 55.88,41.39 55.64,41.67C55.5,41.82 55.38,42 55.36,42.14C55.32,42.46 56.05,42.48 55.98,42.93C55.91,43.38 55.24,43.4 55.22,43.79C55.2,44.18 55.78,44.63 55.77,44.98C55.75,45.33 55.02,45.48 54.95,45.85C54.92,46.02 55.04,46.19 55.17,46.36C55.32,46.57 55.5,46.78 55.45,47.02C55.41,47.21 55.23,47.37 55.04,47.51C54.79,47.7 54.5,47.86 54.47,48.05C54.44,48.19 54.54,48.39 54.67,48.58C54.91,48.94 54.95,49.4 54.78,49.8C54.78,49.8 54.78,49.82 54.77,49.83C54.55,50.19 54.33,50.41 54.11,50.55C53.38,51.01 52.72,50.43 52.58,50.67L52.59,50.67Z" style="fill-rule:nonzero;"/>
    </g>
    <g transform="matrix(0.554398,0,0,0.5809,2.55167,9.39353)">
        <g transform="matrix(12,0,0,12,10.8257,4.48696)">
        </g>
        <text x="3.496px" y="4.487px" style="font-family:'ArialMT', 'Arial', sans-serif;font-size:12px;">Z</text>
    </g>
</svg>
