<?xml version="1.0" encoding="UTF-8" standalone="no"?>
<!DOCTYPE svg PUBLIC "-//W3C//DTD SVG 1.1//EN" "http://www.w3.org/Graphics/SVG/1.1/DTD/svg11.dtd">
<svg width="100%" height="100%" viewBox="0 0 24 24" version="1.1" xmlns="http://www.w3.org/2000/svg" xmlns:xlink="http://www.w3.org/1999/xlink" xml:space="preserve" xmlns:serif="http://www.serif.com/" style="fill-rule:evenodd;clip-rule:evenodd;stroke-linejoin:round;stroke-miterlimit:2;">
    <circle cx="12" cy="12" r="10" style="fill:rgb(255,239,0);"/>
    <g transform="matrix(0.401305,0,0,0.401305,-8.07125,-7.94668)">
        <path d="M56.47,63.16C56.29,62.46 56.07,61.75 55.8,61.03C55.07,58.44 53.81,57.13 52.49,56.51C52.47,56.51 52.45,56.49 52.44,56.49C51.21,55.94 49.93,55.98 48.95,56.17C50.06,53.82 51.05,51.26 50.15,51.52C49.87,51.6 49.54,53.52 48.17,55.35C47.87,55.75 47.55,56.13 47.24,56.5L47.24,56.4C47.25,56.31 47.26,56.22 47.28,56.13C47.65,53.87 48.8,52.31 48.67,52.05C48.4,51.53 47.84,52.3 47.24,53.55L47.24,52.25C47.25,50.6 47.29,49.07 47.41,47.62C47.47,46.86 47.88,46.18 48.53,45.77C48.72,45.65 48.88,45.54 48.99,45.41C49.67,44.58 47.55,44.44 48.85,40.98C48.85,40.96 48.86,40.94 48.87,40.92C49.7,38.82 50.95,36.75 52.82,34.51C53.05,34.23 52.69,33.85 52.4,34.08C47.67,37.76 45.06,40.3 43.84,45.95C43.23,48.76 42.98,52.35 42.98,57.24L42.98,65.39L47.24,65.39L47.24,59.78L48.45,59.78C49.29,59.78 49.94,59.96 50.39,60.31C50.84,60.66 51.19,61.15 51.43,61.78C51.67,62.41 51.88,63.16 52.06,64.05L52.33,65.4L57.05,65.4L56.48,63.16L56.47,63.16ZM47.22,56.69L47.22,56.65C47.22,56.65 47.24,56.66 47.25,56.67C47.24,56.67 47.23,56.68 47.22,56.68L47.22,56.69Z" style="fill-rule:nonzero;"/>
    </g>
    <g transform="matrix(0.401305,0,0,0.401305,-8.07125,-7.94668)">
        <path d="M52.59,50.67C52.45,50.9 52.64,51.34 52.85,51.94C52.98,52.31 52.9,52.73 52.63,53.01C52.09,53.59 51.49,54.13 50.83,54.67C50.77,54.72 50.72,54.79 50.68,54.86C50.63,54.97 50.71,55.11 50.84,55.11C51.51,55.13 52.24,55.25 52.94,55.58C52.94,55.58 53.15,55.7 53.37,55.83C53.47,55.89 53.61,55.86 53.68,55.77C56.24,52.38 57.5,48.02 56.87,43.49C56.77,42.75 56.62,42.03 56.42,41.33C56.35,41.07 56.27,40.81 56.19,40.56C56.19,40.56 56.16,40.47 56.13,40.39C56.1,40.31 55.98,40.33 55.99,40.43C56,40.53 55.99,40.47 55.99,40.5L55.99,40.67C56.01,41.03 55.88,41.39 55.64,41.67C55.5,41.82 55.38,42 55.36,42.14C55.32,42.46 56.05,42.48 55.98,42.93C55.91,43.38 55.24,43.4 55.22,43.79C55.2,44.18 55.78,44.63 55.77,44.98C55.75,45.33 55.02,45.48 54.95,45.85C54.92,46.02 55.04,46.19 55.17,46.36C55.32,46.57 55.5,46.78 55.45,47.02C55.41,47.21 55.23,47.37 55.04,47.51C54.79,47.7 54.5,47.86 54.47,48.05C54.44,48.19 54.54,48.39 54.67,48.58C54.91,48.94 54.95,49.4 54.78,49.8C54.78,49.8 54.78,49.82 54.77,49.83C54.55,50.19 54.33,50.41 54.11,50.55C53.38,51.01 52.72,50.43 52.58,50.67L52.59,50.67Z" style="fill-rule:nonzero;"/>
    </g>
</svg>
