<?xml version="1.0" encoding="UTF-8"?>
<svg id="ic-transaction-staked" xmlns="http://www.w3.org/2000/svg" viewBox="0 0 24 24">
  <defs>
    <style>
      .cls-1 {
        fill: #fff;
      }
    </style>
  </defs>
  <path class="cls-1" d="m16.5,12c-.7-.6-1.6-1.1-2.5-1.6-.4-.2-1.6-1.2-1.2-2.6l-.9-.1c1.2-1.9,2.9-3.9,4.9-5.7-1.6.5-2.9,1.3-4,2.8.6-1.3,1.6-2.5,2.7-3.8-1.5,1-2.8,2.3-3.6,3.9l.6-2.3c-.9,1.5-1.5,3.1-1.7,4.7l-1.1-.8-.2.2c1,1.9.5,2.9,0,3.2-1,.7-2.6,1.6-3.3,2.4-1.5,1.5-1.9,2.9-1.7,4.8.1,2.4,1.9,4.4,4.2,5.2,1,.3,2,.4,3,.4,1.7,0,3.4-.5,4.7-1.5,1.3-1.1,2.1-2.8,2.1-4.6,0-1.7-.7-3.4-2-4.6Zm-6.6-5h0Zm3.7,13.7c-.3.7-.9,1.4-1.3,1.7h-.7c-.6,0-1.3-.1-1.9-.2-.7-.2-1.2-.5-1.6-1l-.1-.1c-.7-.8-1.5-2.1-1.9-3.3-.1-.4-.2-.8,0-1.3.6-2,1.8-2.7,3-3.6.3-.2.6-.3.9-.5.5-.4.8-1.5,1.1-2.4-.1.7-.3,2.1-1,2.6-.3.2-.6.4-.9.6-1.2.8-2.4,1.5-2.9,3.4-.1.4,0,.8.1,1.2.3,1.2,1.1,2.4,1.8,3.1l.1.1c.4.5.6.7,1.6,1-.2-.1-.4-.2-.6-.4-1.1-.8-1.7-1.8-1.8-3.2-.1-1.1.6-2.3,2-3,.9-.5,1.2-1.2,1.5-2.1-.2,1-.4,1.7-1.4,2.2-1.1.7-2,2-1.9,2.9.1,1.1.9,2.3,1.7,3.1.4.4,1.1.6,1.8.7h0c-.2-.1-.5-.3-.7-.6-.2-.2-.3-.6-.4-.9-.1-.4-.3-.7-.3-1,0-.7.1-1.5.6-2.1.4-.5.6-.6.8-1.1V7.7h.1v14.3h0c.3-.5.4-1.5.5-2.1,0-.5.1-1,0-1.6-.1-.7-.3-1.5-.3-2,.1.5.4,1.3.5,2,.1.6.1,1.1.1,1.6s-.1.9-.1,1.3c-.1.3-.3.7-.6,1h0c.6-.4,1-1.1,1.1-1.9.2-1,.2-1.9.2-2.4,0-.4-.2-1.1-.4-1.7-.1-.5-.6-1-.7-1.3-.2-.6-.1-1-.1-1.9.1.8.1,1.4.3,1.7s.4.7.6,1.2c.3.8.5,1.7.5,2.1,0,.7-.1,1.8-.3,2.6-.1.3-.2.5-.3.8.2-.4.4-.9.5-1.3.3-1.5.6-3,.4-3.9,0-.2-.1-.9-.4-1.7-.4-1.1-1-2-1.1-2.2-.2-.6-.3-2.2-.3-3,0,1,.2,2.5.4,2.8.1.2.7,1.2,1.2,2.3.3.7.4,1.4.4,1.6.2,2,0,2.8-.5,4.6-.1.4-.4.8-.6,1.2.5-.5.9-1.2,1-1.7.5-2.2.7-5.1,0-7.3-.4-1.1-1.3-2.1-1.5-2.8-.2-.6-.1-.9-.1-1.8,0,1,.3,1.7.4,2.1.1.2.9,1.2,1.3,2.3.3.7.6,2.5.6,2.6.3,2,.2,3.9-.4,5.5Z"/>
  <path class="cls-1" d="m11.2,16.5c-.1.6-.2.7-.6,1.2-.5.8-.6,1.5-.5,2,0,.3.2.6.3.8.1.3.3.6.5.9.1.2.2.3.4.4v-5.1c-.1,0-.1-.1-.1-.2Z"/>
</svg>