<?xml version="1.0" encoding="UTF-8"?>
<svg id="Capa_1" data-name="Capa 1" xmlns="http://www.w3.org/2000/svg" viewBox="0 0 24 24">
  <defs>
    <style>
      .cls-1 {
        fill: #f6c02c;
      }

      .cls-2 {
        fill: #1e1e1f;
      }

      .cls-3 {
        fill: #5c4b7d;
      }

      .cls-4 {
        fill: none;
      }
    </style>
  </defs>
  <g id="Group_8933" data-name="Group 8933">
    <g id="Group_8932" data-name="Group 8932">
      <path id="Path_18926" data-name="Path 18926" class="cls-3" d="m12,2C6.48,2,2,6.48,2,12s4.48,10,10,10,10-4.48,10-10S17.52,2,12,2Zm0,19.25c-5.11,0-9.25-4.14-9.25-9.25S6.89,2.75,12,2.75s9.25,4.14,9.25,9.25-4.14,9.25-9.25,9.25h0Z"/>
      <path id="Path_18927" data-name="Path 18927" class="cls-3" d="m12,3.5C7.31,3.5,3.5,7.31,3.5,12s3.81,8.5,8.5,8.5,8.5-3.81,8.5-8.5S16.69,3.5,12,3.5Zm-4.41,8.96l4.74-5.62h-4.59v-.85h5.92v.81l-4.65,5.49,4.71.02v.85h-6.14v-.7Zm8.88,2.52s-.09.07-.14.1c-.01.01-.03.02-.04.03s-.05.03-.07.04c-.06.04-.12.07-.19.1-.03.02-.06.03-.09.04-.03.02-.06.03-.09.04-.04.02-.08.03-.12.05-.33.11-.68.17-1.03.17h-2.17v3.44h-.86v-4.22h2.92c.61.04,1.2-.23,1.58-.71.05-.07.1-.15.14-.23.06-.11.1-.23.13-.35.06-.2.08-.41.08-.62,0-.11,0-.21-.02-.32-.02-.16-.06-.32-.12-.47,0-.03-.02-.06-.03-.09-.09-.22-.24-.41-.42-.56-.07-.06-.14-.11-.21-.15-.02-.02-.05-.03-.08-.04-.05-.03-.11-.05-.16-.08l-.08-.03c-.09-.03-.18-.06-.27-.08l-.1-.02c-.1-.02-.2-.03-.31-.03h-3.09s.7-.78.7-.78h2.38c.35,0,.7.05,1.03.16.04.01.08.03.12.05.06.02.12.05.18.08.08.04.15.08.22.12.03.02.07.05.1.07.69.5,1.09,1.31,1.05,2.17.03.81-.32,1.59-.95,2.11Z"/>
    </g>
  </g>
  <path id="Rectangle_4542" data-name="Rectangle 4542" class="cls-4" d="m0,0h24v24H0V0Z"/>
  <g>
    <circle class="cls-1" cx="12" cy="12" r="10"/>
    <g>
      <path class="cls-2" d="m3.25,13.58c.32-.27.73-.34,1.08-.17.33.16.62.36.89.59.42.36.95.88.95,1.49,0,.06-.01.13-.03.2-.03.13-.11.24-.18.35-.1.15-.13.33-.13.51,0,.24.06.47.16.68-.02.02-.04.03-.06.03,0,0,0,0,0,0-.09,0-.2-.18-.2-.18-.16-.27-.24-.41-.27-.57-.02-.13-.06-.38.05-.55.02-.04.06-.14.11-.27.01-.03.01-.06,0-.09-.06-.38-.53-.83-.81-1.12-.22-.22-.47-.46-.7-.67-.23-.23-.49-.26-.84-.18-.01,0-.03,0-.03-.01,0-.01,0-.02,0-.04Z"/>
      <path class="cls-2" d="m10.44,20.77c.27-.32.34-.73.17-1.08-.16-.33-.36-.62-.59-.89-.36-.42-.88-.95-1.49-.95-.06,0-.13.01-.2.03-.13.03-.24.11-.35.18-.15.1-.33.13-.51.13-.24,0-.47-.06-.68-.16-.02.02-.03.04-.03.06,0,0,0,0,0,0,0,.09.18.2.18.2.27.16.41.24.57.27.13.02.38.06.55-.05.04-.02.14-.06.27-.11.03-.01.06-.01.09,0,.38.06.83.53,1.12.81.22.22.46.47.67.7.23.23.26.49.18.84,0,.01,0,.03.01.03.01,0,.02,0,.04,0Z"/>
      <path class="cls-2" d="m6.92,17.1c.08.04.23.09.4.09.26,0,.47-.1.52-.16,0,0,.03-.04.06-.05.03-.01.05,0,.07-.02,0,0,.02-.01.04-.03.06-.08-.84-.99-.92-.92-.02.02-.03.04-.03.04-.01.03,0,.05-.02.07-.02.04-.05.06-.05.06-.06.05-.17.27-.16.52,0,.17.05.31.09.4Z"/>
      <path class="cls-2" d="m11.05,18.35c.02-.09.27-.02.54-.22.18-.13.35-.37.34-.6,0-.04,0-.03-.12-.36-.06-.18-.09-.27-.12-.36-.04-.15-.05-.27-.06-.4-.01-.14-.03-.38-.01-.65.03-.59.19-1.17.42-1.72.1-.23.21-.45.35-.66.12-.19.31-.48.65-.76.18-.16.36-.26.48-.33-.3.44-.6.89-.81,1.38-.22.56-.35,1.14-.4,1.73-.02.28,0,.57.03.85.02.11.07.28.12.41.05.13.12.27.17.41.12.36.13,1-.26,1.33-.24.21-.54.21-.62.21-.36,0-.71-.18-.68-.29Z"/>
      <g>
        <path class="cls-2" d="m5.57,13.06c-.11.02-.32-.44-.25-.83,0-.02,0-.04.01-.05.03-.11.1-.34.31-.52.42-.37,1.06-.23,1.35-.16.43.09.39.25.83.31.43.07.92.07,1.37,0,.48-.07.96-.19,1.41-.38.39-.17.67-.35.83-.46,3.11-2.08,5.21-4.71,5.21-4.71.27-.33.47-.61.57-.74.04.14.08.37.04.65-.03.27-.12.47-.18.6-.81,1.01-1.57,1.8-2.18,2.39-.92.89-1.52,1.42-2.76,2.25-.41.28-.86.56-1.31.76-.24.11-.5.19-.76.25-.23.06-.8.19-1.56.19-.37,0-.65,0-.98-.09-.33-.09-.5-.14-.65-.23-.03-.02-.11-.06-.23-.1-.06-.02-.16-.04-.27-.03-.13.02-.21.07-.28.11-.18.11-.28.26-.32.32-.17.27-.11.46-.18.47Z"/>
        <g>
          <path class="cls-2" d="m7.83,11.77c-.08-.21.4-.58.59-.73.78-.59,1.67-.78,1.71-.69.04.08-.71.22-1.17.93-.16.25-.22.47-.47.58-.26.11-.61.05-.67-.1Z"/>
          <path class="cls-2" d="m12.4,16.35c.21.08.58-.4.73-.59.59-.78.78-1.67.69-1.71-.08-.04-.22.71-.94,1.17-.25.16-.47.22-.58.47-.11.26-.05.61.1.67Z"/>
        </g>
      </g>
    </g>
  </g>
  <path class="cls-2" d="m7.99,8.78c1.02-1.2,2.03-2.41,3.05-3.61h-2.21c-.17-.2-.33-.41-.5-.61,1.36,0,2.71,0,4.07-.01-.14.15-.28.29-.41.44-1.14,1.24-2.19,2.49-3.14,3.73,1.2,0,2.39-.01,3.59-.02-.27.19-.54.38-.81.57-1.26,0-2.52.01-3.78.02.05-.17.1-.34.15-.5Z"/>
</svg>