<?xml version="1.0" encoding="UTF-8" standalone="no"?>
<!DOCTYPE svg PUBLIC "-//W3C//DTD SVG 1.1//EN" "http://www.w3.org/Graphics/SVG/1.1/DTD/svg11.dtd">
<svg width="100%" height="100%" viewBox="0 0 24 24" version="1.1" xmlns="http://www.w3.org/2000/svg" xmlns:xlink="http://www.w3.org/1999/xlink" xml:space="preserve" xmlns:serif="http://www.serif.com/" style="fill-rule:evenodd;clip-rule:evenodd;stroke-linejoin:round;stroke-miterlimit:2;">
    <circle id="Ellipse_601" cx="12" cy="18" r="2" style="fill:rgb(255,239,0);"/>
    <g id="Group_8825">
        <path id="Path_18883" d="M10,4.15C6.99,4.55 4.17,5.87 1.92,7.91L3.27,9.39C5.15,7.68 7.49,6.56 10,6.17L10,4.15Z" style="fill:rgb(255,239,0);fill-rule:nonzero;"/>
        <path id="Path_18884" d="M14,4.15L14,6.17C16.51,6.56 18.85,7.68 20.73,9.39L22.08,7.91C19.83,5.86 17.01,4.55 14,4.15Z" style="fill:rgb(255,239,0);fill-rule:nonzero;"/>
    </g>
    <g id="Group_8826">
        <path id="Path_18885" d="M10,8.19C7.99,8.57 6.12,9.5 4.61,10.87L5.96,12.35C7.1,11.31 8.5,10.58 10.01,10.24L10.01,8.19L10,8.19Z" style="fill:rgb(255,239,0);fill-rule:nonzero;"/>
        <path id="Path_18886" d="M14,8.19L14,10.24C15.51,10.58 16.9,11.31 18.05,12.35L19.4,10.87C17.89,9.49 16.02,8.56 14.01,8.19L14,8.19Z" style="fill:rgb(255,239,0);fill-rule:nonzero;"/>
    </g>
    <g id="Group_8827">
        <path id="Path_18887" d="M10,12.3C9,12.6 8.07,13.12 7.3,13.83L8.65,15.31C9.05,14.95 9.51,14.67 10,14.46L10,12.3Z" style="fill:rgb(255,239,0);fill-rule:nonzero;"/>
        <path id="Path_18888" d="M14,12.3L14,14.46C14.5,14.66 14.96,14.95 15.36,15.31L16.7,13.83C15.93,13.13 15,12.6 14,12.3Z" style="fill:rgb(255,239,0);fill-rule:nonzero;"/>
    </g>
    <path id="Path_18889" d="M11,3L11,14.15C11.66,14.02 12.34,14.02 13,14.15L13,3L11,3Z" style="fill:rgb(255,239,0);fill-rule:nonzero;"/>
</svg>
