<?xml version="1.0" encoding="UTF-8"?>
<svg id="Layer_1" data-name="Layer 1" xmlns="http://www.w3.org/2000/svg" viewBox="0 0 24 31">
  <defs>
    <style>
      .cls-1 {
        fill: #ffcc08;
      }
    </style>
  </defs>
  <path class="cls-1" d="m21.7,22.6l-3-1.6,2.7-.5c.5,0,.8-.5.5-1.1,0-.5-.5-.8-1.1-.5l-4.3,1.1-3-1.6,3-1.6,4.3,1.1h.3c.3,0,.8-.3.8-.5,0-.5-.3-.8-.5-1.1l-2.7-.5,3-1.6c.5-.3.5-.8.3-1.1-.3-.3-.8-.5-1.1-.3l-3,1.6.8-2.4c0-.5-.3-.8-.5-1.1-.5,0-1.1.3-1.1.5l-1.1,3.9-3,1.6v-3.3l3.3-3c.3-.3.3-.8,0-1.1-.3-.3-.8-.3-1.4,0l-1.8,2v-3.2c0-.5-.3-.8-.8-.8s-.8.3-.8.8v3.2l-2.2-2.1c-.3-.3-.8-.3-1.4,0-.3.3-.3.8,0,1.1l3.3,3v3.3l-3-1.6-1.1-4.1c0-.5-.5-.8-1.1-.5-.5,0-.8.5-.5,1.1l.8,2.4-3-1.6c-.5-.3-1.1,0-1.1.3-.3.3,0,.8.3,1.1l3,1.6-2.7.5c-.5,0-.8.5-.5,1.1-.1.1.5.4.7.4h.3l4.3-1.1,3,1.6-3,1.6-4.3-1.1c-.5,0-1.1.3-1.1.5,0,.5.3.8.5,1.1l2.7.5-3,1.6c-.5.3-.5.8-.3,1.1.3.3.5.5.8.5h.5l2.7-1.6-.8,2.7c0,.5.3.8.5,1.1h.3c.3,0,.8-.3.8-.5l1.1-4.1,3-1.6v3.3l-3.3,3c-.3.3-.3.8,0,1.1s.8.3,1.4,0l1.9-1.9v3.3c0,.5.3.8.8.8s.8-.3.8-.8v-3.3l1.9,1.9q.5.3.7.3c.3,0,.5,0,.5-.3.3-.3.3-.8,0-1.1l-3.3-3v-3.5l3,1.6,1.1,4.1c0,.3.5.5.8.5h.3c.5,0,.8-.5.5-1.1v-2.4l3,1.6h.5c.3,0,.5-.3.8-.5.2.1-.1-.5-.7-.8Z"/>
</svg>