<?xml version="1.0" encoding="UTF-8"?>
<svg id="Capa_22" data-name="Capa 22" xmlns="http://www.w3.org/2000/svg" viewBox="0 0 21.99 21.98">
  <defs>
    <style>
      .cls-1, .cls-2 {
        fill: #ffef00;
      }

      .cls-2 {
        fill-rule: evenodd;
      }
    </style>
  </defs>
  <g id="Master-Active">
    <g id="Group-2">
      <path id="Path_18873" data-name="Path 18873" class="cls-1" d="m20.41,15.35c.39-1.08.59-2.22.58-3.37-.02-4.38-2.88-8.24-7.06-9.56-.28-1.41-1.51-2.42-2.94-2.42s-2.67,1.02-2.94,2.42c-2.61.8-4.78,2.64-6,5.08s-1.39,5.28-.48,7.85C.54,15.91-.08,17.02,0,18.2c.08,1.17.85,2.19,1.95,2.6,1.11.41,2.35.13,3.17-.71,3.5,2.54,8.23,2.54,11.72,0,.82.85,2.07,1.13,3.17.73,1.11-.41,1.88-1.42,1.96-2.6.08-1.18-.54-2.29-1.58-2.85h0ZM10.99,1.98c.55,0,1,.45,1,1s-.45,1-1,1-1-.45-1-1,.45-1,1-1ZM2.99,18.98c-.55,0-1-.45-1-1s.45-1,1-1,1,.45,1,1-.45,1-1,1Zm8,1c-1.83,0-3.6-.63-5.02-1.78,0-.07.02-.14.02-.22,0-1.42-.99-2.64-2.38-2.93-.85-2.03-.83-4.33.08-6.35.9-2.01,2.6-3.56,4.69-4.28.52.96,1.52,1.56,2.61,1.56s2.09-.6,2.61-1.56c3.21,1.13,5.37,4.15,5.39,7.56,0,1.05-.21,2.1-.62,3.07-1.39.29-2.38,1.52-2.38,2.93,0,.07.02.14.02.22-1.42,1.15-3.19,1.78-5.02,1.78Zm8-1c-.55,0-1-.45-1-1s.45-1,1-1,1,.45,1,1-.45,1-1,1Z"/>
      <polygon id="Path_18874" data-name="Path 18874" class="cls-2" points="15.99 15.98 15.99 7.63 10.99 11.69 5.99 7.63 5.99 15.98 7.99 15.98 7.99 11.83 10.99 14.27 13.99 11.83 13.99 15.98 15.99 15.98"/>
    </g>
  </g>
</svg>