<?xml version="1.0" encoding="UTF-8"?>
<svg id="Capa_41" data-name="Capa 41" xmlns="http://www.w3.org/2000/svg" viewBox="0 0 22 22">
  <defs>
    <style>
      .cls-1 {
        fill: #ffef00;
      }
    </style>
  </defs>
  <g id="Artboard">
    <g id="ic_settings-active" data-name="ic settings-active">
      <g id="Group_8818" data-name="Group 8818">
        <g id="Group_8816" data-name="Group 8816">
          <path id="Path_18871" data-name="Path 18871" class="cls-1" d="m13.9,22h-5.8l-.31-3.14-.07-.03-2.44,2-4.11-4.11,2-2.44-.03-.07-3.14-.32v-5.8l3.13-.31.03-.07-2-2.44L5.28,1.17l2.44,2,.07-.03.32-3.14h5.8l.31,3.14.07.03,2.44-2,4.11,4.11-2,2.44.03.07,3.14.32v5.8l-3.14.31-.03.07,2,2.44-4.11,4.11-2.44-2-.07.03-.32,3.15Zm-4-2h2.2l.26-2.61.63-.2c.34-.11.67-.25.99-.41l.58-.3,2.03,1.66,1.55-1.55-1.66-2.03.3-.58c.17-.32.3-.65.41-.99l.2-.62,2.61-.26v-2.2l-2.61-.26-.2-.62c-.11-.34-.25-.67-.41-.99l-.3-.58,1.66-2.03-1.55-1.55-2.03,1.66-.58-.3c-.32-.17-.65-.3-.99-.41l-.63-.2-.26-2.61h-2.2l-.26,2.61-.63.2c-.34.11-.67.25-.99.41l-.58.3-2.03-1.66-1.55,1.55,1.66,2.04-.3.58c-.17.32-.3.65-.41.99l-.2.62-2.61.26v2.2l2.61.26.2.62c.11.34.25.67.41.99l.3.58-1.66,2.03,1.55,1.55,2.03-1.66.58.3c.32.17.65.3.99.41l.63.2.26,2.61Z"/>
        </g>
        <g id="Group_8817" data-name="Group 8817">
          <path id="Path_18872" data-name="Path 18872" class="cls-1" d="m11,15c-2.21,0-4-1.79-4-4s1.79-4,4-4,4,1.79,4,4c0,1.06-.42,2.08-1.17,2.83-.75.75-1.77,1.17-2.83,1.17Zm0-6c-1.1,0-2,.9-2,2s.9,2,2,2,2-.9,2-2-.9-2-2-2Z"/>
        </g>
      </g>
    </g>
  </g>
</svg>