<?xml version="1.0" encoding="UTF-8" standalone="no"?>
<!DOCTYPE svg PUBLIC "-//W3C//DTD SVG 1.1//EN" "http://www.w3.org/Graphics/SVG/1.1/DTD/svg11.dtd">
<svg width="100%" height="100%" viewBox="0 0 44 46" version="1.1" xmlns="http://www.w3.org/2000/svg" xmlns:xlink="http://www.w3.org/1999/xlink" xml:space="preserve" xmlns:serif="http://www.serif.com/" style="fill-rule:evenodd;clip-rule:evenodd;">
    <path d="M34.92,25.07C34.92,21.852 32.308,19.24 29.09,19.24L14.9,19.24C11.682,19.24 9.07,21.852 9.07,25.07L9.07,34.21C9.07,37.428 11.682,40.04 14.9,40.04L29.09,40.04C32.308,40.04 34.92,37.428 34.92,34.21L34.92,25.07Z" style="fill:rgb(246,192,44);"/>
    <path d="M14.14,22.09L14.05,15C15.18,11.85 18.12,9.71 21.41,9.64C24.51,9.57 27.4,11.35 28.77,14.19L28.77,22.37" style="fill:none;fill-rule:nonzero;stroke:rgb(246,192,44);stroke-width:2.83px;"/>
    <path d="M19.4,28.78C20,29.65 20.6,30.53 21.2,31.4C23.13,29.68 25.07,27.96 27,26.24" style="fill:none;fill-rule:nonzero;stroke:white;stroke-width:1.41px;stroke-linecap:round;"/>
</svg>
