<?xml version="1.0" encoding="UTF-8"?>
<svg id="Capa_48" data-name="Capa 48" xmlns="http://www.w3.org/2000/svg" viewBox="0 0 37 20">
  <defs>
    <style>
      .cls-1 {
        fill: #fc6;
        fill-rule: evenodd;
      }

      .cls-2 {
        fill: #c93;
      }
    </style>
  </defs>
  <g id="switch_on" data-name="switch on">
    <path id="switch_path" data-name="switch path" class="cls-1" d="m34,10.22c.02,3.84-3.07,6.98-6.91,7-.03,0-.06,0-.09,0H7C3.16,17.25.02,14.15,0,10.31c0-.03,0-.06,0-.09C-.02,6.38,3.07,3.25,6.91,3.22c.03,0,.06,0,.09,0h20c3.84-.02,6.98,3.07,7,6.91,0,.03,0,.06,0,.09Z"/>
    <path id="switch_button-2" data-name="switch button-2" class="cls-2" d="m27,0c5.52,0,10,4.48,10,10s-4.48,10-10,10-10-4.48-10-10S21.48,0,27,0Z"/>
  </g>
</svg>