<?xml version="1.0" encoding="UTF-8" standalone="no"?>
<!DOCTYPE svg PUBLIC "-//W3C//DTD SVG 1.1//EN" "http://www.w3.org/Graphics/SVG/1.1/DTD/svg11.dtd">
<svg width="100%" height="100%" viewBox="0 0 24 24" version="1.1" xmlns="http://www.w3.org/2000/svg" xmlns:xlink="http://www.w3.org/1999/xlink" xml:space="preserve" xmlns:serif="http://www.serif.com/" style="fill-rule:evenodd;clip-rule:evenodd;stroke-linejoin:round;stroke-miterlimit:2;">
    <g>
        <path d="M10.2,5.8L9.6,4.8C9.5,4.5 9.2,4.2 8.9,4.1C8.8,4.1 8.6,4 8.5,4C8.3,4 8.1,4 8,4.1C7.3,4.5 7,5.2 7.3,5.8L10.2,5.8Z" style="fill:none;fill-rule:nonzero;"/>
        <path d="M16.9,4.9C16.8,4.6 16.5,4.3 16.2,4.2C16,4.1 15.6,4 15.3,4.1C15,4.2 14.7,4.4 14.5,4.7L13.9,5.7L16.8,5.7C17,5.5 17,5.2 16.9,4.9Z" style="fill:none;fill-rule:nonzero;"/>
        <rect x="5.9" y="10.1" width="12.3" height="9.6" style="fill:none;"/>
        <path d="M22.2,5.8L18.9,5.8C19,5.3 19,4.8 18.8,4.3C18.5,3.6 18,3 17.2,2.6C16.4,2.2 15.5,2.1 14.7,2.4C13.9,2.7 13.2,3.2 12.8,3.9L12.1,5L11.4,3.8C11,3.2 10.3,2.7 9.5,2.4C8.6,2.1 7.7,2.2 7,2.6C5.6,3.2 5,4.5 5.2,5.8L1.9,5.8L1.9,10.2L3.8,10.2L3.9,22L20.2,22L20.1,10.2L22.2,10.2L22.2,5.8ZM14.5,4.7C14.7,4.4 15,4.2 15.3,4.1C15.6,4 16,4.1 16.3,4.2C16.6,4.4 16.9,4.6 17,4.9C17,5.2 17,5.5 16.9,5.8L14,5.8L14.5,4.7ZM7.9,4.2C8.1,4.1 8.2,4.1 8.4,4.1C8.5,4.1 8.7,4.1 8.8,4.2C9.1,4.3 9.4,4.5 9.6,4.8L10.2,5.8L7.3,5.8C7,5.2 7.3,4.5 7.9,4.2ZM18.2,19.7L5.9,19.7L5.9,10.1L18.2,10.1L18.2,19.7ZM20.6,8.8L3.6,8.8L3.6,7.1L20.6,7.1L20.6,8.8Z" style="fill:rgb(182,182,182);fill-rule:nonzero;"/>
    </g>
    <path d="M13.7,13.2C12.8,12.1 11.7,11.3 11.2,10.9C10.8,10.6 10.8,10.9 10.8,11C10.9,11.5 11.1,12.5 9.7,14.1C8,16.4 9.2,18 10.4,18.8C10.9,19.2 11.6,19.1 11.6,19.1C11.7,19.1 11.9,19.1 11.9,19C11.2,18.6 9.6,17.4 11.8,14.2C11.8,14.2 11.7,15.4 12.2,15.8C12.5,15.9 13,15.4 13,15.4C13,15.4 14.1,17.7 12.5,18.7C12.4,18.7 12.4,18.8 12.2,18.8C12.3,18.9 12.5,18.9 12.5,18.9C13.3,18.9 14.2,18.4 14.8,17.2C15.6,15.9 14.8,14.3 13.7,13.2Z" style="fill:rgb(182,182,182);fill-rule:nonzero;"/>
</svg>
