<?xml version="1.0" encoding="UTF-8" standalone="no"?>
<!DOCTYPE svg PUBLIC "-//W3C//DTD SVG 1.1//EN" "http://www.w3.org/Graphics/SVG/1.1/DTD/svg11.dtd">
<svg width="100%" height="100%" viewBox="0 0 24 24" version="1.1" xmlns="http://www.w3.org/2000/svg" xmlns:xlink="http://www.w3.org/1999/xlink" xml:space="preserve" xmlns:serif="http://www.serif.com/" style="fill-rule:evenodd;clip-rule:evenodd;stroke-linejoin:round;stroke-miterlimit:2;">
    <g transform="matrix(1,0,0,1,-2,-2)">
        <g id="Group_8292">
            <path id="Path_18418" d="M14,18C11.806,18 10,16.194 10,14C10,11.806 11.806,10 14,10C16.194,10 18,11.806 18,14C18,14.013 18,14.026 18,14.039C18,16.212 16.212,18 14.039,18C14.026,18 14.013,18 14,18ZM14,11.6C12.683,11.6 11.6,12.683 11.6,14C11.6,15.317 12.683,16.4 14,16.4C15.317,16.4 16.4,15.317 16.4,14C16.4,13.986 16.4,13.971 16.4,13.957C16.4,12.664 15.336,11.6 14.043,11.6C14.029,11.6 14.014,11.6 14,11.6Z" style="fill-opacity:0.7;fill-rule:nonzero;"/>
        </g>
    </g>
    <g transform="matrix(1,0,0,1,0,-2)">
        <g id="Group_8293">
            <path id="Path_18419" d="M12,22C7.438,22 3.663,19.422 1.068,14.444C0.912,14.169 0.912,13.83 1.068,13.555C3.663,8.578 7.438,6 12,6C16.562,6 20.337,8.578 22.932,13.556C23.088,13.831 23.088,14.17 22.932,14.445C20.337,19.422 16.562,22 12,22ZM2.72,14C4.293,16.933 7.2,20.222 12,20.222C16.8,20.222 19.707,16.933 21.28,14C19.707,11.067 16.8,7.778 12,7.778C7.2,7.778 4.293,11.067 2.72,14Z" style="fill-opacity:0.7;fill-rule:nonzero;"/>
        </g>
    </g>
</svg>
