<?xml version="1.0" encoding="UTF-8"?>
<svg id="Capa_1" data-name="Capa 1" xmlns="http://www.w3.org/2000/svg" viewBox="0 0 100 100">
  <defs>
    <style>
      .cls-1 {
        fill: #b68e21;
      }

      .cls-2 {
        fill: #ffe092;
      }
    </style>
  </defs>
  <circle id="Ellipse_612" data-name="Ellipse 612" class="cls-2" cx="69.15" cy="80.22" r="6.77"/>
  <path id="Rectangle_4658" data-name="Rectangle 4658" class="cls-2" d="m41,28h18v18h-18v-18Z"/>
  <path id="Rectangle_4659" data-name="Rectangle 4659" class="cls-1" d="m81,58h2v4h-2v-4Z"/>
  <path id="Path_18967" data-name="Path 18967" class="cls-1" d="m81,91H19v-7h-2v9h66v-27h-2v25Z"/>
  <path id="Rectangle_4660" data-name="Rectangle 4660" class="cls-1" d="m17,76h2v4h-2v-4Z"/>
  <path id="Path_18968" data-name="Path 18968" class="cls-1" d="m80,27v2h7v16h-27v-16h16v-2h-9.7c4.98-3.47,6.2-10.33,2.72-15.3-3.47-4.98-10.33-6.2-15.3-2.72-1.62,1.13-2.9,2.67-3.72,4.47-2.51-5.53-9.02-7.98-14.55-5.47-5.53,2.51-7.98,9.02-5.47,14.55.82,1.8,2.1,3.34,3.72,4.47H11v20h6v25h2v-25h62v7h2v-7h6v-20h-9Zm-20-18c4.97,0,9,4.03,9,9s-4.03,9-9,9h-9v-9c0-4.97,4.03-8.99,9-9Zm-29,9c0-4.97,4.03-9,9-9s9,4.03,9,9v9h-9c-4.97,0-8.99-4.03-9-9Zm-14,27h-4v-16h27v16h-23Zm25,0v-16h16v16h-16Z"/>
  <path id="Path_18969" data-name="Path 18969" class="cls-1" d="m71.57,73.39v1.03c3.21,1.34,4.72,5.02,3.39,8.22s-5.02,4.72-8.22,3.39-4.72-5.02-3.39-8.22c.64-1.53,1.85-2.75,3.39-3.39v-1.03c-3.78,1.34-5.76,5.48-4.42,9.26s5.48,5.76,9.26,4.42,5.76-5.48,4.42-9.26c-.73-2.07-2.36-3.69-4.42-4.42Z"/>
  <path id="Rectangle_4661" data-name="Rectangle 4661" class="cls-1" d="m68.67,71.52h.97v9.67h-.97v-9.67Z"/>
  <path class="cls-1" d="m30.61,71.08c.72-.72,1.79-.9,2.69-.36.9.36,1.44.9,2.15,1.44,1.08.9,2.33,2.15,2.33,3.77v.54c0,.36-.36.54-.36.9-.18.36-.36.9-.36,1.26,0,.54.18,1.08.36,1.62h-.18c-.18,0-.54-.36-.54-.36-.36-.72-.54-1.08-.72-1.44,0-.36-.18-.9.18-1.44,0,0,.18-.36.36-.72v-.18c-.18-.9-1.26-1.97-1.97-2.69-.54-.54-1.26-1.08-1.79-1.62-.54-.72-1.08-.9-2.15-.72.18.18,0,.18,0,0h0Z"/>
  <path class="cls-1" d="m48.38,88.84c.72-.72.9-1.79.36-2.69-.36-.9-.9-1.44-1.44-2.15-.9-1.08-2.15-2.33-3.77-2.33h-.54c-.36,0-.54.36-.9.36-.36.18-.9.36-1.26.36-.54,0-1.08-.18-1.62-.36v.18h0c0,.18.36.54.36.54.72.36,1.08.54,1.44.72.36,0,.9.18,1.44-.18,0,0,.36-.18.72-.36h.18c.9.18,1.97,1.26,2.69,1.97.54.54,1.08,1.26,1.62,1.79.9.54.9,1.26.72,2.15h0Z"/>
  <path class="cls-1" d="m39.76,79.87c.18,0,.54.18.9.18.54,0,1.26-.18,1.26-.36l.18-.18h.18c.18-.18-2.15-2.51-2.33-2.33h0v.18l-.18.18c-.18.18-.36.72-.36,1.26.18.36.18.72.36,1.08h0Z"/>
  <path class="cls-1" d="m49.99,82.92c0-.18.72,0,1.44-.54.36-.36.9-.9.9-1.44,0-.18,0,0-.36-.9-.18-.36-.18-.72-.36-.9,0-.36-.18-.72-.18-.9v-1.62c0-1.44.54-2.87,1.08-4.31.18-.54.54-1.08.9-1.62.36-.54.72-1.26,1.62-1.79.36-.36.9-.72,1.26-.9-.72,1.08-1.44,2.15-1.97,3.41-.54,1.44-.9,2.87-.9,4.31v2.15c0,.36.18.72.36,1.08.18.36.36.72.36,1.08.36.9.36,2.51-.72,3.23-.54.54-1.26.54-1.62.54-.9-.18-1.79-.72-1.79-.9h0Z"/>
  <path class="cls-1" d="m36.36,69.82c-.36,0-.72-1.08-.54-2.15v-.18c0-.36.18-.9.72-1.26,1.08-.9,2.69-.54,3.41-.36,1.08.18.9.54,2.15.72,1.08.18,2.33.18,3.41,0,1.26-.18,2.33-.54,3.59-.9.9-.36,1.62-.9,2.15-1.08,7.72-5.2,12.92-11.67,12.92-11.67.72-.9,1.26-1.44,1.44-1.79,0,.36.18.9.18,1.62s-.36,1.08-.36,1.44c-1.97,2.51-3.95,4.49-5.38,5.92-2.33,2.15-3.77,3.59-6.82,5.56-1.08.72-2.15,1.44-3.23,1.79-.54.36-1.26.54-1.79.54-.54.18-1.97.54-3.95.54-.9,0-1.62,0-2.51-.18s-1.26-.36-1.62-.54c0,0-.36-.18-.54-.18s-.36-.18-.72,0c-.36,0-.54.18-.72.36l-.72.72c-.9.54-.9,1.08-1.08,1.08h0Z"/>
  <path class="cls-1" d="m42.1,66.59c-.18-.54,1.08-1.44,1.44-1.79,1.97-1.44,4.13-1.97,4.31-1.79,0,.18-1.79.54-2.87,2.33-.36.54-.54,1.26-1.08,1.44-.9.36-1.79.18-1.79-.18Z"/>
  <path class="cls-1" d="m53.4,77.9c.54.18,1.44-1.08,1.79-1.44,1.44-1.97,1.97-4.13,1.79-4.31-.18,0-.54,1.79-2.33,2.87-.54.36-1.26.54-1.44,1.08-.36.72-.18,1.62.18,1.79Z"/>
</svg>