<?xml version="1.0" encoding="UTF-8"?>
<svg id="Capa_36" data-name="Capa 36" xmlns="http://www.w3.org/2000/svg" viewBox="0 0 100 100">
  <defs>
    <style>
      .cls-1 {
        fill: #b68e21;
      }

      .cls-2 {
        fill: #ffe092;
      }
    </style>
  </defs>
  <g id="Group_9031" data-name="Group 9031">
    <g id="Group_9029" data-name="Group 9029">
      <path id="Rectangle_4683" data-name="Rectangle 4683" class="cls-2" d="m45,18h10v9h-10v-9Z"/>
      <g id="Group_9028" data-name="Group 9028">
        <path id="Rectangle_4684" data-name="Rectangle 4684" class="cls-2" d="m14,66h6v10h-6v-10Z"/>
        <path id="Rectangle_4685" data-name="Rectangle 4685" class="cls-2" d="m80,66h6v10h-6v-10Z"/>
        <path id="Rectangle_4686" data-name="Rectangle 4686" class="cls-2" d="m47,66h6v10h-6v-10Z"/>
      </g>
    </g>
    <g id="Group_9030" data-name="Group 9030">
      <path id="Rectangle_4688" data-name="Rectangle 4688" class="cls-1" d="m67,40h2v4h-2v-4Z"/>
      <circle id="Ellipse_626" data-name="Ellipse 626" class="cls-1" cx="50" cy="73" r="1"/>
      <circle id="Ellipse_627" data-name="Ellipse 627" class="cls-1" cx="83" cy="73" r="1"/>
      <path id="Rectangle_4689" data-name="Rectangle 4689" class="cls-1" d="m32,58h4v2h-4v-2Z"/>
      <path id="Path_18986" data-name="Path 18986" class="cls-1" d="m16,65h-3v3h-6v4h2v-2h4v7h8v-7h4v21H9v-15h-2v17h20v-25h-6v-3h-3v-5h10v-2h-12v7Zm3,2v8h-4v-8h4Z"/>
      <circle id="Ellipse_628" data-name="Ellipse 628" class="cls-1" cx="17" cy="73" r="1"/>
      <path id="Path_18987" data-name="Path 18987" class="cls-1" d="m87,68v-3h-3v-7h-33v-5h18v-5h-2v3h-34v-23h34v8h2v-8h4v-11h-13.54c2.21-2.46,2.01-6.25-.45-8.46-2.46-2.21-6.25-2.01-8.46.45-.2.22-.38.45-.54.7-1.82-2.77-5.54-3.53-8.3-1.71-2.77,1.82-3.53,5.54-1.71,8.3.17.25.35.5.56.72h-13.54v11h4v25h18v5h-9v2h9v5h-3v3h-6v16h2v-14h4v7h8v-7h4v21h-16v-3h-2v5h20v-25h-6v-3h-3v-5h31v5h-3v3h-6v12h2v-10h4v7h8v-7h4v21h-16v-7h-2v9h20v-25h-6Zm-16-49v7h-15v-7h15Zm-20-6c0-2.21,1.79-4,4-4s4,1.79,4,4-1.79,4-4,4h-4v-4Zm0,6h3v7h-8v-7h5Zm-6-10c2.21,0,4,1.79,4,4v4h-4c-2.21,0-4-1.79-4-4s1.79-4,4-4Zm-16,17v-7h15v7h-15Zm23,41v8h-4v-8h4Zm33,8h-4v-8h4v8Z"/>
      <g>
        <path class="cls-1" d="m40.33,39.81c.44-.38,1-.47,1.49-.24.45.21.85.5,1.23.81.58.49,1.32,1.21,1.31,2.06,0,.09-.01.18-.04.27-.04.17-.16.34-.25.48-.13.21-.18.46-.19.7,0,.33.08.64.22.93-.03.03-.05.04-.08.04,0,0,0,0,0,0-.12,0-.27-.25-.27-.25-.22-.38-.33-.57-.37-.78-.03-.18-.08-.52.07-.76.03-.05.08-.19.15-.37.02-.05.01-.09,0-.13-.09-.53-.73-1.14-1.11-1.54-.3-.3-.65-.63-.96-.92-.32-.31-.68-.37-1.15-.24-.02,0-.04,0-.05-.02-.01-.01-.01-.03,0-.05Z"/>
        <path class="cls-1" d="m50.25,49.73c.38-.44.47-1,.24-1.49-.21-.45-.5-.85-.81-1.23-.49-.58-1.21-1.32-2.06-1.31-.09,0-.18.01-.27.04-.17.04-.34.16-.48.25-.21.13-.46.18-.7.19-.33,0-.64-.08-.93-.22-.03.03-.04.05-.04.08,0,0,0,0,0,0,0,.12.25.27.25.27.38.22.57.33.78.37.18.03.52.08.76-.07.05-.03.19-.08.37-.15.05-.02.09-.01.13,0,.53.09,1.14.73,1.54,1.11.3.3.63.65.92.96.31.32.37.68.24,1.15,0,.02,0,.04.02.05.01.01.03.01.05,0Z"/>
        <path class="cls-1" d="m45.4,44.66c.12.05.31.13.55.13.35,0,.66-.14.72-.23,0,0,.04-.05.09-.07.03-.02.06,0,.1-.02,0,0,.03-.02.05-.05.08-.12-1.16-1.36-1.28-1.28-.03.02-.05.05-.05.05-.02.04,0,.07-.02.1-.03.05-.07.08-.07.09-.09.06-.23.37-.23.72,0,.24.08.43.13.55Z"/>
        <path class="cls-1" d="m51.1,46.38c.02-.12.38-.03.75-.3.25-.18.48-.51.47-.83,0-.06-.01-.04-.17-.5-.09-.25-.13-.37-.16-.5-.05-.21-.07-.37-.09-.55-.02-.19-.04-.52-.02-.89.04-.82.26-1.62.59-2.38.14-.31.29-.62.48-.9.17-.26.43-.66.9-1.05.25-.21.49-.36.66-.46-.41.61-.82,1.23-1.11,1.91-.3.77-.48,1.58-.55,2.39-.02.39,0,.79.04,1.18.03.16.09.39.16.56.07.19.16.37.23.57.16.5.18,1.38-.36,1.84-.34.29-.74.29-.86.3-.5.01-.97-.25-.94-.39Z"/>
        <g>
          <path class="cls-1" d="m43.53,39.08c-.15.02-.44-.61-.34-1.15,0-.03.01-.05.01-.07.04-.16.14-.47.42-.72.58-.51,1.47-.31,1.87-.23.59.13.54.34,1.15.43.59.09,1.27.1,1.89,0,.66-.1,1.33-.26,1.95-.52.54-.23.92-.48,1.15-.63,4.29-2.87,7.19-6.5,7.19-6.5.37-.46.65-.84.79-1.03.05.19.1.51.06.89-.04.37-.16.65-.25.83-1.11,1.39-2.16,2.49-3.01,3.3-1.27,1.22-2.09,1.96-3.81,3.11-.57.38-1.18.78-1.81,1.05-.34.15-.69.26-1.05.34-.31.08-1.11.26-2.15.26-.51,0-.9,0-1.36-.13-.46-.13-.68-.19-.89-.31-.04-.02-.15-.09-.32-.13-.09-.02-.22-.06-.38-.04-.17.02-.29.09-.39.15-.25.15-.39.36-.44.44-.23.37-.16.64-.25.65Z"/>
          <g>
            <path class="cls-1" d="m46.65,37.31c-.12-.3.56-.81.82-1,1.07-.81,2.31-1.08,2.36-.95.05.12-.98.31-1.61,1.29-.22.35-.3.65-.64.8-.35.15-.84.07-.93-.14Z"/>
            <path class="cls-1" d="m52.96,43.62c.3.11.81-.56,1-.82.81-1.07,1.08-2.31.95-2.36-.12-.05-.31.98-1.29,1.61-.35.22-.65.3-.8.64-.15.35-.07.84.14.93Z"/>
          </g>
        </g>
      </g>
    </g>
  </g>
</svg>