<?xml version="1.0" encoding="UTF-8" standalone="no"?>
<!DOCTYPE svg PUBLIC "-//W3C//DTD SVG 1.1//EN" "http://www.w3.org/Graphics/SVG/1.1/DTD/svg11.dtd">
<svg width="100%" height="100%" viewBox="0 0 100 100" version="1.1" xmlns="http://www.w3.org/2000/svg" xmlns:xlink="http://www.w3.org/1999/xlink" xml:space="preserve" xmlns:serif="http://www.serif.com/" style="fill-rule:evenodd;clip-rule:evenodd;stroke-linejoin:round;stroke-miterlimit:2;">
    <ellipse id="Ellipse_640" cx="80" cy="56" rx="12" ry="4" style="fill:rgb(246,192,44);"/>
    <ellipse id="Ellipse_641" cx="64" cy="68" rx="12" ry="4" style="fill:rgb(246,192,44);"/>
    <rect id="Rectangle_4706" x="32" y="24" width="14" height="14" style="fill:rgb(246,192,44);fill-rule:nonzero;"/>
    <rect id="Rectangle_4707" x="12" y="60" width="2" height="4" style="fill:rgb(119,92,21);fill-rule:nonzero;"/>
    <path id="Path_19001" d="M92.05,57.99C92.63,57.49 92.98,56.76 93,56C93,52.72 86.46,51 80,51C73.54,51 67,52.72 67,56C67.03,56.77 67.37,57.49 67.95,57.99C66.85,58.88 66.67,60.5 67.57,61.61C67.68,61.75 67.81,61.88 67.95,61.99C67.61,62.31 67.35,62.7 67.18,63.14C66.79,63.11 66.4,63.08 66,63.06L66,39L71,39L71,23L52.64,23C56.51,19.89 57.12,14.23 54.01,10.36C50.9,6.49 45.24,5.88 41.37,8.99C40.38,9.78 39.57,10.78 39,11.91C36.74,7.49 31.32,5.73 26.9,7.99C22.48,10.25 20.72,15.67 22.98,20.09C23.56,21.22 24.37,22.22 25.36,23.01L7,23.01L7,39.01L12,39.01L12,56.01L14,56.01L14,39.01L64,39.01L64,63.01C57.54,63.01 51,64.73 51,68.01C51.03,68.78 51.37,69.5 51.95,70C50.85,70.89 50.67,72.51 51.57,73.62C51.68,73.76 51.81,73.89 51.95,74C51.65,74.29 51.4,74.63 51.22,75.01L14,75.01L14,68.01L12,68.01L12,77.01L51.23,77.01C51.41,77.38 51.65,77.72 51.95,78C50.85,78.89 50.67,80.51 51.57,81.62C51.68,81.76 51.81,81.89 51.95,82C50.85,82.89 50.67,84.51 51.57,85.62C51.68,85.76 51.81,85.89 51.95,86C51.37,86.51 51.02,87.23 51,88.01C51,91.29 57.54,93.01 64,93.01C69.87,93.01 75.8,91.59 76.83,88.86C77.87,88.95 78.94,89.01 80,89.01C86.46,89.01 93,87.29 93,84.01C92.98,83.24 92.63,82.51 92.05,82C93.15,81.11 93.33,79.49 92.43,78.38C92.32,78.24 92.19,78.11 92.05,78C93.15,77.11 93.33,75.49 92.43,74.38C92.32,74.24 92.19,74.11 92.05,74C93.15,73.11 93.33,71.49 92.43,70.38C92.32,70.24 92.19,70.11 92.05,70C93.15,69.11 93.33,67.49 92.43,66.38C92.32,66.24 92.19,66.11 92.05,66C93.15,65.11 93.33,63.49 92.43,62.38C92.32,62.24 92.19,62.11 92.05,62C93.15,61.11 93.33,59.49 92.43,58.38C92.32,58.24 92.19,58.11 92.05,58L92.05,57.99ZM31,36.99L9,36.99L9,24.99L31,24.99L31,36.99ZM24,15.99C24,12.12 27.13,8.99 31,8.99C34.87,8.99 38,12.12 38,15.99L38,22.99L31,22.99C27.14,22.99 24,19.85 24,15.99ZM45,36.99L33,36.99L33,24.99L45,24.99L45,36.99ZM40,22.99L40,15.99C40,12.12 43.13,8.99 47,8.99C50.87,8.99 54,12.12 54,15.99C54,19.86 50.87,22.99 47,22.99L40,22.99ZM47,36.99L47,24.99L69,24.99L69,36.99L47,36.99ZM51,75.99C51,76.16 51.02,76.34 51.06,76.5C51.02,76.33 51,76.16 51,75.99ZM64,90.99C56.88,90.99 53,89.01 53,87.99C53,87.75 53.25,87.45 53.68,87.14C56.18,88.36 60.1,88.99 64,88.99C67.9,88.99 71.82,88.36 74.32,87.14C74.75,87.45 75,87.75 75,87.99C75,89.01 71.12,90.99 64,90.99ZM64,86.99C56.88,86.99 53,85.01 53,83.99C53,83.75 53.25,83.45 53.68,83.14C56.18,84.36 60.1,84.99 64,84.99C67.9,84.99 71.82,84.36 74.32,83.14C74.75,83.45 75,83.75 75,83.99C75,85.01 71.12,86.99 64,86.99ZM64,82.99C56.88,82.99 53,81.01 53,79.99C53,79.75 53.25,79.45 53.68,79.14C56.18,80.36 60.1,80.99 64,80.99C67.9,80.99 71.82,80.36 74.32,79.14C74.75,79.45 75,79.75 75,79.99C75,81.01 71.12,82.99 64,82.99ZM64,78.99C56.88,78.99 53,77.01 53,75.99C53,75.75 53.25,75.45 53.68,75.14C56.18,76.36 60.1,76.99 64,76.99C67.9,76.99 71.82,76.36 74.32,75.14C74.75,75.45 75,75.75 75,75.99C75,77.01 71.12,78.99 64,78.99ZM64,74.99C56.88,74.99 53,73.01 53,71.99C53,71.75 53.25,71.45 53.68,71.14C56.18,72.36 60.1,72.99 64,72.99C67.9,72.99 71.82,72.36 74.32,71.14C74.75,71.45 75,71.75 75,71.99C75,73.01 71.12,74.99 64,74.99ZM64,70.99C56.88,70.99 53,69.01 53,67.99C53,66.97 56.88,64.99 64,64.99C71.12,64.99 75,66.97 75,67.99C75,69.01 71.12,70.99 64,70.99ZM80,86.99C78.79,86.99 77.7,86.92 76.69,86.82C76.52,86.51 76.3,86.23 76.05,85.98C76.39,85.66 76.66,85.26 76.83,84.83C77.87,84.93 78.93,84.99 80,84.99C83.9,84.99 87.82,84.36 90.32,83.14C90.75,83.45 91,83.75 91,83.99C91,85.01 87.12,86.99 80,86.99ZM80,82.99C78.79,82.99 77.7,82.92 76.69,82.82C76.52,82.51 76.3,82.23 76.05,81.98C76.39,81.66 76.66,81.26 76.83,80.83C77.87,80.93 78.93,80.99 80,80.99C83.9,80.99 87.82,80.36 90.32,79.14C90.75,79.45 91,79.75 91,79.99C91,81.01 87.12,82.99 80,82.99ZM80,78.99C78.79,78.99 77.7,78.92 76.69,78.82C76.52,78.51 76.3,78.23 76.05,77.98C76.39,77.66 76.66,77.26 76.83,76.83C77.87,76.93 78.93,76.99 80,76.99C83.9,76.99 87.82,76.36 90.32,75.14C90.75,75.45 91,75.75 91,75.99C91,77.01 87.12,78.99 80,78.99ZM80,74.99C78.79,74.99 77.7,74.92 76.69,74.82C76.52,74.51 76.3,74.23 76.05,73.98C76.39,73.66 76.66,73.26 76.83,72.83C77.87,72.93 78.93,72.99 80,72.99C83.9,72.99 87.82,72.36 90.32,71.14C90.75,71.45 91,71.75 91,71.99C91,73.01 87.12,74.99 80,74.99ZM80,70.99C78.79,70.99 77.7,70.92 76.69,70.82C76.52,70.51 76.3,70.23 76.05,69.98C76.39,69.66 76.66,69.26 76.83,68.83C77.87,68.93 78.93,68.99 80,68.99C83.9,68.99 87.82,68.36 90.32,67.14C90.75,67.45 91,67.75 91,67.99C91,69.01 87.12,70.99 80,70.99ZM80,66.99C78.8,66.99 77.71,66.92 76.7,66.82C76.08,65.66 74.52,64.76 72.49,64.12C74.95,64.71 77.47,65 80,64.99C83.9,64.99 87.82,64.36 90.32,63.14C90.75,63.45 91,63.75 91,63.99C91,65.01 87.12,66.99 80,66.99ZM69.37,63.41C69.47,63.31 69.57,63.22 69.68,63.14C70.27,63.42 70.88,63.65 71.51,63.84C70.8,63.67 70.09,63.52 69.37,63.41ZM80,62.99C72.88,62.99 69,61.01 69,59.99C69,59.75 69.25,59.45 69.68,59.14C72.18,60.36 76.1,60.99 80,60.99C83.9,60.99 87.82,60.36 90.32,59.14C90.75,59.45 91,59.75 91,59.99C91,61.01 87.12,62.99 80,62.99ZM80,58.99C72.88,58.99 69,57.01 69,55.99C69,54.97 72.88,52.99 80,52.99C87.12,52.99 91,54.97 91,55.99C91,57.01 87.12,58.99 80,58.99Z" style="fill:rgb(119,92,21);fill-rule:nonzero;"/>
    <g transform="matrix(1.00843,0,0,1.00843,-12.9674,6.66451)">
        <path d="M56.47,63.16C56.29,62.46 56.07,61.75 55.8,61.03C55.07,58.44 53.81,57.13 52.49,56.51C52.47,56.51 52.45,56.49 52.44,56.49C51.21,55.94 49.93,55.98 48.95,56.17C50.06,53.82 51.05,51.26 50.15,51.52C49.87,51.6 49.54,53.52 48.17,55.35C47.87,55.75 47.55,56.13 47.24,56.5L47.24,56.4C47.25,56.31 47.26,56.22 47.28,56.13C47.65,53.87 48.8,52.31 48.67,52.05C48.4,51.53 47.84,52.3 47.24,53.55L47.24,52.25C47.25,50.6 47.29,49.07 47.41,47.62C47.47,46.86 47.88,46.18 48.53,45.77C48.72,45.65 48.88,45.54 48.99,45.41C49.67,44.58 47.55,44.44 48.85,40.98C48.85,40.96 48.86,40.94 48.87,40.92C49.7,38.82 50.95,36.75 52.82,34.51C53.05,34.23 52.69,33.85 52.4,34.08C47.67,37.76 45.06,40.3 43.84,45.95C43.23,48.76 42.98,52.35 42.98,57.24L42.98,65.39L47.24,65.39L47.24,59.78L48.45,59.78C49.29,59.78 49.94,59.96 50.39,60.31C50.84,60.66 51.19,61.15 51.43,61.78C51.67,62.41 51.88,63.16 52.06,64.05L52.33,65.4L57.05,65.4L56.48,63.16L56.47,63.16ZM47.22,56.69L47.22,56.65C47.22,56.65 47.24,56.66 47.25,56.67C47.24,56.67 47.23,56.68 47.22,56.68L47.22,56.69Z" style="fill:rgb(182,142,33);fill-rule:nonzero;"/>
    </g>
    <g transform="matrix(1.00843,0,0,1.00843,-12.9674,6.66451)">
        <path d="M52.59,50.67C52.45,50.9 52.64,51.34 52.85,51.94C52.98,52.31 52.9,52.73 52.63,53.01C52.09,53.59 51.49,54.13 50.83,54.67C50.77,54.72 50.72,54.79 50.68,54.86C50.63,54.97 50.71,55.11 50.84,55.11C51.51,55.13 52.24,55.25 52.94,55.58C52.94,55.58 53.15,55.7 53.37,55.83C53.47,55.89 53.61,55.86 53.68,55.77C56.24,52.38 57.5,48.02 56.87,43.49C56.77,42.75 56.62,42.03 56.42,41.33C56.35,41.07 56.27,40.81 56.19,40.56C56.19,40.56 56.16,40.47 56.13,40.39C56.1,40.31 55.98,40.33 55.99,40.43C56,40.53 55.99,40.47 55.99,40.5L55.99,40.67C56.01,41.03 55.88,41.39 55.64,41.67C55.5,41.82 55.38,42 55.36,42.14C55.32,42.46 56.05,42.48 55.98,42.93C55.91,43.38 55.24,43.4 55.22,43.79C55.2,44.18 55.78,44.63 55.77,44.98C55.75,45.33 55.02,45.48 54.95,45.85C54.92,46.02 55.04,46.19 55.17,46.36C55.32,46.57 55.5,46.78 55.45,47.02C55.41,47.21 55.23,47.37 55.04,47.51C54.79,47.7 54.5,47.86 54.47,48.05C54.44,48.19 54.54,48.39 54.67,48.58C54.91,48.94 54.95,49.4 54.78,49.8C54.78,49.8 54.78,49.82 54.77,49.83C54.55,50.19 54.33,50.41 54.11,50.55C53.38,51.01 52.72,50.43 52.58,50.67L52.59,50.67Z" style="fill:rgb(182,142,33);fill-rule:nonzero;"/>
    </g>
    <path d="M34.974,63.984C34.974,63.984 34.92,63.969 34.91,63.961C34.755,63.848 32.992,62.522 34.891,64.016" style="fill:rgb(182,142,33);"/>
</svg>
