<?xml version="1.0" encoding="UTF-8"?>
<svg id="Capa_25" data-name="Capa 25" xmlns="http://www.w3.org/2000/svg" viewBox="0 0 100 100">
  <defs>
    <style>
      .cls-1 {
        fill: #ffef00;
      }

      .cls-2 {
        fill: #775c15;
      }
    </style>
  </defs>
  <g id="Group_9031" data-name="Group 9031">
    <g id="Group_9029" data-name="Group 9029">
      <path id="Rectangle_4683" data-name="Rectangle 4683" class="cls-1" d="m45,18h10v9h-10v-9Z"/>
      <g id="Group_9028" data-name="Group 9028">
        <path id="Rectangle_4684" data-name="Rectangle 4684" class="cls-1" d="m14,66h6v10h-6v-10Z"/>
        <path id="Rectangle_4685" data-name="Rectangle 4685" class="cls-1" d="m80,66h6v10h-6v-10Z"/>
        <path id="Rectangle_4686" data-name="Rectangle 4686" class="cls-1" d="m47,66h6v10h-6v-10Z"/>
      </g>
    </g>
    <g id="Group_9030" data-name="Group 9030">
      <path id="Rectangle_4688" data-name="Rectangle 4688" class="cls-2" d="m67,40h2v4h-2v-4Z"/>
      <circle id="Ellipse_626" data-name="Ellipse 626" class="cls-2" cx="50" cy="73" r="1"/>
      <circle id="Ellipse_627" data-name="Ellipse 627" class="cls-2" cx="83" cy="73" r="1"/>
      <path id="Rectangle_4689" data-name="Rectangle 4689" class="cls-2" d="m32,58h4v2h-4v-2Z"/>
      <path id="Path_18986" data-name="Path 18986" class="cls-2" d="m16,65h-3v3h-6v4h2v-2h4v7h8v-7h4v21H9v-15h-2v17h20v-25h-6v-3h-3v-5h10v-2h-12v7Zm3,2v8h-4v-8h4Z"/>
      <circle id="Ellipse_628" data-name="Ellipse 628" class="cls-2" cx="17" cy="73" r="1"/>
      <path id="Path_18987" data-name="Path 18987" class="cls-2" d="m87,68v-3h-3v-7h-33v-5h18v-5h-2v3h-34v-23h34v8h2v-8h4v-11h-13.54c2.21-2.46,2.01-6.25-.45-8.46-2.46-2.21-6.25-2.01-8.46.45-.2.22-.38.45-.54.7-1.82-2.77-5.54-3.53-8.3-1.71-2.77,1.82-3.53,5.54-1.71,8.3.17.25.35.5.56.72h-13.54v11h4v25h18v5h-9v2h9v5h-3v3h-6v16h2v-14h4v7h8v-7h4v21h-16v-3h-2v5h20v-25h-6v-3h-3v-5h31v5h-3v3h-6v12h2v-10h4v7h8v-7h4v21h-16v-7h-2v9h20v-25h-6Zm-16-49v7h-15v-7h15Zm-20-6c0-2.21,1.79-4,4-4s4,1.79,4,4-1.79,4-4,4h-4v-4Zm0,6h3v7h-8v-7h5Zm-6-10c2.21,0,4,1.79,4,4v4h-4c-2.21,0-4-1.79-4-4s1.79-4,4-4Zm-16,17v-7h15v7h-15Zm23,41v8h-4v-8h4Zm33,8h-4v-8h4v8Z"/>
    </g>
  </g>
  <g>
    <path class="cls-1" d="m53.12,47.64c-.11-.45-.26-.9-.43-1.35-.47-1.65-1.26-2.48-2.11-2.87-.01,0-.02-.01-.03-.02-.78-.35-1.59-.32-2.22-.21.71-1.5,1.34-3.13.76-2.95-.18.05-.38,1.27-1.26,2.44-.19.25-.39.5-.59.73v-.06c0-.06.02-.12.02-.17.23-1.43.97-2.43.88-2.6-.17-.33-.52.16-.91.95v-.83c0-1.05.03-2.02.11-2.94.04-.48.3-.92.71-1.18.12-.08.22-.14.29-.23.43-.52-.92-.61-.09-2.82,0-.01,0-.02.01-.04.53-1.33,1.32-2.65,2.51-4.07.15-.18-.08-.42-.27-.28-3.01,2.34-4.67,3.96-5.44,7.55-.39,1.79-.55,4.07-.55,7.18v5.19h2.71v-3.57h.77c.54,0,.95.11,1.23.33.29.22.51.53.66.93.15.4.29.88.4,1.44l.17.86h3l-.36-1.42h0Zm-5.88-4.12h0v-.02s.01,0,.02.01c0,0-.02,0-.02,0h0Z"/>
    <path class="cls-1" d="m50.65,39.7c-.09.15.03.42.17.81.08.24.03.5-.14.68-.34.37-.72.71-1.14,1.06-.04.03-.07.07-.09.12-.03.07.02.16.1.16.43.01.89.09,1.33.3,0,0,.14.08.27.16.07.04.15.02.2-.04,1.63-2.15,2.43-4.93,2.03-7.81-.07-.47-.16-.93-.29-1.37-.05-.17-.09-.33-.15-.49,0,0-.02-.06-.04-.11h0s-.09-.04-.09.02h0s0,.03,0,.04c0,0,0,.01,0,.02,0,.02,0,.03,0,.03,0,.02,0,.04,0,.07.01.23-.07.46-.22.63-.09.1-.17.21-.18.3-.03.2.44.21.4.5-.04.29-.47.3-.49.55s.36.53.35.76c-.01.23-.48.32-.52.56-.02.11.06.22.14.33.1.13.21.27.18.42-.02.12-.14.22-.26.31-.16.12-.34.22-.36.35-.02.09.05.22.13.34.15.23.18.52.07.77,0,0,0,.01,0,.02,0,0,0,0,0,0-.14.23-.28.37-.42.46-.47.29-.88-.08-.97.07h0Z"/>
  </g>
</svg>