<?xml version="1.0" encoding="UTF-8"?>
<svg id="Capa_33" data-name="Capa 33" xmlns="http://www.w3.org/2000/svg" viewBox="0 0 100 100">
  <defs>
    <style>
      .cls-1 {
        fill: #b68e21;
      }

      .cls-2 {
        fill: #ffe092;
      }
    </style>
  </defs>
  <ellipse id="Ellipse_613" data-name="Ellipse 613" class="cls-2" cx="80" cy="56" rx="12" ry="4"/>
  <ellipse id="Ellipse_614" data-name="Ellipse 614" class="cls-2" cx="64" cy="68" rx="12" ry="4"/>
  <path id="Rectangle_4669" data-name="Rectangle 4669" class="cls-2" d="m32,24h14v14h-14v-14Z"/>
  <path id="Rectangle_4670" data-name="Rectangle 4670" class="cls-1" d="m12,60h2v4h-2v-4Z"/>
  <path id="Path_18975" data-name="Path 18975" class="cls-1" d="m92.05,57.99c.58-.5.93-1.23.95-1.99,0-3.28-6.54-5-13-5s-13,1.72-13,5c.03.77.37,1.49.95,1.99-1.1.89-1.28,2.51-.38,3.62.11.14.24.27.38.38-.34.32-.6.71-.77,1.15-.39-.03-.78-.06-1.18-.08v-24.06h5v-16h-18.36c3.87-3.11,4.48-8.77,1.37-12.64s-8.77-4.48-12.64-1.37c-.99.79-1.8,1.79-2.37,2.92-2.26-4.42-7.68-6.18-12.1-3.92-4.42,2.26-6.18,7.68-3.92,12.1.58,1.13,1.39,2.13,2.38,2.92H7v16h5v17h2v-17h50v24c-6.46,0-13,1.72-13,5,.03.77.37,1.49.95,1.99-1.1.89-1.28,2.51-.38,3.62.11.14.24.27.38.38-.3.29-.55.63-.73,1.01H14v-7h-2v9h39.23c.18.37.42.71.72.99-1.1.89-1.28,2.51-.38,3.62.11.14.24.27.38.38-1.1.89-1.28,2.51-.38,3.62.11.14.24.27.38.38-.58.51-.93,1.23-.95,2.01,0,3.28,6.54,5,13,5,5.87,0,11.8-1.42,12.83-4.15,1.04.09,2.11.15,3.17.15,6.46,0,13-1.72,13-5-.02-.77-.37-1.5-.95-2.01,1.1-.89,1.28-2.51.38-3.62-.11-.14-.24-.27-.38-.38,1.1-.89,1.28-2.51.38-3.62-.11-.14-.24-.27-.38-.38,1.1-.89,1.28-2.51.38-3.62-.11-.14-.24-.27-.38-.38,1.1-.89,1.28-2.51.38-3.62-.11-.14-.24-.27-.38-.38,1.1-.89,1.28-2.51.38-3.62-.11-.14-.24-.27-.38-.38,1.1-.89,1.28-2.51.38-3.62-.11-.14-.24-.27-.38-.38h0Zm-61.05-21H9v-12h22s0,12,0,12Zm-7-21c0-3.87,3.13-7,7-7s7,3.13,7,7v7h-7c-3.86,0-7-3.14-7-7Zm21,21h-12v-12h12v12Zm-5-14v-7c0-3.87,3.13-7,7-7s7,3.13,7,7-3.13,7-7,7h-7Zm7,14v-12h22v12s-22,0-22,0Zm4,39c0,.17.02.35.06.51-.04-.17-.06-.34-.06-.51Zm13,15c-7.12,0-11-1.98-11-3,0-.24.25-.54.68-.85,2.5,1.22,6.42,1.85,10.32,1.85s7.82-.63,10.32-1.85c.43.31.68.61.68.85,0,1.02-3.88,3-11,3Zm0-4c-7.12,0-11-1.98-11-3,0-.24.25-.54.68-.85,2.5,1.22,6.42,1.85,10.32,1.85s7.82-.63,10.32-1.85c.43.31.68.61.68.85,0,1.02-3.88,3-11,3Zm0-4c-7.12,0-11-1.98-11-3,0-.24.25-.54.68-.85,2.5,1.22,6.42,1.85,10.32,1.85s7.82-.63,10.32-1.85c.43.31.68.61.68.85,0,1.02-3.88,3-11,3Zm0-4c-7.12,0-11-1.98-11-3,0-.24.25-.54.68-.85,2.5,1.22,6.42,1.85,10.32,1.85s7.82-.63,10.32-1.85c.43.31.68.61.68.85,0,1.02-3.88,3-11,3Zm0-4c-7.12,0-11-1.98-11-3,0-.24.25-.54.68-.85,2.5,1.22,6.42,1.85,10.32,1.85s7.82-.63,10.32-1.85c.43.31.68.61.68.85,0,1.02-3.88,3-11,3Zm0-4c-7.12,0-11-1.98-11-3s3.88-3,11-3,11,1.98,11,3-3.88,3-11,3Zm16,16c-1.21,0-2.3-.07-3.31-.17-.17-.31-.39-.59-.64-.84.34-.32.61-.72.78-1.15,1.04.1,2.1.16,3.17.16,3.9,0,7.82-.63,10.32-1.85.43.31.68.61.68.85,0,1.02-3.88,3-11,3Zm0-4c-1.21,0-2.3-.07-3.31-.17-.17-.31-.39-.59-.64-.84.34-.32.61-.72.78-1.15,1.04.1,2.1.16,3.17.16,3.9,0,7.82-.63,10.32-1.85.43.31.68.61.68.85,0,1.02-3.88,3-11,3Zm0-4c-1.21,0-2.3-.07-3.31-.17-.17-.31-.39-.59-.64-.84.34-.32.61-.72.78-1.15,1.04.1,2.1.16,3.17.16,3.9,0,7.82-.63,10.32-1.85.43.31.68.61.68.85,0,1.02-3.88,3-11,3Zm0-4c-1.21,0-2.3-.07-3.31-.17-.17-.31-.39-.59-.64-.84.34-.32.61-.72.78-1.15,1.04.1,2.1.16,3.17.16,3.9,0,7.82-.63,10.32-1.85.43.31.68.61.68.85,0,1.02-3.88,3-11,3Zm0-4c-1.21,0-2.3-.07-3.31-.17-.17-.31-.39-.59-.64-.84.34-.32.61-.72.78-1.15,1.04.1,2.1.16,3.17.16,3.9,0,7.82-.63,10.32-1.85.43.31.68.61.68.85,0,1.02-3.88,3-11,3Zm0-4c-1.2,0-2.29-.07-3.3-.17-.62-1.16-2.18-2.06-4.21-2.7,2.46.59,4.98.88,7.51.87,3.9,0,7.82-.63,10.32-1.85.43.31.68.61.68.85,0,1.02-3.88,3-11,3Zm-10.63-3.58c.1-.1.2-.19.31-.27.59.28,1.2.51,1.83.7-.71-.17-1.42-.32-2.14-.43Zm10.63-.42c-7.12,0-11-1.98-11-3,0-.24.25-.54.68-.85,2.5,1.22,6.42,1.85,10.32,1.85s7.82-.63,10.32-1.85c.43.31.68.61.68.85,0,1.02-3.88,3-11,3Zm0-4c-7.12,0-11-1.98-11-3s3.88-3,11-3,11,1.98,11,3-3.88,3-11,3Z"/>
  <path class="cls-1" d="m32.57,54.28c-.19-.48.9-1.31,1.32-1.63,1.73-1.32,3.74-1.74,3.82-1.53.08.19-1.59.49-2.61,2.09-.36.57-.49,1.06-1.04,1.3-.57.25-1.37.12-1.5-.23h.01Z"/>
  <path class="cls-1" d="m42.8,64.51c.48.19,1.31-.9,1.63-1.32,1.32-1.73,1.74-3.74,1.53-3.82-.19-.08-.49,1.59-2.09,2.61-.57.36-1.06.49-1.3,1.04-.25.57-.12,1.37.23,1.5h0Z"/>
  <path class="cls-1" d="m22.33,58.33c.71-.61,1.63-.77,2.41-.38.73.35,1.38.81,2,1.32.94.8,2.13,1.97,2.12,3.33,0,.14-.02.3-.07.44-.06.28-.25.55-.4.78-.21.35-.29.75-.3,1.14-.01.53.14,1.04.36,1.51-.04.05-.09.07-.13.07h-.01c-.2,0-.44-.4-.44-.4-.36-.61-.54-.92-.6-1.26-.05-.3-.14-.85.11-1.24.05-.08.14-.31.25-.61.03-.07.02-.14.01-.21-.14-.86-1.18-1.85-1.81-2.5-.49-.49-1.05-1.03-1.56-1.49-.52-.51-1.1-.59-1.87-.39-.03,0-.06,0-.08-.03-.02-.02-.02-.05,0-.08h0Z"/>
  <path class="cls-1" d="m38.4,74.41c.61-.71.77-1.63.38-2.41-.35-.73-.81-1.38-1.32-2-.8-.94-1.97-2.13-3.33-2.12-.14,0-.3.02-.44.07-.28.06-.55.25-.78.4-.35.21-.75.29-1.14.3-.53.01-1.04-.14-1.51-.36-.05.04-.07.09-.07.13h0c0,.21.4.45.4.45.61.36.92.54,1.26.6.3.05.85.14,1.24-.11.08-.05.31-.14.61-.25.07-.03.14-.02.21-.01.86.14,1.85,1.18,2.5,1.81.49.49,1.03,1.05,1.49,1.56.51.52.59,1.1.39,1.87,0,.03,0,.06.03.08.02.02.05.02.08,0h0Z"/>
  <path class="cls-1" d="m30.54,66.19c.19.09.5.2.89.21.57,0,1.06-.23,1.17-.36,0-.02.06-.08.14-.12.06-.03.1,0,.17-.04,0,0,.05-.03.09-.07.14-.19-1.88-2.2-2.07-2.07-.05.04-.07.09-.07.09-.03.06,0,.11-.04.17-.04.09-.11.13-.12.14-.14.1-.37.59-.36,1.17,0,.39.12.7.21.89h0Z"/>
  <path class="cls-1" d="m39.77,68.98c.04-.19.61-.05,1.21-.49.4-.3.78-.83.75-1.35,0-.1-.02-.06-.28-.81-.14-.4-.21-.6-.26-.81-.08-.34-.11-.6-.14-.89-.03-.31-.06-.84-.03-1.45.06-1.33.42-2.63.95-3.85.22-.5.48-1,.77-1.47.27-.42.7-1.07,1.45-1.7.41-.35.8-.58,1.08-.74-.66.99-1.34,2-1.8,3.09-.48,1.24-.78,2.56-.89,3.88-.03.64,0,1.27.06,1.9.05.26.15.63.27.91.11.3.26.6.37.93.26.8.3,2.23-.59,2.98-.54.46-1.2.48-1.39.48-.82.02-1.58-.41-1.53-.64v.03Z"/>
  <path class="cls-1" d="m27.52,57.16c-.24.03-.72-.99-.56-1.87,0-.04.02-.08.02-.11.06-.25.22-.77.68-1.17.94-.82,2.37-.51,3.02-.37.96.21.88.55,1.86.7.96.15,2.06.17,3.06,0,1.08-.16,2.15-.42,3.15-.85.87-.38,1.49-.78,1.86-1.03,6.95-4.66,11.65-10.54,11.65-10.54.6-.75,1.05-1.36,1.28-1.67.08.31.17.82.09,1.45-.07.6-.26,1.06-.41,1.34-1.8,2.26-3.51,4.04-4.88,5.35-2.06,1.98-3.39,3.18-6.17,5.04-.93.62-1.91,1.26-2.94,1.7-.55.24-1.13.41-1.7.56-.5.12-1.79.43-3.49.42-.83,0-1.46,0-2.2-.21-.74-.21-1.11-.31-1.45-.5-.06-.03-.25-.15-.52-.22-.14-.04-.35-.09-.61-.06-.28.04-.48.15-.63.24-.41.25-.63.58-.72.72-.37.6-.25,1.04-.41,1.06l.02.02Z"/>
</svg>