<?xml version="1.0" encoding="UTF-8"?>
<svg id="Capa_27" data-name="Capa 27" xmlns="http://www.w3.org/2000/svg" viewBox="0 0 100 100">
  <defs>
    <style>
      .cls-1 {
        fill: #ffef00;
      }

      .cls-2 {
        fill: #775c15;
      }
    </style>
  </defs>
  <g id="Group_9057" data-name="Group 9057">
    <g id="Group_9055" data-name="Group 9055">
      <path id="Rectangle_4710" data-name="Rectangle 4710" class="cls-1" d="m18,8h11v84h-11V8Z"/>
      <path id="Rectangle_4711" data-name="Rectangle 4711" class="cls-1" d="m81,17h5v12h-5v-12Z"/>
      <path id="Rectangle_4712" data-name="Rectangle 4712" class="cls-1" d="m81,38h5v12h-5v-12Z"/>
      <path id="Rectangle_4713" data-name="Rectangle 4713" class="cls-1" d="m81,59h5v12h-5v-12Z"/>
      <circle id="Ellipse_642" data-name="Ellipse 642" class="cls-1" cx="55" cy="36" r="9"/>
      <path id="Path_19002" data-name="Path 19002" class="cls-1" d="m70.58,64c-3.09-8.83-7.13-15-15.33-15s-12.52,6.17-15.75,15h31.08Z"/>
    </g>
    <g id="Group_9056" data-name="Group 9056">
      <path id="Rectangle_4714" data-name="Rectangle 4714" class="cls-2" d="m64,7h4v2h-4v-2Z"/>
      <path id="Rectangle_4715" data-name="Rectangle 4715" class="cls-2" d="m28,76h2v4h-2v-4Z"/>
      <path id="Path_19003" data-name="Path 19003" class="cls-2" d="m87,30v-14h-5V7h-10v2h8v82H30v-7h-2v7h-9V9h9v63h2V9h30v-2H17v86h65v-21h5v-14h-5v-7h5v-14h-5v-7h5Zm-5-12h3v10h-3v-10Zm3,42v10h-3v-10h3Zm0-21v10h-3v-10h3Z"/>
      <path id="Path_19004" data-name="Path 19004" class="cls-2" d="m45,36c0,5.52,4.48,10,10,10s10-4.48,10-10-4.48-10-10-10c-5.52,0-9.99,4.48-10,10Zm18,0c0,4.42-3.58,8-8,8s-8-3.58-8-8,3.58-8,8-8c4.42,0,8,3.58,8,8Z"/>
      <path id="Path_19005" data-name="Path 19005" class="cls-2" d="m55.25,48c-9.72,0-14.02,8.37-16.69,15.66l-.49,1.34h33.92l-.46-1.33c-2.71-7.75-6.76-15.67-16.28-15.67Zm-14.3,15c3.58-9.09,7.9-13,14.3-13s10.45,3.79,13.91,13h-28.21Z"/>
    </g>
  </g>
</svg>