<?xml version="1.0" encoding="UTF-8"?>
<svg id="Capa_36" data-name="Capa 36" xmlns="http://www.w3.org/2000/svg" viewBox="0 0 100 100">
  <defs>
    <style>
      .cls-1 {
        fill: #b68e21;
      }

      .cls-2 {
        fill: #ffef00;
      }
    </style>
  </defs>
  <g id="Group_9031" data-name="Group 9031">
    <g id="Group_9029" data-name="Group 9029">
      <path id="Rectangle_4683" data-name="Rectangle 4683" class="cls-2" d="m45,18h10v9h-10v-9Z"/>
      <g id="Group_9028" data-name="Group 9028">
        <path id="Rectangle_4684" data-name="Rectangle 4684" class="cls-2" d="m14,66h6v10h-6v-10Z"/>
        <path id="Rectangle_4685" data-name="Rectangle 4685" class="cls-2" d="m80,66h6v10h-6v-10Z"/>
        <path id="Rectangle_4686" data-name="Rectangle 4686" class="cls-2" d="m47,66h6v10h-6v-10Z"/>
      </g>
    </g>
    <g id="Group_9030" data-name="Group 9030">
      <path id="Rectangle_4688" data-name="Rectangle 4688" class="cls-1" d="m67,40h2v4h-2v-4Z"/>
      <circle id="Ellipse_626" data-name="Ellipse 626" class="cls-1" cx="50" cy="73" r="1"/>
      <circle id="Ellipse_627" data-name="Ellipse 627" class="cls-1" cx="83" cy="73" r="1"/>
      <path id="Rectangle_4689" data-name="Rectangle 4689" class="cls-1" d="m32,58h4v2h-4v-2Z"/>
      <path id="Path_18986" data-name="Path 18986" class="cls-1" d="m16,65h-3v3h-6v4h2v-2h4v7h8v-7h4v21H9v-15h-2v17h20v-25h-6v-3h-3v-5h10v-2h-12v7Zm3,2v8h-4v-8h4Z"/>
      <circle id="Ellipse_628" data-name="Ellipse 628" class="cls-1" cx="17" cy="73" r="1"/>
      <path id="Path_18987" data-name="Path 18987" class="cls-1" d="m87,68v-3h-3v-7h-33v-5h18v-5h-2v3h-34v-23h34v8h2v-8h4v-11h-13.54c2.21-2.46,2.01-6.25-.45-8.46-2.46-2.21-6.25-2.01-8.46.45-.2.22-.38.45-.54.7-1.82-2.77-5.54-3.53-8.3-1.71-2.77,1.82-3.53,5.54-1.71,8.3.17.25.35.5.56.72h-13.54v11h4v25h18v5h-9v2h9v5h-3v3h-6v16h2v-14h4v7h8v-7h4v21h-16v-3h-2v5h20v-25h-6v-3h-3v-5h31v5h-3v3h-6v12h2v-10h4v7h8v-7h4v21h-16v-7h-2v9h20v-25h-6Zm-16-49v7h-15v-7h15Zm-20-6c0-2.21,1.79-4,4-4s4,1.79,4,4-1.79,4-4,4h-4v-4Zm0,6h3v7h-8v-7h5Zm-6-10c2.21,0,4,1.79,4,4v4h-4c-2.21,0-4-1.79-4-4s1.79-4,4-4Zm-16,17v-7h15v7h-15Zm23,41v8h-4v-8h4Zm33,8h-4v-8h4v8Z"/>
    </g>
  </g>
  <g>
    <path class="cls-2" d="m54.39,46.77c-.11-.44-.25-.88-.42-1.32-.45-1.61-1.23-2.43-2.06-2.81-.01,0-.02-.01-.03-.01-.76-.34-1.56-.32-2.17-.2.69-1.46,1.31-3.05.74-2.89-.18.05-.38,1.25-1.23,2.38-.18.25-.38.49-.58.72v-.06c0-.06.01-.11.02-.17.23-1.4.95-2.37.86-2.54-.17-.33-.51.16-.89.93v-.81c0-1.03.03-1.98.11-2.88.04-.47.29-.9.69-1.15.12-.07.22-.14.29-.22.42-.51-.89-.6-.09-2.75,0-.01,0-.02.01-.03.52-1.3,1.29-2.59,2.46-3.98.15-.17-.08-.41-.26-.27-2.94,2.29-4.56,3.86-5.32,7.38-.38,1.75-.54,3.98-.54,7.01v5.07h2.65v-3.48h.75c.52,0,.93.11,1.21.33.28.22.49.52.64.91.15.39.28.86.39,1.41l.17.84h2.93l-.35-1.39h0Zm-5.75-4.02h0v-.02s.01,0,.02.01c0,0-.02,0-.02,0h0Z"/>
    <path class="cls-2" d="m51.98,39.01c-.09.15.03.41.16.79.08.23.03.49-.14.67-.33.36-.71.7-1.12,1.03-.04.03-.07.07-.09.11-.03.07.02.15.1.16.42.01.87.09,1.3.29,0,0,.13.08.27.15.06.04.15.02.19-.04,1.59-2.1,2.37-4.81,1.98-7.63-.06-.46-.16-.91-.28-1.34-.04-.16-.09-.32-.15-.48,0,0-.02-.06-.03-.1h0s-.09-.04-.09.02h0s0,.03,0,.04c0,0,0,.01,0,.02,0,.02,0,.03,0,.03,0,.02,0,.04,0,.06.01.23-.07.45-.22.62-.08.1-.16.2-.17.29-.03.2.43.21.39.49-.04.28-.46.29-.47.53s.35.52.34.74c-.01.22-.46.31-.51.54-.02.1.06.21.14.32.1.13.2.26.17.41-.02.12-.13.22-.26.3-.16.12-.33.22-.36.34-.02.09.05.21.12.33.15.22.18.51.07.76,0,0,0,.01,0,.02,0,0,0,0,0,0-.14.22-.28.36-.41.45-.46.28-.86-.07-.95.07h0Z"/>
  </g>
</svg>