<?xml version="1.0" encoding="UTF-8"?>
<svg id="Capa_56" data-name="Capa 56" xmlns="http://www.w3.org/2000/svg" viewBox="0 0 100 100">
  <defs>
    <style>
      .cls-1 {
        fill: #f6c02c;
      }

      .cls-2 {
        fill: #ffe092;
      }
    </style>
  </defs>
  <path id="Path_19031" data-name="Path 19031" class="cls-2" d="m50,26c-13.25,0-24,10.75-24,24s10.75,24,24,24,24-10.75,24-24-10.75-24-24-24Z"/>
  <path id="Rectangle_4749" data-name="Rectangle 4749" class="cls-1" d="m83,56h2v4h-2v-4Z"/>
  <path id="Rectangle_4750" data-name="Rectangle 4750" class="cls-1" d="m83,44h2v8h-2v-8Z"/>
  <path id="Rectangle_4751" data-name="Rectangle 4751" class="cls-1" d="m15,48h2v8h-2v-8Z"/>
  <path id="Rectangle_4752" data-name="Rectangle 4752" class="cls-1" d="m15,40h2v4h-2v-4Z"/>
  <path id="Path_19033" data-name="Path 19033" class="cls-1" d="m95.16,71h-10.16v-7h-2v9h7.84l-14.84,17.46-14.84-17.46h6.84v-2h-4.46c11.61-7.47,14.96-22.93,7.5-34.54-6.39-9.93-18.86-14.04-29.9-9.84L24,6.46,4.84,29h10.16v7h2v-9h-7.84l14.84-17.46,14.84,17.46h-6.84v2h4.46c-11.61,7.47-14.96,22.93-7.5,34.54,6.39,9.93,18.86,14.04,29.9,9.84l17.14,20.17,19.16-22.54h0ZM27,50c0-12.7,10.3-23,23-23s23,10.3,23,23-10.3,23-23,23c-12.7-.01-22.99-10.3-23-23Z"/>
  <path class="cls-1" d="m30.13,53.71c.77-.66,1.75-.83,2.61-.41.79.38,1.49.88,2.16,1.42,1.02.86,2.3,2.13,2.29,3.6,0,.16-.03.32-.07.47-.07.3-.27.59-.44.84-.23.37-.31.81-.33,1.23,0,.57.15,1.13.39,1.63-.05.05-.09.07-.14.08h0c-.21,0-.47-.43-.47-.43-.39-.66-.59-.99-.64-1.36-.05-.32-.15-.92.12-1.34.06-.09.15-.33.27-.66.03-.08.03-.15,0-.23-.16-.92-1.27-2-1.95-2.7-.53-.53-1.13-1.11-1.68-1.61-.56-.55-1.19-.64-2.02-.42-.03,0-.06,0-.08-.03-.02-.02-.02-.06,0-.09h-.02Z"/>
  <path class="cls-1" d="m47.49,71.07c.66-.77.83-1.75.41-2.61-.38-.79-.88-1.49-1.42-2.16-.86-1.02-2.13-2.3-3.6-2.29-.16,0-.32.03-.47.07-.3.07-.59.27-.84.44-.37.23-.81.31-1.23.33-.57.01-1.13-.15-1.63-.39-.05.05-.07.09-.08.14h0c0,.22.43.48.43.48.66.39.99.59,1.36.64.32.05.92.15,1.34-.12.09-.06.33-.15.66-.27.08-.03.15-.03.23-.01.92.16,2,1.27,2.7,1.95.53.53,1.11,1.13,1.61,1.68.55.56.64,1.19.42,2.02,0,.03,0,.06.03.08.02.02.06.02.09,0v.02Z"/>
  <path class="cls-1" d="m39,62.2c.2.09.54.22.96.23.62,0,1.15-.24,1.26-.39,0-.02.06-.09.16-.13.06-.03.11,0,.18-.04,0,0,.06-.03.1-.08.15-.2-2.03-2.38-2.23-2.23-.05.04-.08.1-.08.1-.03.07,0,.12-.04.18-.04.09-.11.14-.13.16-.15.11-.4.64-.39,1.26,0,.42.13.75.23.96l-.02-.02Z"/>
  <path class="cls-1" d="m48.97,65.21c.04-.21.66-.05,1.3-.53.43-.32.85-.9.81-1.46,0-.1-.02-.07-.3-.87-.15-.43-.23-.65-.28-.87-.09-.37-.12-.65-.15-.96-.03-.33-.06-.91-.04-1.56.06-1.43.46-2.84,1.02-4.16.24-.54.51-1.08.83-1.58.29-.45.76-1.15,1.57-1.84.45-.38.86-.63,1.16-.8-.72,1.07-1.44,2.16-1.94,3.34-.52,1.34-.85,2.76-.96,4.19-.04.69,0,1.38.07,2.06.05.28.17.68.29.99.12.33.28.64.4,1,.29.87.32,2.41-.63,3.22-.59.5-1.3.51-1.5.52-.88.02-1.7-.44-1.65-.69Z"/>
  <path class="cls-1" d="m35.74,52.45c-.25.04-.78-1.07-.6-2.01,0-.05.02-.09.03-.12.06-.27.24-.83.74-1.26,1.02-.89,2.56-.55,3.26-.4,1.04.23.95.59,2.01.75,1.03.16,2.22.18,3.3,0,1.16-.17,2.32-.45,3.4-.92.94-.41,1.61-.84,2.01-1.11,7.5-5.03,12.58-11.38,12.58-11.38.65-.81,1.14-1.47,1.38-1.8.09.34.18.89.1,1.56-.08.64-.29,1.14-.44,1.45-1.95,2.44-3.79,4.36-5.26,5.78-2.23,2.14-3.66,3.43-6.67,5.44-1,.67-2.07,1.36-3.17,1.84-.59.26-1.22.45-1.84.6-.54.13-1.93.46-3.77.46-.9,0-1.58,0-2.37-.23-.8-.22-1.2-.33-1.57-.54-.07-.04-.27-.16-.56-.23-.16-.04-.38-.1-.66-.06-.3.04-.51.16-.68.26-.44.27-.68.62-.78.77-.4.65-.27,1.12-.44,1.14h0Z"/>
  <path class="cls-1" d="m41.19,49.34c-.2-.52.97-1.41,1.43-1.76,1.87-1.42,4.03-1.88,4.13-1.66.09.2-1.72.53-2.81,2.26-.39.61-.53,1.14-1.12,1.4-.62.27-1.48.13-1.62-.25h-.01Z"/>
  <path class="cls-1" d="m52.23,60.38c.52.2,1.41-.97,1.76-1.43,1.42-1.87,1.88-4.03,1.66-4.13-.2-.09-.53,1.72-2.26,2.81-.61.39-1.14.53-1.4,1.12-.27.62-.13,1.48.25,1.62h0Z"/>
</svg>