<?xml version="1.0" encoding="UTF-8"?>
<svg id="Capa_56" data-name="Capa 56" xmlns="http://www.w3.org/2000/svg" viewBox="0 0 100 100">
  <defs>
    <style>
      .cls-1 {
        fill: #fffbab;
      }

      .cls-2 {
        fill: #ffef00;
      }
    </style>
  </defs>
  <g id="Group_9086" data-name="Group 9086">
    <path id="Path_19031" data-name="Path 19031" class="cls-1" d="m50,26c-13.25,0-24,10.75-24,24s10.75,24,24,24,24-10.75,24-24-10.75-24-24-24Z"/>
    <g id="Group_9085" data-name="Group 9085">
      <g id="Group_9083" data-name="Group 9083">
        <path id="Rectangle_4749" data-name="Rectangle 4749" class="cls-2" d="m83,56h2v4h-2v-4Z"/>
        <path id="Rectangle_4750" data-name="Rectangle 4750" class="cls-2" d="m83,44h2v8h-2v-8Z"/>
        <path id="Rectangle_4751" data-name="Rectangle 4751" class="cls-2" d="m15,48h2v8h-2v-8Z"/>
        <path id="Rectangle_4752" data-name="Rectangle 4752" class="cls-2" d="m15,40h2v4h-2v-4Z"/>
        <path id="Path_19033" data-name="Path 19033" class="cls-2" d="m95.16,71h-10.16v-7h-2v9h7.84l-14.84,17.46-14.84-17.46h6.84v-2h-4.46c11.61-7.47,14.96-22.93,7.5-34.54-6.39-9.93-18.86-14.04-29.9-9.84L24,6.46,4.84,29h10.16v7h2v-9h-7.84l14.84-17.46,14.84,17.46h-6.84v2h4.46c-11.61,7.47-14.96,22.93-7.5,34.54,6.39,9.93,18.86,14.04,29.9,9.84l17.14,20.17,19.16-22.54ZM27,50c0-12.7,10.3-23,23-23s23,10.3,23,23-10.3,23-23,23c-12.7-.01-22.99-10.3-23-23Z"/>
      </g>
    </g>
  </g>
  <g>
    <path class="cls-2" d="m56.6,63.65c-.21-.82-.47-1.64-.78-2.48-.85-3.01-2.31-4.54-3.85-5.26-.02,0-.04-.02-.06-.03-1.43-.64-2.92-.59-4.06-.38,1.29-2.74,2.45-5.72,1.39-5.4-.33.1-.7,2.33-2.3,4.46-.35.46-.72.91-1.09,1.34v-.11c.02-.11.03-.21.04-.32.43-2.62,1.77-4.45,1.62-4.75-.32-.61-.96.29-1.66,1.75v-1.51c.01-1.92.06-3.7.2-5.38.07-.88.55-1.68,1.3-2.15.22-.14.41-.26.54-.42.79-.96-1.67-1.12-.17-5.16,0-.02.02-.04.02-.06.97-2.44,2.42-4.85,4.6-7.45.27-.32-.15-.76-.49-.5-5.5,4.28-8.54,7.24-9.96,13.81-.7,3.27-1.01,7.45-1.01,13.13v9.48h4.96v-6.52h1.41c.98,0,1.74.2,2.26.61.52.41.93.98,1.21,1.71.28.73.53,1.61.74,2.64l.31,1.57h5.49l-.66-2.6h0Zm-10.76-7.53h0v-.04s.02.02.03.03c-.02,0-.03.01-.03.01h0Z"/>
    <path class="cls-2" d="m52.09,49.12c-.16.27.06.78.31,1.48.15.43.06.91-.26,1.25-.63.67-1.32,1.3-2.09,1.93-.07.06-.13.13-.17.22-.06.13.03.29.18.29.79.02,1.62.17,2.44.55,0,0,.25.14.5.29.12.07.28.04.36-.07,2.97-3.94,4.45-9.01,3.71-14.29-.12-.86-.3-1.7-.52-2.51-.08-.3-.17-.6-.27-.9,0,0-.03-.1-.06-.19h0c-.03-.09-.17-.07-.17.04h0s0,.05,0,.08c0,.01,0,.03,0,.04,0,.03,0,.05,0,.05,0,.04,0,.08,0,.12.02.42-.13.84-.41,1.16-.16.18-.3.38-.33.54-.05.37.81.39.73.92-.08.53-.86.55-.89,1s.66.98.64,1.39c-.02.41-.87.59-.95,1.02-.04.2.1.39.26.6.18.24.38.49.33.77-.04.22-.25.4-.48.57-.3.22-.63.41-.67.63-.03.16.09.4.23.62.28.42.33.95.13,1.42,0,.01-.01.02-.02.04,0,0,0,0,0,0-.26.42-.51.68-.77.83-.85.53-1.61-.14-1.78.14h0Z"/>
  </g>
</svg>