<?xml version="1.0" encoding="UTF-8"?>
<svg id="Capa_35" data-name="Capa 35" xmlns="http://www.w3.org/2000/svg" viewBox="0 0 100 100">
  <defs>
    <style>
      .cls-1 {
        fill: #b68e21;
      }
    </style>
  </defs>
  <g id="Group_9081" data-name="Group 9081">
    <g id="Group_9080" data-name="Group 9080">
      <g id="Group_9078" data-name="Group 9078">
        <path id="Rectangle_4744" data-name="Rectangle 4744" class="cls-1" d="m83,56h2v4h-2v-4Z"/>
        <path id="Rectangle_4745" data-name="Rectangle 4745" class="cls-1" d="m83,44h2v8h-2v-8Z"/>
        <path id="Rectangle_4746" data-name="Rectangle 4746" class="cls-1" d="m15,48h2v8h-2v-8Z"/>
        <path id="Rectangle_4747" data-name="Rectangle 4747" class="cls-1" d="m15,40h2v4h-2v-4Z"/>
        <path id="Path_19028" data-name="Path 19028" class="cls-1" d="m95.16,71h-10.16v-7h-2v9h7.84l-14.84,17.46-14.84-17.46h6.84v-2h-4.46c11.61-7.47,14.96-22.93,7.5-34.54-6.39-9.93-18.86-14.04-29.9-9.84L24,6.46,4.84,29h10.16v7h2v-9h-7.84l14.84-17.46,14.84,17.46h-6.84v2h4.46c-11.61,7.47-14.96,22.93-7.5,34.54,6.39,9.93,18.86,14.04,29.9,9.84l17.14,20.17,19.16-22.54ZM27,50c0-12.7,10.3-23,23-23s23,10.3,23,23-10.3,23-23,23c-12.7-.01-22.99-10.3-23-23Z"/>
      </g>
    </g>
  </g>
  <g>
    <path class="cls-1" d="m56.47,63.16c-.18-.7-.4-1.41-.67-2.13-.73-2.59-1.99-3.9-3.31-4.52-.02,0-.04-.02-.05-.02-1.23-.55-2.51-.51-3.49-.32,1.11-2.35,2.1-4.91,1.2-4.65-.28.08-.61,2-1.98,3.83-.3.4-.62.78-.93,1.15v-.1c.01-.09.02-.18.04-.27.37-2.26,1.52-3.82,1.39-4.08-.27-.52-.83.25-1.43,1.5v-1.3c.01-1.65.05-3.18.17-4.63.06-.76.47-1.44,1.12-1.85.19-.12.35-.23.46-.36.68-.83-1.44-.97-.14-4.43,0-.02.01-.04.02-.06.83-2.1,2.08-4.17,3.95-6.41.23-.28-.13-.66-.42-.43-4.73,3.68-7.34,6.22-8.56,11.87-.61,2.81-.86,6.4-.86,11.29v8.15h4.26v-5.61h1.21c.84,0,1.49.18,1.94.53.45.35.8.84,1.04,1.47.24.63.45,1.38.63,2.27l.27,1.35h4.72l-.57-2.24h0Zm-9.25-6.47h0v-.04s.02.01.03.02c-.01,0-.02.01-.03.01h0Z"/>
    <path class="cls-1" d="m52.59,50.67c-.14.23.05.67.26,1.27.13.37.05.79-.22,1.07-.54.58-1.14,1.12-1.8,1.66-.06.05-.11.12-.15.19-.05.11.03.25.16.25.67.02,1.4.14,2.1.47,0,0,.21.12.43.25.1.06.24.03.31-.06,2.56-3.39,3.82-7.75,3.19-12.28-.1-.74-.25-1.46-.45-2.16-.07-.26-.15-.52-.23-.77,0,0-.03-.09-.06-.17h0c-.03-.08-.15-.06-.14.04h0s0,.04,0,.07c0,.01,0,.02,0,.03,0,.03,0,.04,0,.04,0,.03,0,.07,0,.1.02.36-.11.72-.35,1-.14.15-.26.33-.28.47-.04.32.69.34.62.79-.07.45-.74.47-.76.86s.56.84.55,1.19c-.02.35-.75.5-.82.87-.03.17.09.34.22.51.15.21.33.42.28.66-.04.19-.22.35-.41.49-.25.19-.54.35-.57.54-.03.14.07.34.2.53.24.36.28.82.11,1.22,0,0,0,.02-.01.03,0,0,0,0,0,0-.22.36-.44.58-.66.72-.73.46-1.39-.12-1.53.12h0Z"/>
  </g>
</svg>