<?xml version="1.0" encoding="UTF-8"?>
<svg id="Capa_57" data-name="Capa 57" xmlns="http://www.w3.org/2000/svg" viewBox="0 0 100 100">
  <defs>
    <style>
      .cls-1 {
        fill: #f6c02c;
      }

      .cls-2 {
        fill: #775c15;
      }
    </style>
  </defs>
  <path id="Path_18970" data-name="Path 18970" class="cls-1" d="m50,26c-13.25,0-24,10.75-24,24s10.75,24,24,24,24-10.75,24-24-10.75-24-24-24Z"/>
  <path id="Rectangle_4664" data-name="Rectangle 4664" class="cls-2" d="m83,56h2v4h-2v-4Z"/>
  <path id="Rectangle_4665" data-name="Rectangle 4665" class="cls-2" d="m83,44h2v8h-2v-8Z"/>
  <path id="Rectangle_4666" data-name="Rectangle 4666" class="cls-2" d="m15,48h2v8h-2v-8Z"/>
  <path id="Rectangle_4667" data-name="Rectangle 4667" class="cls-2" d="m15,40h2v4h-2v-4Z"/>
  <path id="Path_18973" data-name="Path 18973" class="cls-2" d="m95.16,71h-10.16v-7h-2v9h7.84l-14.84,17.46-14.84-17.46h6.84v-2h-4.46c11.61-7.47,14.96-22.93,7.5-34.54-6.39-9.93-18.86-14.04-29.9-9.84L24,6.46,4.84,29h10.16v7h2v-9h-7.84l14.84-17.46,14.84,17.46h-6.84v2h4.46c-11.61,7.47-14.96,22.93-7.5,34.54,6.39,9.93,18.86,14.04,29.9,9.84l17.14,20.17,19.16-22.54h0ZM27,50c0-12.7,10.3-23,23-23s23,10.3,23,23-10.3,23-23,23c-12.7-.01-22.99-10.3-23-23Z"/>
  <path class="cls-2" d="m36.3,52.42c-.25.04-.78-1.07-.6-2.02,0-.05.02-.09.03-.12.06-.27.24-.83.74-1.26,1.02-.89,2.57-.55,3.27-.4,1.04.23.95.59,2.01.76,1.03.16,2.22.18,3.31,0,1.16-.17,2.33-.45,3.41-.92.95-.41,1.62-.84,2.01-1.11,7.51-5.03,12.6-11.4,12.6-11.4.65-.81,1.14-1.47,1.38-1.8.09.34.18.89.1,1.56-.08.65-.29,1.14-.44,1.45-1.95,2.44-3.79,4.36-5.27,5.79-2.23,2.14-3.67,3.44-6.68,5.45-1,.67-2.07,1.36-3.18,1.84-.59.26-1.22.45-1.84.6-.55.13-1.94.46-3.77.46-.9,0-1.58,0-2.38-.23-.8-.22-1.2-.33-1.57-.55-.07-.04-.27-.16-.56-.24-.16-.04-.38-.1-.66-.06-.3.04-.51.16-.68.26-.44.27-.68.62-.78.78-.4.65-.27,1.12-.44,1.15h0Z"/>
  <path class="cls-2" d="m41.76,49.31c-.2-.52.98-1.41,1.43-1.76,1.88-1.42,4.04-1.88,4.14-1.66.09.2-1.72.53-2.82,2.26-.39.61-.53,1.15-1.12,1.41-.62.27-1.48.13-1.62-.25h-.01Z"/>
  <path class="cls-2" d="m52.82,60.37c.52.2,1.41-.98,1.76-1.43,1.42-1.87,1.88-4.04,1.66-4.13-.2-.09-.53,1.72-2.26,2.82-.61.39-1.15.53-1.41,1.12-.27.62-.13,1.48.25,1.62Z"/>
  <path class="cls-2" d="m30.69,53.69c.77-.66,1.76-.83,2.61-.42.79.38,1.49.88,2.16,1.43,1.02.86,2.3,2.13,2.29,3.6,0,.16-.03.32-.07.48-.07.3-.27.59-.44.85-.23.37-.31.81-.33,1.23,0,.57.15,1.13.39,1.64-.05.05-.09.07-.14.08h0c-.21,0-.47-.44-.47-.44-.39-.66-.59-1-.65-1.37-.05-.32-.15-.92.12-1.34.06-.09.15-.33.27-.66.03-.08.03-.15,0-.23-.16-.93-1.27-2-1.95-2.7-.53-.53-1.13-1.11-1.68-1.61-.56-.55-1.19-.64-2.02-.42-.03,0-.06,0-.08-.03-.02-.02-.02-.06,0-.09h0Z"/>
  <path class="cls-2" d="m48.07,71.07c.66-.77.83-1.76.42-2.61-.38-.79-.88-1.49-1.43-2.16-.86-1.02-2.13-2.3-3.6-2.29-.16,0-.32.03-.48.07-.3.07-.59.27-.85.44-.37.23-.81.31-1.23.33-.57.01-1.13-.15-1.64-.39-.05.05-.07.09-.08.14h0c0,.22.44.48.44.48.66.39,1,.59,1.37.65.32.05.92.15,1.34-.12.09-.06.33-.15.66-.27.08-.03.15-.03.23-.01.93.16,2,1.27,2.7,1.95.53.53,1.11,1.13,1.61,1.68.55.56.64,1.19.42,2.02,0,.03,0,.06.03.08.02.02.06.02.09,0h0Z"/>
  <path class="cls-2" d="m39.57,62.19c.21.09.54.22.96.23.62,0,1.15-.24,1.26-.39,0-.02.06-.09.16-.13.06-.03.11,0,.18-.04,0,0,.06-.03.1-.08.15-.2-2.03-2.38-2.23-2.23-.05.04-.08.1-.08.1-.03.07,0,.12-.04.18-.04.09-.11.14-.13.16-.15.11-.4.64-.39,1.26,0,.42.13.76.23.96l-.02-.02Z"/>
  <path class="cls-2" d="m49.55,65.21c.04-.21.66-.05,1.31-.53.43-.32.85-.9.82-1.46,0-.1-.02-.07-.3-.87-.15-.43-.23-.65-.28-.87-.09-.37-.12-.65-.15-.96-.03-.33-.06-.91-.04-1.56.06-1.44.46-2.84,1.03-4.16.24-.54.51-1.08.84-1.58.29-.45.76-1.15,1.57-1.84.45-.38.86-.63,1.16-.8-.72,1.07-1.44,2.16-1.95,3.34-.52,1.34-.85,2.77-.96,4.19-.04.69,0,1.38.07,2.06.05.28.17.68.29.99.12.33.28.64.4,1,.29.87.32,2.41-.63,3.23-.59.5-1.3.52-1.51.52-.88.02-1.7-.44-1.66-.69h-.01Z"/>
</svg>