<?xml version="1.0" encoding="UTF-8"?>
<svg id="Capa_32" data-name="Capa 32" xmlns="http://www.w3.org/2000/svg" viewBox="0 0 100 100">
  <defs>
    <style>
      .cls-1 {
        fill: #b68e21;
      }

      .cls-2 {
        fill: #ffef00;
      }
    </style>
  </defs>
  <g id="ic_empty_peers" data-name="ic empty peers">
    <g id="Group_9024" data-name="Group 9024">
      <g id="Group_9023" data-name="Group 9023">
        <circle id="Ellipse_618" data-name="Ellipse 618" class="cls-2" cx="50" cy="50" r="12"/>
        <circle id="Ellipse_619" data-name="Ellipse 619" class="cls-2" cx="50" cy="16" r="8"/>
        <circle id="Ellipse_620" data-name="Ellipse 620" class="cls-2" cx="50" cy="84" r="8"/>
        <circle id="Ellipse_621" data-name="Ellipse 621" class="cls-2" cx="20.56" cy="33" r="8"/>
        <circle id="Ellipse_622" data-name="Ellipse 622" class="cls-2" cx="79.44" cy="67" r="8"/>
        <circle id="Ellipse_623" data-name="Ellipse 623" class="cls-2" cx="20.56" cy="67" r="8"/>
        <circle id="Ellipse_624" data-name="Ellipse 624" class="cls-2" cx="79.44" cy="33" r="8"/>
      </g>
      <path id="Path_18980" data-name="Path 18980" class="cls-1" d="m83.94,59.21c-1.08-.62-2.27-1.01-3.5-1.14v-10.07h-2v10.07c-2.49.28-4.75,1.59-6.24,3.6l-10.5-6.06c1.72-3.54,1.72-7.67,0-11.21l10.5-6.06c1.49,2.01,3.75,3.32,6.24,3.6v2.07h2v-2.06c4.94-.55,8.5-5,7.96-9.94-.55-4.94-5-8.5-9.94-7.96-2.5.28-4.77,1.59-6.26,3.62l-13.96-8.06c2-4.55-.07-9.86-4.63-11.86-4.55-2-9.86.07-11.86,4.63-1.01,2.3-1.01,4.93,0,7.23l-13.96,8.06c-2.94-4.01-8.58-4.87-12.58-1.93-4.01,2.94-4.87,8.58-1.93,12.58,1.49,2.03,3.76,3.34,6.26,3.62v10.06h2v-10.07c2.49-.28,4.75-1.59,6.24-3.6l10.5,6.06c-1.72,3.54-1.72,7.67,0,11.21l-10.5,6.06c-1.49-2.01-3.75-3.32-6.24-3.6v-2.07h-2v2.06c-4.94.55-8.5,4.99-7.96,9.93s4.99,8.5,9.93,7.96c2.5-.28,4.77-1.59,6.26-3.62l13.96,8.06c-2,4.55.07,9.86,4.63,11.86s9.86-.07,11.86-4.63c1.01-2.3,1.01-4.93,0-7.23l13.96-8.06c2.95,4,8.58,4.86,12.58,1.91,4-2.95,4.86-8.58,1.91-12.58-.74-1-1.67-1.84-2.75-2.46Zm-33.94,1.79c-6.08,0-11-4.92-11-11s4.92-11,11-11,11,4.92,11,11h0c0,6.07-4.93,10.99-11,11Zm25.94-34.06c3.35-1.93,7.63-.79,9.56,2.56,1.93,3.35.79,7.63-2.56,9.56-3.35,1.93-7.63.79-9.56-2.56-.93-1.61-1.18-3.52-.7-5.31.48-1.79,1.65-3.32,3.26-4.25Zm-25.94-17.94c3.87,0,7,3.13,7,7s-3.13,7-7,7-7-3.13-7-7c0-3.86,3.14-7,7-7Zm-23.38,27.5c-1.93,3.35-6.21,4.49-9.56,2.56-1.61-.93-2.78-2.46-3.26-4.25-.49-1.79-.23-3.71.7-5.31,1.93-3.35,6.21-4.49,9.56-2.56,3.35,1.93,4.49,6.21,2.56,9.56Zm2.18.1c.82-1.87.98-3.96.45-5.93-.12-.43-.27-.86-.46-1.27l13.97-8.07c1.48,2.02,3.74,3.33,6.23,3.61v3.06h2v-3.06c2.49-.28,4.75-1.59,6.23-3.61l13.97,8.07c-.18.41-.34.84-.46,1.27-.53,1.97-.37,4.06.45,5.93l-10.48,6.06c-2.22-3.24-5.8-5.3-9.72-5.61v-5.05h-2v5.05c-3.92.3-7.49,2.36-9.72,5.61l-10.48-6.06Zm-4.74,36.46c-3.35,1.93-7.63.79-9.56-2.56-1.93-3.35-.79-7.63,2.56-9.56,3.35-1.93,7.63-.79,9.56,2.56.93,1.61,1.18,3.52.7,5.31-.48,1.79-1.65,3.32-3.26,4.25Zm25.94,17.94c-3.87,0-7-3.13-7-7s3.13-7,7-7,7,3.13,7,7c0,3.86-3.14,7-7,7Zm7.23-12.33c-1.48-2.02-3.74-3.33-6.23-3.61v-3.06h-2v3.06c-2.49.28-4.75,1.59-6.23,3.61l-13.97-8.07c.18-.41.34-.84.46-1.27.53-1.97.37-4.06-.45-5.93l10.49-6.05c2.22,3.24,5.8,5.3,9.72,5.6v5.05h2v-5.05c3.92-.3,7.49-2.36,9.72-5.61l10.48,6.06c-.82,1.87-.98,3.96-.45,5.93.12.43.27.86.46,1.27l-13.97,8.06Zm28.27-8.17c-1.93,3.35-6.21,4.49-9.56,2.56-3.35-1.93-4.49-6.21-2.56-9.56,1.96-3.34,6.24-4.45,9.58-2.5,3.3,1.94,4.44,6.17,2.55,9.5Z"/>
    </g>
  </g>
</svg>