<?xml version="1.0" encoding="UTF-8"?>
<svg id="Capa_38" data-name="Capa 38" xmlns="http://www.w3.org/2000/svg" viewBox="0 0 100 100">
  <defs>
    <style>
      .cls-1 {
        fill: #f6c02c;
      }

      .cls-2 {
        fill: #ffe092;
      }
    </style>
  </defs>
  <g id="Group_9022" data-name="Group 9022">
    <g id="Group_9020" data-name="Group 9020">
      <circle id="Ellipse_615" data-name="Ellipse 615" class="cls-2" cx="52" cy="16.4" r="8.4"/>
      <circle id="Ellipse_616" data-name="Ellipse 616" class="cls-2" cx="85.6" cy="79.4" r="8.4"/>
      <circle id="Ellipse_617" data-name="Ellipse 617" class="cls-2" cx="18.4" cy="79.4" r="8.4"/>
      <g id="Group_9019" data-name="Group 9019">
        <path id="Path_18976" data-name="Path 18976" class="cls-2" d="m39.2,53.15v17.85h-8v-34.65l20.8,16.9,20.8-16.9v34.65h-8v-17.85l-12.8,10.4"/>
      </g>
    </g>
    <g id="Group_9021" data-name="Group 9021">
      <path id="Path_18977" data-name="Path 18977" class="cls-1" d="m30.2,34.24v37.76h10v-16.74l3.88,3.15,1.26-1.55-7.14-5.8v18.94h-6v-31.55l19.8,16.09,19.8-16.09v13.55h2v-17.76l-21.8,17.71-21.8-17.71Z"/>
      <path id="Path_18978" data-name="Path 18978" class="cls-1" d="m71.8,70h-6v-18.95l-13.8,11.21-3.7-3.01-1.26,1.55,4.96,4.03,11.8-9.59v16.74h10v-8h-2v6Z"/>
      <path id="Rectangle_4673" data-name="Rectangle 4673" class="cls-1" d="m71.8,56h2v4h-2v-4Z"/>
      <path id="Path_18979" data-name="Path 18979" class="cls-1" d="m87.36,70.17c2.28-5.01,3.45-10.46,3.44-15.97-.09-17.78-12.18-33.25-29.41-37.65,0-.05,0-.1,0-.16,0-5.19-4.21-9.4-9.4-9.4-5.19,0-9.4,4.21-9.4,9.4,0,.05,0,.1,0,.15-20.79,5.18-33.44,26.23-28.26,47.02.56,2.26,1.33,4.47,2.29,6.6-5.1.96-8.46,5.88-7.5,10.98.96,5.1,5.88,8.46,10.98,7.5,2.87-.54,5.32-2.38,6.64-4.98,14.52,12.45,35.95,12.45,50.47,0,2.35,4.62,8.01,6.47,12.63,4.11,4.62-2.35,6.47-8.01,4.11-12.63-1.32-2.59-3.77-4.43-6.62-4.97ZM52,9c4.09,0,7.4,3.31,7.4,7.4s-3.31,7.4-7.4,7.4-7.4-3.31-7.4-7.4c0-4.08,3.32-7.4,7.4-7.4ZM18.4,86.8c-4.09,0-7.4-3.31-7.4-7.4s3.31-7.4,7.4-7.4,7.4,3.31,7.4,7.4c0,4.08-3.32,7.4-7.4,7.4Zm33.6,4.2c-9.03,0-17.75-3.32-24.49-9.33,1.27-5.01-1.76-10.1-6.76-11.37-.65-.16-1.31-.26-1.97-.28-8.74-18.35-.95-40.3,17.39-49.04,2.15-1.02,4.39-1.83,6.69-2.42,1.18,5.05,6.23,8.18,11.28,7,3.48-.81,6.19-3.53,7-7,16.23,4.25,27.57,18.87,27.66,35.65.01,5.47-1.21,10.88-3.58,15.82-5.16.18-9.2,4.51-9.02,9.68.02.67.12,1.33.28,1.97-6.74,6.02-15.46,9.34-24.49,9.33Zm33.6-4.2c-4.09,0-7.4-3.31-7.4-7.4s3.31-7.4,7.4-7.4,7.4,3.31,7.4,7.4c0,4.08-3.32,7.4-7.4,7.4Z"/>
    </g>
  </g>
</svg>