<?xml version="1.0" encoding="UTF-8"?>
<svg id="Capa_30" data-name="Capa 30" xmlns="http://www.w3.org/2000/svg" viewBox="0 0 100 100">
  <defs>
    <style>
      .cls-1 {
        fill: #b68e21;
      }

      .cls-2 {
        fill: #ffe092;
      }
    </style>
  </defs>
  <path id="Path_19016" data-name="Path 19016" class="cls-2" d="m50,24l-22,40h44l-22-40Zm3,13l-1,12h-4l-1-12h6Zm-3,22c-1.66,0-3-1.34-3-3s1.34-3,3-3,3,1.34,3,3-1.34,3-3,3Z"/>
  <path id="Path_19017" data-name="Path 19017" class="cls-2" d="m50,8l-34,8v49.2c0,2.25.95,4.4,2.63,5.91,7.73,7.92,16.85,14.36,26.91,18.99l.13.06c1.42.65,2.85,1.27,4.31,1.84h.02c1.45-.58,2.89-1.19,4.31-1.84l.13-.06c10.06-4.62,19.18-11.06,26.91-18.98,1.67-1.51,2.63-3.66,2.63-5.91v-1.2h.03V16l-34-8h-.01Zm29.75,54.25h-.03v1.05c0,1.97-.84,3.85-2.3,5.17-6.76,6.93-14.74,12.56-23.54,16.61l-.12.05c-1.24.57-2.5,1.11-3.77,1.61h-.03c-1.27-.5-2.53-1.04-3.77-1.61l-.12-.05c-8.8-4.05-16.78-9.68-23.54-16.61-1.46-1.32-2.3-3.2-2.3-5.17V20.25l29.75-7,29.75,7v42h.02Z"/>
  <path id="Path_19018" data-name="Path 19018" class="cls-1" d="m50,6.97L15,15.21v32.79h2v-31.21l33-7.76,33,7.76-.03,48.41c0,1.99-.86,3.88-2.34,5.21-7.64,7.84-16.66,14.2-26.61,18.77l-.13.06c-1.29.59-2.59,1.15-3.9,1.68h0c-1.31-.54-2.61-1.1-3.89-1.68l-.13-.06c-9.97-4.57-19-10.95-26.65-18.81-1.46-1.32-2.29-3.2-2.3-5.17v-5.2h-2v5.2c0,2.51,1.06,4.91,2.91,6.61,7.81,8.02,17.03,14.52,27.21,19.19l.13.06c1.43.66,2.89,1.28,4.35,1.86l.39.14.37-.14c1.47-.58,2.92-1.21,4.35-1.86l.14-.06c10.16-4.66,19.36-11.15,27.16-19.15,1.87-1.7,2.95-4.12,2.95-6.65l.03-49.99L50,6.97Z"/>
  <path id="Rectangle_4728" data-name="Rectangle 4728" class="cls-1" d="m15,52h2v4h-2v-4Z"/>
  <path id="Path_19019" data-name="Path 19019" class="cls-1" d="m64,65h9.69l-23.69-43.08-23.69,43.08h33.69v-2h-30.31l20.31-36.92,20.31,36.92h-6.31s0,2,0,2Z"/>
  <path id="Path_19020" data-name="Path 19020" class="cls-1" d="m45.91,36l1.17,14h5.84l1.17-14h-8.18Zm5.17,12h-2.16l-.83-10h3.83l-.83,10h0Z"/>
  <path id="Path_19021" data-name="Path 19021" class="cls-1" d="m50,52c-2.21,0-4,1.79-4,4s1.79,4,4,4,4-1.79,4-4-1.79-4-4-4Zm0,6c-1.1,0-2-.9-2-2s.9-2,2-2,2,.9,2,2-.9,2-2,2Z"/>
  <path id="Rectangle_4729" data-name="Rectangle 4729" class="cls-1" d="m78.75,32h2v4h-2v-4Z"/>
  <path id="Path_19022" data-name="Path 19022" class="cls-1" d="m80.75,19.46l-30.75-7.24-30.75,7.24v43.84c0,2.23.94,4.36,2.58,5.87,6.85,7.03,14.94,12.73,23.85,16.83l.11.05c1.26.58,2.53,1.12,3.81,1.63l.35.16.04-.02.37-.15c1.29-.51,2.56-1.06,3.82-1.64l.12-.05c8.9-4.08,16.97-9.77,23.8-16.78,1.67-1.51,2.62-3.66,2.62-5.92l.03-23.3h-2l-.03,23.3c0,1.71-.74,3.34-2.01,4.48-6.67,6.85-14.55,12.41-23.24,16.4l-.12.06c-1.11.51-2.23.99-3.37,1.45-1.13-.46-2.24-.94-3.35-1.45l-.13-.06c-8.71-4-16.6-9.57-23.29-16.44-1.25-1.14-1.97-2.75-1.97-4.44V21.04l28.75-6.76,28.75,6.76v6.96h2v-8.54h0Z"/>
</svg>