<?xml version="1.0" encoding="UTF-8"?>
<svg id="Capa_35" data-name="Capa 35" xmlns="http://www.w3.org/2000/svg" viewBox="0 0 100 100">
  <defs>
    <style>
      .cls-1 {
        fill: #b68e21;
      }
    </style>
  </defs>
  <g id="Group_9081" data-name="Group 9081">
    <g id="Group_9080" data-name="Group 9080">
      <g id="Group_9078" data-name="Group 9078">
        <path id="Rectangle_4744" data-name="Rectangle 4744" class="cls-1" d="m83,56h2v4h-2v-4Z"/>
        <path id="Rectangle_4745" data-name="Rectangle 4745" class="cls-1" d="m83,44h2v8h-2v-8Z"/>
        <path id="Rectangle_4746" data-name="Rectangle 4746" class="cls-1" d="m15,48h2v8h-2v-8Z"/>
        <path id="Rectangle_4747" data-name="Rectangle 4747" class="cls-1" d="m15,40h2v4h-2v-4Z"/>
        <path id="Path_19028" data-name="Path 19028" class="cls-1" d="m95.16,71h-10.16v-7h-2v9h7.84l-14.84,17.46-14.84-17.46h6.84v-2h-4.46c11.61-7.47,14.96-22.93,7.5-34.54-6.39-9.93-18.86-14.04-29.9-9.84L24,6.46,4.84,29h10.16v7h2v-9h-7.84l14.84-17.46,14.84,17.46h-6.84v2h4.46c-11.61,7.47-14.96,22.93-7.5,34.54,6.39,9.93,18.86,14.04,29.9,9.84l17.14,20.17,19.16-22.54ZM27,50c0-12.7,10.3-23,23-23s23,10.3,23,23-10.3,23-23,23c-12.7-.01-22.99-10.3-23-23Z"/>
        <g>
          <path class="cls-1" d="m29.82,53.58c.77-.66,1.75-.83,2.6-.41.78.37,1.48.88,2.15,1.42,1.01.86,2.29,2.12,2.28,3.59,0,.16-.03.32-.07.47-.07.3-.27.59-.43.84-.23.37-.31.8-.32,1.22-.01.57.15,1.12.39,1.63-.05.05-.09.07-.14.08,0,0,0,0-.01,0-.21,0-.47-.43-.47-.43-.39-.66-.58-.99-.64-1.36-.05-.32-.15-.91.12-1.33.06-.09.15-.33.27-.65.03-.08.03-.15.01-.23-.16-.92-1.27-1.99-1.94-2.69-.53-.52-1.13-1.1-1.68-1.6-.56-.55-1.18-.64-2.01-.42-.03,0-.06,0-.08-.03-.02-.02-.02-.06,0-.09Z"/>
          <path class="cls-1" d="m47.11,70.87c.66-.77.83-1.75.41-2.6-.37-.78-.88-1.48-1.42-2.15-.86-1.01-2.12-2.29-3.59-2.28-.16,0-.32.03-.47.07-.3.07-.59.27-.84.43-.37.23-.8.31-1.22.32-.57.01-1.12-.15-1.63-.39-.05.05-.07.09-.08.14,0,0,0,0,0,.01,0,.21.43.47.43.47.66.39.99.58,1.36.64.32.05.91.15,1.33-.12.09-.06.33-.15.65-.27.08-.03.15-.03.23-.01.92.16,1.99,1.27,2.69,1.94.52.53,1.1,1.13,1.6,1.68.55.56.64,1.18.42,2.01,0,.03,0,.06.03.08.02.02.06.02.09,0Z"/>
          <path class="cls-1" d="m38.65,62.04c.2.09.54.22.96.23.62.01,1.14-.24,1.25-.39.01-.02.06-.09.15-.13.06-.03.11,0,.18-.04,0,0,.06-.03.1-.08.15-.2-2.02-2.37-2.22-2.22-.05.04-.08.1-.08.1-.03.07-.01.12-.04.18-.04.09-.11.14-.13.15-.15.11-.4.64-.39,1.25,0,.41.13.75.23.96Z"/>
          <path class="cls-1" d="m48.58,65.03c.04-.21.66-.05,1.3-.52.43-.32.84-.9.81-1.45,0-.1-.02-.07-.3-.87-.15-.43-.23-.65-.28-.87-.09-.36-.12-.64-.15-.96-.03-.33-.06-.9-.04-1.56.06-1.43.45-2.83,1.02-4.14.24-.54.51-1.08.83-1.58.29-.45.75-1.15,1.56-1.83.44-.37.86-.63,1.16-.79-.71,1.07-1.44,2.15-1.94,3.33-.52,1.34-.84,2.75-.96,4.17-.04.68-.01,1.37.07,2.05.05.28.17.68.29.98.12.32.28.64.4,1,.28.86.32,2.4-.63,3.21-.59.5-1.29.51-1.5.52-.88.02-1.7-.44-1.65-.69Z"/>
          <g>
            <path class="cls-1" d="m35.4,52.32c-.25.04-.77-1.07-.6-2.01,0-.05.02-.09.03-.12.06-.27.24-.83.74-1.26,1.01-.89,2.56-.55,3.25-.39,1.04.23.95.59,2,.75,1.03.16,2.21.18,3.29,0,1.16-.17,2.31-.45,3.39-.91.94-.4,1.61-.84,2-1.11,7.47-5.01,12.53-11.34,12.53-11.34.64-.81,1.13-1.46,1.38-1.79.09.34.18.89.1,1.56-.08.64-.28,1.14-.44,1.44-1.94,2.43-3.77,4.34-5.25,5.76-2.22,2.13-3.65,3.42-6.64,5.42-1,.67-2.06,1.35-3.16,1.83-.59.25-1.21.45-1.83.6-.54.13-1.93.46-3.75.46-.9,0-1.57,0-2.37-.23-.79-.22-1.19-.33-1.56-.54-.07-.04-.27-.16-.56-.23-.16-.04-.38-.1-.66-.06-.3.04-.51.16-.67.26-.44.27-.68.62-.77.77-.4.65-.27,1.12-.44,1.14Z"/>
            <g>
              <path class="cls-1" d="m40.83,49.22c-.2-.52.97-1.4,1.43-1.75,1.87-1.42,4.02-1.87,4.11-1.65.09.2-1.71.53-2.8,2.25-.39.61-.53,1.14-1.12,1.4-.62.27-1.47.13-1.62-.25Z"/>
              <path class="cls-1" d="m51.83,60.22c.52.2,1.41-.97,1.75-1.43,1.42-1.87,1.87-4.02,1.65-4.11-.2-.09-.53,1.71-2.25,2.8-.61.39-1.14.53-1.4,1.12-.27.62-.13,1.47.25,1.62Z"/>
            </g>
          </g>
        </g>
      </g>
    </g>
  </g>
</svg>